<mxfile host="app.diagrams.net" modified="2024-05-20T03:00:57.913Z" agent="Mozilla/5.0 (Windows NT 10.0; Win64; x64) AppleWebKit/537.36 (KHTML, like Gecko) Chrome/125.0.0.0 Safari/537.36" etag="oF2oTZJLfRYzcUEo1Llz" version="24.4.4" type="github">
  <diagram name="Diagramas C4" id="n9h5B85qZ0_F_QSysm-a">
    <mxGraphModel dx="1224" dy="1793" grid="1" gridSize="10" guides="1" tooltips="1" connect="1" arrows="1" fold="1" page="1" pageScale="1" pageWidth="827" pageHeight="1169" math="0" shadow="0">
      <root>
        <mxCell id="0" />
        <mxCell id="1" parent="0" />
        <mxCell id="QaiE9f9N_jXpPTgubkZL-1" value="&lt;font color=&quot;#b8b2b2&quot; face=&quot;Courier New&quot; style=&quot;font-size: 15px;&quot;&gt;&lt;b&gt;Dinotrack&lt;/b&gt;&lt;/font&gt;" style="rounded=0;whiteSpace=wrap;html=1;verticalAlign=top;labelPosition=center;verticalLabelPosition=middle;align=left;" parent="1" vertex="1">
          <mxGeometry x="20" y="20" width="620" height="440" as="geometry" />
        </mxCell>
        <mxCell id="QaiE9f9N_jXpPTgubkZL-18" value="" style="edgeStyle=orthogonalEdgeStyle;rounded=0;orthogonalLoop=1;jettySize=auto;html=1;startArrow=classic;startFill=1;" parent="1" source="QaiE9f9N_jXpPTgubkZL-3" target="QaiE9f9N_jXpPTgubkZL-4" edge="1">
          <mxGeometry relative="1" as="geometry" />
        </mxCell>
        <mxCell id="QaiE9f9N_jXpPTgubkZL-3" value="" style="sketch=0;outlineConnect=0;fontColor=#232F3E;gradientColor=none;fillColor=#7EA6E0;strokeColor=none;dashed=0;verticalLabelPosition=bottom;verticalAlign=top;align=center;html=1;fontSize=12;fontStyle=0;aspect=fixed;pointerEvents=1;shape=mxgraph.aws4.mobile_client;" parent="1" vertex="1">
          <mxGeometry x="91.86" y="189.75" width="57.29" height="109" as="geometry" />
        </mxCell>
        <mxCell id="QaiE9f9N_jXpPTgubkZL-20" value="" style="edgeStyle=orthogonalEdgeStyle;rounded=0;orthogonalLoop=1;jettySize=auto;html=1;startArrow=classic;startFill=1;" parent="1" source="QaiE9f9N_jXpPTgubkZL-4" edge="1">
          <mxGeometry relative="1" as="geometry">
            <mxPoint x="414" y="244.25" as="targetPoint" />
            <Array as="points">
              <mxPoint x="380" y="244.25" />
              <mxPoint x="380" y="244.25" />
            </Array>
          </mxGeometry>
        </mxCell>
        <mxCell id="QaiE9f9N_jXpPTgubkZL-4" value="Internet" style="ellipse;shape=cloud;whiteSpace=wrap;html=1;" parent="1" vertex="1">
          <mxGeometry x="220" y="217" width="100" height="54.5" as="geometry" />
        </mxCell>
        <mxCell id="QaiE9f9N_jXpPTgubkZL-7" value="&lt;font color=&quot;#aba6a6&quot; style=&quot;font-size: 15px;&quot;&gt;Firebase&lt;/font&gt;" style="html=1;dashed=0;whiteSpace=wrap;labelPosition=center;verticalLabelPosition=top;align=center;verticalAlign=bottom;horizontal=1;strokeWidth=3;strokeColor=#FF8000;" parent="1" vertex="1">
          <mxGeometry x="414" y="57.5" width="196" height="365" as="geometry" />
        </mxCell>
        <mxCell id="QaiE9f9N_jXpPTgubkZL-10" value="" style="shape=image;verticalLabelPosition=bottom;labelBackgroundColor=default;verticalAlign=top;aspect=fixed;imageAspect=0;image=data:image/png,iVBORw0KGgoAAAANSUhEUgAAAvUAAAKeCAIAAACqE3NDAABhYUlEQVR4AezWMREAAAgEoA9nWktqChcPUpABAPjFbwAAvwEA8BsAAL8BAPAbAAC/AQD8BgDAbwAA/AYA4Pw3XVl266AIQBAIAKBmQuNoFir4hlz61woGMARz4GNnNsQCAPyN3wAA8fwGAMBvAIAAfvPe5ygAADG/ea5RAAD8BgDwG78BAPwGAMBvAAD8BgDAbyIBAH4DAOA3AAB+Ew8A8BsAAL8BAPCbeACA3wAA+A0AgN/Ufc3LDAD0V/fVb0KULeU0AQD9lS35jd8AgN/4jd8AgN/4DQDgN34DAPiN3wAAfuM3AOA3fuM3AOA3fgMA+I3fAAB+4zcAgN+08xsA8Bu/AQD8xm8AAL/xGwDAb9r5DRwfe+cAM0kShuGcjZx9OSvHtW3btm3btm3btm3btvfJvtlK5++dyezN+b7Km6Sm1FV96Ccf6k/3xeoxPR6pjhm+ahj16S2zRl46dXR0zRzhPGVYxXQsuGxI23/CkVsledd7zFWju83tVqdHrt/CX7lN8g+ObFl5+sCO7jl+4afJZDK+Mb4xmf4e9SkY616A0q9I3N4FYqh+cs/mcJ6yoHcjFrl64cw/4cidMnz9yPOum9gPngtn5RntKmkpsEkt4WtI2ZSzOlab0KDgY881mYxvjG+Mb0zGN2cO7jq6dbVX3XP+2izuq2cP76F3cf/m/z2+OXdkH8c8tn3t9csX1DK/Z4NwVsYIdPPq5Tu3bw2vnEEt4WvdhL5s7MSujY8912QyvjG+Mb4xGd9gJ/D3oiaxXuyY/svQF2wY7Zn6kZ8IzjeNoj8bZIUGUZ5CQXp5RKBeLR4i34yrl08tzeK9dnjTcu2Qzf/uY6IWCd9sk+JDfzuDg29bO/8r+MZkMr4xvjGZjG+2zhm9Z8WsCQ0LPfw5hp+DSiWd3bnG5TMnbt+8MalJUX2/JzYqjBvr7p3bNB7evMLZMBzfnD92gMcd2bKK+s1rV1gZ1PCCy5QWpfiQ371z586tm9iTiNfBgOQGDC6TguiWu3fvPjC97J3fo74XCFokeGP5sA5Xzp6kF3vMphnDwLIQ+QZNbVlGjQBKy0RvcUbULftPK0d2uXHlElaZvoViC0E4OHtjkxwTKhpVPatbpG2KjzSxd/7ornFAiUT718y/feM6U84c2IkPKwK9sfKuJdNuXb/K0y+fOc4TWyV5h/aeeaKw1MWTR2hnD1q5bcqP6QpLJpPxjfGNyWR8I2JY1Lepfl49f1rmBM2izOxQhfa143vrJ94ZPuSqT2tV1ss3zAUUqLhy/dL5bjl+1hiIRI23blxjEdUPrl/cIMqT9PYvGh9yogX0QerdNH2o5rZO+t7ZQ7vVCHaocu3C2U4ZvwmRbzbPGE4LFAJ8gCnUIxwTpMOUdWjjsnu+snRQ6wgrDy2fWi0TGxfR2wDL3Ma0bWlc3bzusK6cP7qfIOjBZZL7n9U507fMMpmMb4xvjG9MIcn4BgsBQOBEhGwQvqHsX7NgZLUsY2rngjywYegTPr1NeSwcTeO8ItwBF0gpcnxDYbXJTYsPKJ5w8YAW+q5jztHKfQrEPLVvG4laAE2jGM/xRE1hML2rx3RXkBC+pMYxX2BBLElEQGvutrlj6b144rAMJ50zf8dStOxZPjMI3+xcNJm4oiUDW+1bPU8tG6cOZoD4RmXjtCEkf2GjAiywJ7lh4M6IKpnk1aLAIn6+IQGNN8BPfEzN479O8PK01uVEaRqAMUZmmwvHD2Ih618sAa8FHoLw4B6gjTfM3mT6oo54t0wMSyaT8Y3xzf9WJsuf4hMehG8wMIAgbpEDaxfSuHvZjA5pP5f4tGvklOYlxTcCIHwubtacLjX1rC5ZvlcLZMMAuAGfDgYMPvP0wkx04Y2SaQf3UPs0n7lFRAmykeBjchuAD2ihHWdTiPlTp/Zu1WDxjU7kDY7B2kQjCfOusUnsl3gVNO5YOMnPN8AK9Uunj/E23Mb2rZpL44Ypgx68gVqySAFk3oQpbcPib0zGN8Y3xjemcGV8s2J4R6wUTlhNgvANd8Z4F7lx5aIWCeS7Ed9gU/HOapfqE40ZUSWjko+4OUYtQhOF2gA0itt1vYq/mde9buMYz9M1pFyqe4FLzzyRA/ENRyM7jGVhDrxsuJ80wPHN5GYlvBcFqRFzjnc1gn5kX/HzDXgUaFcHNyxhAI4q6sd3rP/786dMJuMb4xuTyeJvFvZp7B2jqJpDG5b6LwkcWTVzIL7B7vKQbzLhclIgLTnbmGrmdq29bd44EMfxDWoa52VsOXtXziE2WROpY/IZWiENdRlF/Btol/rT4PE3fjm+we8WDt8QDkwdhPLvalaHqsY3JpPxjfGN6R8t4xvSmhTO4loUEezym5x/qkfuSG7A7E7VH/qnfnDbYJbLh/LabxCRyEq9xiukBSmkODnyGFsnN70OhljT/QyfbziLrskBSrzJ81iSdHY/3wh9Lpw4BL25KdiTsEWpDsbJP+XNIwPXvA64tRP6KPCI+l8nk8n4xvjGZDK+wZ+lRchthkLglSUDWkInhM0qSVs4omAUruLloQt6NVR8MdfrMYAQHK9LCCCQbUN8g5EGgKBO2jkRxADNwj5N1Ns124+Mx5BD/drFcywOKxB3rJAg4o7D5xsnXHhqx6bSr0g8IObAukUOaPx8w19pUDQxYc4cmV5ORxw37jwghgHYlhRjhNVqbJ08JIrrtTBrRtuKeui8HvUYoH8ExOvwbmn802UyGd8Y35hMxjdcfkPU7T1fWT95gNd+w1JKF3KFLz23JOvyG5d6DRUxDCeU4ED2m5ntK/vXV3qUQAEziWt3ieLOlxQ+38hupMt7IhTsNIHyw7ntRlYoV4R0mJc0gLQp3HD+/HDlnSGARklYKjJKmUzGN8Y3xjcmUzDx+dTFcb3yRg39fr/xDQr47+clVerkni1ACeKiP2wVNKp3fP38zML+QdgyoSTKhNq+YIIyp6TWyd7fPHME5g16+bMJ/OkrQnCYNbpGdg0gdRy80C0yBOss6tcM4HDTWyZ+G+vRlXOn6AWPdi6e0itftED4oiMPLJmEn365+/0w0kToIqIZgwo+KagFvxL7lFMsEN/oWkKMSdo26Ma2XSCzxDvZu2K2DDlcmeju9/MOwEBFiM999u5AU2EwDMAwODhXdoAD6drSPQQEAQEBkIIIDYRCGgSpj7GQRf58Gg8PmKT9idfWvy/uA8ZWrDiSCvSNvgFiCsHrKZXN7acmfZ7F8WZXVJd4QfTB6zdPOM3YHv88RCJyretiWHteuZ8cCugbfQMQ16hiM3z7r2cL0nvoG30D0I5fOFabxyjN/gJ9o28ATvvqUp+2i9njYcSAvtE3AIC+KaBvAEDf6BsAQN/oGwBA3+gbAEDfFNA3AKBv9A0AoG/0DQCgb/RNAgDQN/oGANA3+gYA0Df6BgDQNwX0DQDoG30DAOgbfQMA6Bt9AwDomwx1tT7vVvkAgLpa6xsAAH0DAKBvAIBP0TcAAPoGAEDfAADoGwCggL4BANA3AAD6BgBA3wAABfQNAIC+AQDQNwAA+gYAKKBvAAD0DQCAvgEA0DcAgL7RNwCAvgEA0DcAAPoGAEDfpAAA9A0AgL4Bjsv55O/nXcS6fel3Cugb4LCcx2/tXRyK+wbQN4C+0TeAvgH0jb4B9A3om+n/73U06EKsT//6BtA3oG9u42EXkvsG0DeAvtE3gL4B9I2+AfQN6Jt8+gbQN8CdnTvGQRAIAihqNOLNECKV0XNJ5SUAzuAZ1GPQSmWhJQ1rOZK85JVbbia/2B19o28AfQOLp2/0DaBvAH2jbwB9A/pmvFRtvmY6nZpi2xZZ2qCB4G/pG9A3r/oQsiPYjmNA3wD6Rt8A+gbQN/oG0Degb75n3tcjcxb5BhnQN6BvfKRK0Degb/QN6Bt9A+gbQN/oG0DfAPpG3wD6BuLpG30D6BtA3+gbQN8A+kbfAPoG0vTNWFfdfkMzmWBtmXXlLm2431zCOKBvQN/YcRyw4xjQN4C+0TeAvgH0jb4B9M1voG/6fPU4MavP9Q3oG2CBffM8M6vXN6BvAH2jbwB9A+gbfQPom1Cgb/QNoG8AfaNvAH0D6Bt9A+ibeKBv9A2gbwB9o28AfQPoG30TD/QNoG/0DaBvAH2jbwB9E48Pe+cAJEm2heHFs23btm2vx7Zt27Zt27ZnytXVLtve93ef9+5WVPUYHR39Z3wRkffcm1m1OzMZX5x7TlY9gH5TOvavlfPbFII4Zo1dPh84s8G5aeStF5/B8MHAtXJPU4+v0m8IIfSbxw4h9JvwjUOv1nSEbxzEbPDSDhmK7jwYmlfeIDexLu5EvyGE0G9qGULoN549M3CezaTNvb5BvyGE0G8IIXXJb6LGszWrycuvL5/2clG/78mQfkMIod8QQuq831gG/cS1bRzQvPRs9fCnOLev7K1t8g7XtvERwxn/6XWyUtvwzdCX0LX90aJLwYvbK2Y1wSV5flM5r1XZlBdD1w9ETed9x1cUDfihLFB3sC3tijvELJeDl3e5to41tPt4bhEP7hm6shuz4VtHnRuG6Vq8F3GFseOn3bumRvSn8N/iPbK4Ziej3xBCv6HfEEK/sS7pLE8DJHIwhH/gPOWtjJovSDwTDSKub/XBmOWKRNQBF9G8/Lpcv4F8qFnZ9lIZHUP7TySsxrw7pMNeU/evyALP/jl5s0lnib7l+2W2ZMxfMrFQ3s2hU/QbQug39BtSf6HfpCN+FNzkom/zkdv5jRwoPXZuHiX5m9CVPYik/A6kWMx9vm1f1TebTiFiX9FL+Y0c8Uo9Ui9ItOATMcQyc+9vid/AmRI2U+mEf5l7fh3NVpl4GAsC5zZjFqkaCAuGqAdCJVDlvNawmcC5TaZuX5JrM9EAZsO3jhQP/41l4I+lLDqbjBs7f45+Qwj9hn5DyP9gfTHM4A5+49o+Qd0BQiNBuIUKOjcORyRhNeT6DXI82ISSBegVzySiCHoOzJWIpsGbdE3fqWv+Hn2rD2BvC/tfmE35bJjSNXvXq9ksht4D87AAEW2jt6jPkpVJV6m6OS6PV2gRdG4aQb8hhH5DvyGkvuZvgm685yYXfesP3cFvDB0+qe5gW9JFbScpZLcIUqJp8EblN5VzWmC9Ap+CINI2MkQhs9qiysQjCYcFJ3AgmfUdXYqhpHxQvuNYM0DX4n0yhTKgqngqgc9VYKjSP/QbQu4M/YYQwvobGb5OrXGsHVitHUlUFheCnIrym9IJ/8R6BZIxCMbLNTjHFGRIUj7YeIKyoIBG+Y2kZPDp8bKbskxSO3j9IKYQrBr67YWfjo0w+g0h9wT9hhBCv1G9UaB8egMp6DW0/agKYv9I7RYpv/HsnakWwJDiFToEUbuDIRqmcB4rvqrujP4p5TeCNEwhbYPqHCm4QVJHvYQwrDmGcwW2sR6wf4oQQr8hhNBvUDQju1Eo75WqZBTQwFdSXis6mJTfqIYpeI++zYd9J1ZKEMXCWINmK/U1pCEr6S5XflPU/we4OUqSUTssneSx0huYxadgWD6jodwKmST5nuhjR3YH7VrmXt+k3xBy39BvCCH0G1Axu9lr20YBJ0pkRGfKJv1H+Y00NOU9ZKLmi3JneA+G8k1QNIN6IBmK35i6fTmbjEkE2oS9MDmvmNVUXo0jDVxShaOuhSGhgZx+Q8iDQL8hhNBvAFQmYTerp0dVp/e4vxW+30+9Jgf2g/piXbN3q9f3efbNQlC9KSdvf8oy+GeSs5EjHfbZlnVDXEAVs3vHJKSR1M2REDK0+xj3pwih39BvCKmPfvMIgaPgdXzoEq96Lc2LT99mzdN4gY1lyC+wRVU4i40tTKl3+hWCrvXiob8s6vd9OFPhrLbx27CTBROS5i/W3xBCv6HfEEK/qX/QbwAh9BtCCP2GfkMIod8QQug39BtCCP2mViGEfkO/IYTQbwgh9Bv6DSGEfkMIod/Qbwgh9JvahhD6Df2GEEK/IYTQb+g3hBD6DSGEfkO/qX0Iod8QQug3+O3u8I2DwDLk5/QbQgj9hhBS5/3G1OOr6kHhP7mafkMIod8QQuq83+DHLNWDIpuM6Zq9i35DCKHfEELqsN9oXn5dym+vytycWS+/+F05v81t17/4tLHTZwCuut0abZO34zc1dc3fU+Osvs1HzD2/rmvxPvoNIY8L+g0hhH5TOu5v8ojAT4VH9KdxEjGcQVyBX/BO2IsAfug7XnZTFqe81soFbdUa/6m1WGBf09+1ZQwyQNWJoGzoym5Dh0+9dp+BP46VXFNPpKjpfFHf79JvCHn00G8IIfSbwLlNVb7is2leeta2tKs8Lkxdv6gWlIz6gwTTYW/eU8WxbpCsCWuO1bgAmSF9mw9jgb7l+zPRACKZaDBediubSVev9+lbfZB+Q0gdhH5DCP0G/P6pLX96XSGb//S62vUbXYv3ZpNxPB/cu6dhCBcR83BtHVuD30T8FXOaG9p9vGTUHxM2EyLZdMrQ/hPKb3AEL+8y9/mOsdNnXdvGSwSdWdVZor/L0Njl8xiaun3Jd3yFZdBP62T+hhBCvyGEfnNnatdvrIs7yfOhqP8PJIIWcQyTngqkc/L8pmJWE3UhKmywA4WgbVk35TcJu1nT4I1qDQwGwUwsdOvFZ0zdvizrI/pT5dMbQKRYf0PIY4F+Qwih30TNF+X5gOoZAXtGEkGSJs9vdM3ejaEiYTUi6Nk7U/mNZ/+c3AVlU16QC8VmHOsGi+JIdQ5ExzLoJ/QbQug39BtCHiX0G1OPr93hiYGS4Ty/wc4UhoqUtxJB9JYrv/EdW567AJtZcqHqpTL3+gYKkFHFLI1a2VQC34F+Q0jdgX5DCCnTBkyX74zjwp5a9BvXjonycHBuGmFf1VcRNZ5TL8JRfpNXlFM28d9q00r5DQp0DO0+9v+289dHjWcRTLrLJWLu8+3S8f+QcxToSJuVc8Mw+g0h9RP6DSHssXrUfiOvvfHZ8GSIFV/Nmyqb9Jw8NKQDXPkNDpTUQGhc28aJnaSDLm2Tdyi/qbaZMtuKnpXzWqHJXCKODUOxAApV7Uxx9JCjER1VO5LCwQn95tFACP2GfkMI/aZ07F/lyWBf1SdffRq8CZkYTCEBk+s36uU3cmQS0ZIxf87tD4+Xa8Ra1BG+dVTzyhskYSP7WbkHmrBQ00O/eTQQQr+h3xBCvymf0dB7cD4wtP1o4ax1UQeZxcuIld/gdXyefbOqy5DN/lNrUEwji5XfIFgy5i8R7XG0X6FyGYkckRv15mLsiMUslyE6sZLrKMT5L3t3gIFAEAVg+HJ1laC6Q+dIkShslaArRBWAUEBAgeoELaNAZTTKyLc+sBYM+K1nXpjL0Tegb/QN6Jtfe/TNm1ng0DfX1Szz/VOAvgH0jb4B9E3+QN/oG0DfAPqmnLO5LIpSuP/mqVPRKj8Io8r6BtA3EM+OqtA3+dM3gL4BfRNN3+gbSKVvAH2jbwB9A+gbfQPoG7Cjard577ic6xt9A/9H34B/PPpG30A8fQPoG30D6BtA3+gbQN8A+kbfAPoG0Df6BtLpG0Df6BtA3wD6Rt8A+gZI65tgXOWloqJvQN8A/3jHMfoG9A2gb/QNoG8AfaNvAH0DJDlsz/t1Pib9drNRD2aDTniZofLcoo4X0DcAo363dn+mw54DAfQNoG8A9A2gb4Ak+gZA3wD6BtA3APoG0DcA+gbQN0ACfQOgbwB9A+gbAH0D6BsAfRMH0DeAvgHQN4C+AdA3gL4B9A2AvkkA6BtA3wDoG0DfAOgbQN8A+gZA33wM0DeAvgHQN4C+AdA3gL4B9A2AvvkmQN8A+gZA3wD6BtA3APoG0DdwY+8ecAOBojCMLmvCWc4b27Zt27aN2jbG9gLGtRu915wvJ6h7G/01sbFvAPsGwL4B7BsA+wawb/oJsG8A7BvAvgGwbwD7BrBvAOwbwL4BBs++AbBvAPsGwL4B7BvAvgGwb4A4fH9WkXX36iD2Tfa9q1+aymI8CrBvALZvWrdu5bKavMf93De/n3P9quW/RXoRYN8A5Ny7Fv62fPGCe1fOPivL7nbfNJdk3bl0etmi+eFvj29ciPQiwL4B+P6scsqkiaFd06ZMnjFtSmhp5vRpnZ5h3LixnxvL4j0KsG8Aju7bEQbSvu2bo74IsG8AqnMfhYFU8vRO7EcB9g3AgrmzQ/+aOX3qj+eVsV8E2DcAl08dCf3rzOF9CVwE2DcAryrzRo4cGfpRY1FGGkcB9g3AupXLQl8tX7wgmYsA+wbg0fXzoa9uXzyZzEWAfQPwubFs3LixoedGjxr1vrYopaMA+wZg77ZNoee2bliT2EWAfQNQ/OR26Lnse1cTuwiwbwB+PK+cNX1a6K6JE8Z/bS5P7SLAvgHo8J81O3R4z/YkLwLsG4DmkqwRI0aELlXlPkz1KMC+AVi2aH7o2LzZsxK+CLBvAG5dOBk6dunk4YQvAuwbgPe1RSM7fovqZUVe2kcB9g3A3FkzQ0uzZkxP/iLAvgG4e/lMaOnG+RPJXwTYNwBfm8snTZwQQhg3dsznhtKhcBRg3wAc2r0thLB764aErwDsm2/PKgFalWc9CCEUPLrV/pEAKe2br88q8yWpY4sWLcrLy2v/GEn6+qwy4X0jSU+ePPFBkGTfSJKkWLNvilqSJEkaCvumuLj4e0uSJEnFxcX2jSRJijj7RpIkyb6RJElxZ99IkiTZN5IkKc7sG0mSJPsm7iRJkn0jSZJk38SdJEmybyRJkuybuJMkSfaNJEmSfRN3kiTJvpEkSbJv4k6SJNk3yXbx6Yuzj6MDABefvrBv7JtBNnx67rBJ2bEBgOHTc+0b+8a+AcC+sW/sG/sGAPvGvrFvAMC+sW/sGwCwb+wb+wYA7Bv7xr4BwL6xb+wb+wYA+8a+sW8AwL6xb+wbALBv7Bv7BgDsG/vGvgGg/+wb+8a+AQD7xr6xbwDAvrFv7BsAsG/sG/sGfrFzDkyaLFkY/llr27auObZt27ZtG23btq3ZJ/qNe6K2aro3rnoWJ+PERFVmVqq+mXzmnDfL7auTnr+1Pm3cjqw/Lkv+0oQR6vTb02On7s35ydx4X3835xvnG+eb/2JzO3Sn4kUg9fUPlNV17rpe9rXJn++vxW3ntTIWvLGt96WlS44XNLX12nvJLW9/fW3qCIwqpbCF7mqbu/0H4OZ843zjfOP2v8M3lpILWvAfvJIhOd/MOpAbfSMtHX2/Wpj4eY+K8dBX/8CLH852F47bfznfON8437g53/T2DczYl4PNOZT3NLORHNKKU4WvZEjON5mlbRSV1nb+dWUKf21n7s/t6e1v7+rj7Xzeo5q4Mysmp3n5yYL/+hV2c75xvnG+cXO+Yfu0nK9Ojqlt7iHzYVpDsObvlyYvOpa/+kzR2O2ZX54Ydu38YkEipevOFbMZf29mXKj0ixOevbcpA2Bi43xrfXpI8PGP1alYMCDy5+XJ5PxiQYKeVQVqfnNaLL6NxccLfjI3QTURpny4JWPV6cKlJwre3pAeneCP5sTPPZS39mzR9H0535oWGyplqDS4/nzxgiN5vxzWO/Kd6bG0sO5cEZDBYIJFuFXIGXSuMM30NWeLIMUfzwn7P74y6Tn0wEhYom9Mjdl5rXQovmls7aHo+INKy2H1mH6oGqtBRzTIkJim5dsC4oPBCTd5d/ayEwW/X5rEOwovtSqvSCHzT8uTbS5/WJYcrEB9GqGjBUfyVS1kv1uStPAov40i1EJMM1T68/kJPMhvY/bB3B/M0m/Dzc35xvnG+cZtZPkGy6toJ/N5dpNu2YyvxNYODLywVFHfFZSDbL9ainDHSrt7+9ntrPTvq1MLqjpUpIR/gu1WpWO3Zynzj4E9FdcFOaceVXENS6kCbFHT1K3r+YfzKHp9bRo1Qy2LMwRGWy+XMjUrbevsY4u1XqbuySbHSpng0fuVPBVdpZWnCzu6+oIdoVOxrfpqXC05d5Lr76U0WIWO7v53ArzFcrFoVlrZ0EVfQ/FNfG6zAlKTdmVHxyNjIlSwBnv6BrZdKVVlW8C9N8v0Kgevy+cdztM1gGjt/HpRol7d6cfV3F6Lq9UyWgWozpRASvdTG6A9Q58Lz2rUglJVYzeyaHt808VivINWyusAtsh3c3O+cb5xvnEbOb5hu8IXQg4JB4My76Y0KIZ1M7HuxINKQQYbs1wU/HefW/EQLoei6k6uqfPdGbGU/mZxkhhCVMTmp2tcRLgcPhbfsIXzZ0NrD5Ea+Oa3S5K4+AgXug19Smo6cUHx4JZLJTYwYCKnvF3Kknc3plP6zakxGhgEcPhuBXojrju7+wGRqGtKJBGb03zwTsWj9Eah3q2k+iDfKDE8xLkmClaFn81PaOnoVSalBjpD8Q0uLk1WUSpeRMg9A/cwBoEIUxMPkXBi2QLaitE1gALfsCwMj5y0olZrinyxHY6ZKN/gj6FI68bCGuiYb+9GQp1k6awGb58XITJjynIj6XGW7tj9SmFuXUuPe3HcnG+cb5xv3F6NvhhMUUBk1NZM5bDVWcRHO/Tu62VyJKjCT+clKI4z52CuCAMDieTRmbAzSzlEZ+TsAZU+Ft/wlBr50sTnjO3WYMtdPf2MUE9BZuX1XZsulhC4+cHseKAtSGlEagAdcp5mNg36LZLULMehFecijBWNrMmgNJwfdgsPCQppM8g35ONBoSlcGsoRArK1iyHgD7lYCPcIPoxvoogDHgXdHgTRLCSn9WcFzGFz8mGVfCeU2gKSiBnJlfXdGXFc4NFRPuShtVUsEs0NtyG+4SnRKs3q7VAfN09WadviY/l0BCmqtSl7svU44KKuAUF5yFSB1VZAjUX2k1luzjfON843I23ON9qG2bDt+MyZJ9XyARy4XW4mAWxifovcG0CGoj/nn9WgBQFxbCdW0ZF7FcFOL8XUklnd2P2x+IZRBQU9MBOZeC8sUz3qAjGQnoItbNgP0xsFWzwOJJXVdckvdTe5Hm2QXA5RU4QOVQ3hp2dZTQz+7OCakPSdGPENziTbuZEEqQIRNG6Lazq5fvCveqYTEMnQfKM5frA5AweJxXcAOEXldAuL2NQuxdQoE7eWLWBGSVuoTeYouNS6gVl6ioso36C4UinqmegKi9v03jUGWXpxK5n8SQVkUsTptDgXn9fAiPLqubk53zjfON+MnPn5qbjBMEd//0BQP/E4AyZ4eSLcoDq4VQg6WD5MAw2Q//1ZcUG5jBlKGoU82CxfyjeQR5RvNlwotgrWMhzDbdSk3h0q4UigDhEZ85FoPIBLVB4LruVVdLy0HSGR+IY4lz3y5ro0VZCYunUwEMZXhayCEViUb6IYwcoo7oOvhdtpe3OGmRpdG9+Am9GWbyfVq198bMTaFDeE9qJ8A12pTempowYXDjUMvqKkOqjRLXQouNyo9+jm5nzjfON84zYi+hvJRPq0OYkAApt3B5tcyIKnbMCCUVsyiFih0qA+iSM/oAm0xDUC5GCnxwLS2tEfxb+QIVtTjCfKNwq1yNiP5YdQ+Clqq84UaV6wWnTkFtaR8pfQT2pRq3qJ7r4EvKRlmbgrmxNYnAZCaBLlG6I2Q/GNwklotK2CQkVRvpHPgyKYQJ4YGUJpNUhgzrADJI1ODVdTyAEWMt6LHmfWejuacpRv/rIyJRh+itr5p9WU4p2KDsNoVW8Qhxbn4RXtIo3ZppCim5vzjfON843biOiLiS5xS2LrUg4noeTUYV+0uAlPsSmKgVC6sPvuu1VuoRztmsh7uUXYIdWtFBjSnErYez2+Ts4JAws7ccPt8HwTbNnOdQMTKYWtTAFZDL4ZPcWxZHsE1QhoBUDoH1OOEYEmVFZpdlk79QlChZbo3NNqCZJ0q5jdx+IbyEaLrBPsCv00t/dG+SaoyU3Ia5FoBkeLJotjDL8Oyy5hNSofgZqo5Vp8nahieL7B7FCVJNWojqJ8o5WXW444l2KOcjvxhSS8MnSN0EoBTSDVfhv8Enj1gKDcbJsvlUiLIwmUyBXW4XaEzM35xvnG+cbN+cbiFyQO6YhXiEMphoWgFSVNenGbKqAVNWUrCW3KgdsVMdlNwceRoMrRgg6DcAZHi4lQaKtmI9fmTfhGCEUpmzrXw/ON7eg8Im0HUIK2hllIKiSlM6O181Mof59kNIobpGsmZKZSzlWxASNzUWt7boS3XvrVLr7jaimROJw3VPxYfPO3Vam4f7SGhIRYB6himPNT4iESKwOx6XM4JLjKDuTbefgj9yoRcat9jimJeIbnG2TOtsjQmzKjfKOD8aoG6LCeHNTSGuLP48VhCvDxijkezyKbGwyU5HF+LbqFz/htoOw2zxOlI2duzjfON843bs43HIFhM5NrRMeS+USKtrGgVEXuGclTBCWWQq4FPqAX+ngMCILsxnpcfrIwWAo/JRW0/Fu+EaPASSo1XICoVIoLAWAKlsppJBUwjhCOAoVKgQmmE/1nN7usLai/Zp/+WHyD4eoQ2ClxLYiJ8o38HIwzNDYATrEnDR6BsFDDEosmVfjwfKOz8fbtHD7uNwzf8BIJloU6KqzqkDdO6nImHtKnyz2jV2C8a4kupC76vMzN+cb5xvnGzQ2NBf+ZRrIa+qAtmZi+widNDOeoCe5wCoZolElDbLvFscF/0DnFw5/2XTuZYlgojnE/nH5cBc0o7GImKSt+ER7n42/wBy3QuxQ5bLEajDoNGSeYiEDhhOA4Em6J6Ed++aAwQ2LYxE2MNsxeW5OK7Jd+6Z3DzNF914CDgaE+hipgFzrVkPR3igNNXNsxdcVlVIELy+RzzFsvl2gkLCy3VJCXK2oSBuExoj6HkhQcjEayIAkq4CZh/U0jrO/W2AK+1IiUUYHvKYfy31gXnouiadsHR8L0KbWInslrEOhQRAW+MUjl0CkwWFYnvPCTvXQi/2S3DkQAAAAAAPlbL3INcf3N3/xNVX/zN3/zN1X9zd/8TVX9zd/8TVX9zd/8TVX9zd/8TVV/8zd/8zdV/c3f/E1V/c3f/E1V/c3f/E1V/c3f/E1Vf/M3f/M3Vf3N3/xNVf3N3/xNVf3N3/xNVf3N3/xNVX/zN3/zN1X9zd/8TVX9zd/8TVX9zd9gt45pAAABAIbZ40MRB/7ADAqwsaPNRCxm7jvWkSSp1tz3RfgbAAB/AwC0+RsAAH8DALT5GwAAfwMAtPkbAAB/AwC0+RsAAH+T99mtAxIAQACAYf2rKoIRbKFHthQDAPwGAPiC3wAA+E0fAOA3AAB+0wcA+A0AgN8AAG1+AwDgNwBAm98AAPgNANDmNwAAfgMAtPkNAIDfAABtfgMA4DcAQJvfAAD4DQDQ5jcAAH4DALT5DQCA3wAAbX4DAPDsN/d/M9ceh707yGUggOIwfiwNhCOohS2OoIg9woqVSxCJhRMokZYFJexZlap0nMBSV7OpN+Ylv3++CzT54n0WM/NZNRgVtZU/vxjEIAYxzPTN2lFvar2Diuk8v3/Xe6uHxCBGXcRA96UiMUzf6Bs4YyAG9I3pG30DZwzEqB59Y6ZvZja7c1uIotHKesaIUQYxEC/GRH1jpm+OL17Pb94RRHP3PukZO754K/tpIAYCaO7d6xvTN/omAc4YiAF9Y/pG3+THGQMxoG9M3+ib/DhjIAb0jekbfZMXZwzEIIa+MX2jb+CMgRjQN6Zv9E1WnDEQA/omwfSNvjm77p+0JwWLO79/rS57/Y9hUc6oqOsZixeDGMTA4lj4th8DxDB9o2+Wxv6NyIpX2QacseYuMYhBDO84Nn2jb+CMgRjQN9mnb/QNnDEQA/omwfSNvpne6M5uIYpGK+sZKxcDxEAEvlFl+mbyvsn/jJVHaSLPmEdpiEEMz1iZvtE3cMZADOib/NM3+gbOGIgBfZN/+kbfwBkDMYihb0zf6Bs4YyAG9E3+6Rt9A2cMxIC+yT99o2/gjIEY0DdJpm/0zdl1/7Q9KRj/FFG71x8Mi3JGRd3PGDGIQYw4xr9RdfUYIIbpG32T8h3HXmUbcMa8ypYYxPCOY9M3+gbOGIgBfWP6Rt/AGQMxoG+qn77RN41Wt9HqIIq0Z6xcDBADIeibv5q+0TfLBw8rh08IYmH7NukZW97vlf00EAMBzG/f6ZsE0zf6Bs4YiAF9Y/pG3+THGQMxoG9M3+ib/DhjIAb0jekbfZMfZwzEgL4xfaNv8uOMgRjE0Demb/QNnDEQA/rG9I2+yYAzBmIQQ9+YvtE3cMZADOgb0zf6JjHOGIgBfWP6Rt/kxxkDMaBvTN/oG2fMGQMx8O99M/waDYaomqJI0Df6Bs4YiJGVH/bOQWmSGAjAj3X3NGfbtm3btm0ba9u26776uypn60emurY6nUlnkEm+dHZ3NN/0lIah5T+8EP7/8Y3mm4FrjeeexJDVp70kf0cO3wnjZ8wWC/pfleP3o45QcdZ+x591e+ZRzB4sTt9j18OYFs03umFovunYovlG8822SwE5qXi22gvLD8veGyFoZtJOm7LEMlX8zD3gRP+DIhVN3GGTZO8VhmarRUW33qR+x+3BW2Hcjt9ulWS/1Qa5DldfJvQw9o+lz0rD6C2WoetNmm90w/jjIk83T7rmGy1di28031j8Bc4IYGBbdMSF5QfFEy1RZMVJz9/mG6lo+QmPsnBGrkhp9u/Fb4KJCm4XHXUpy7nHMVe4NGOvjt/8O5l/yPXalWs0W/JkhVOV3deCICxZ0/bYaVFE1P54pb5YGc//INCoG8YnMnidiSuvJJSsPDSnp+yy/aZbe6iIt6m7v/rkuiMlWtfe6yHNN0j3MY+7j9byt6TbmPbBN5pvxm2zMrDUG63LzxOc1z1jWmWN2mxZctTNGPPhUISF9Sw6KZRIqkqRY/ci6MM2mBTfzNrnmH/Ieeh2ePNF/6B1H83IB6wxbjzvO3InsvWiHyfKDhLhpP9q45wDDgqSO6RtKv+1imbsdaCP2GRWHsZutTIuUpYrwFxN2dHXnPaycLbjSkDxEM4pnsjWcEsRdKmOBS/04RvNqjhD4K6rQfZZc8bbd5Xhk0tB1GHBYRe5my/4B64x6mHsFxY0BazZipUG7VD0O4aU3A70ZK72x+stVRp4/scTet0wEEJ0n3en1XrzNxeFU/kafmbuc0jyuSNLX6SmLr1WvC2UG+xAL6f5pm0I0AuO//uGar75B3xz6mGU02ECTdeAUqk1wRfJYlzHQk+hdk7n61hgi3kHnShqU1Ec4ZtHloyywxAKF+YedGaLdZXFGLPkmFuygskKlrvGtGTJqAa+fF6RRHFM3gL6xvN+KX7iflRWrGSjs+MgsXNSAjFqe2BKswa3+Kj7E7d0hTILRAdlvug2kauBbpKVLtSx3DWkVG4kXYXG9DD248L3vbi4yNUXiZFtqArg7rkepJFAoppvOjff8CgxuQJr+CIdyReO3B/kG4K7JFd+EFqmugO3QoOkcxPRfNOJRfON5htGer5zw+lsuuAnydIAOl/H+S7fjNlq4ZsrAitPrFn1LRzhG0Ys4kAYS9UmyQtP42QN22DOlepk8R1eYIKVIMiBSZUEToRvpODZxzEpyD4fV5SRb+F8wjd8yvrafVP6+L0ISw8k6TTJWnrMTaXnn8QXHnERvynXmmRhnLDdiqtcqSE0Jt/C+YRviCGJ2/vGNG490TJJsEYOWPgG+uE7QJwgE1CSxKX0MPaDQtuT9cGLz+KfZEE5onzON8QFuV/cYmugSDxPWFxu9M3XSWm6IjATFmFrcSUFXzpz6LSo/8s3mm/oEMSy+pRX7rJqGMR9Dd48NwvokYmTisXynTmzv+CPcx9ze2Qd82O+gZm47zz1JN+48+iyaAXcoBMeVq1l1SnPlot+W7DI8jdxRGI868/6TL537N2FjiRZrgbgx7r4EBfFWi0zMzMzMzMz7zAzz9TwTDMzo/ZT/ZKVHVGdk6rOKWqHrFbkCew6Dvs3HPuoSBY3T9yxIXzifBJAqJT4IgEa3zStdXzT+IbW93+h9YWNktTip3ScZ8Q30/NvygkscOPn/U8fSSQidyOAQoSXESKm8M3f77rgQl6li+XfFL4pWy3YAhFM7lk60n/t/T9+wksy4K64Z58zf3H9ziXzbwb4hgy1T57mkOBUkFNC+ME3vF+18MpPmQStxmYkKRf+YtJuEnAc0xjfSDMvb1o2bBNlE4aBROvaYFlA1j47vvJ7wvDH2n+zZvAN66IMEhSfqPkKRrH96OrtiTHBIjmEJTKdvugBvhHptlNbeXEe3HTEvjhycUuEVW0Lm49O/PItH8yduRLj7fM+4SJ2ID9Q45umNY1vGt+IByUmxWRBIixxopD7l4JvJKbkJ6DgJ9Bgn7ywP968W+GbuhVDKkhrFnxzmleIJvv2Errqbd95NP+pbM4rf9J0fMMujCxL3KQWpdeireAb4bMc+o6/VXzsrcZmI3Od8KX9WfANnsyMcO/x4UmEl5rq57X375+Ob+RIhW/veeKwzHEw96FoslXFN41vfN2cNHGLmldenIQs/ZRvl9Tvj/zsSfMoKwuKjfeO7RSnHSGTxEHzO4lv2DP+JU8CjOwnBXCMb2K94KU7Hj2Un7c+cvBt3300lhhmc2fOpLqVfbYTeRjDpvFN09rFN41vfKvRAePtd4tfr4DOpBPF106azIJvmFBjfBOzTAiJPJ0kAqXwDaW1DHwjyFWh9wE9svVokqYBEWYcG3FGfGM/IScIqY6KpJSTKfiGvmx8szwy1/5i4kQz4ptonXBjGdZB5yz7KfhG1pcdTFIuPcrS5K4RfNP5xeaX1MrR2xehBgDKqRPatWifWCIQEfStv21llaGfX78zTjgAZZb8mzG+sVLSflBUYs3JnyvbRsGCcCBuqfeRwGfkCdc2vmlas/im8c03/ro1cp9FSy6EGMexqukM0iEaKJ89W8fPSXwTd7HAtpPpjOn4Jo/buvdkzCmXSIv54VXbaZ3p+Gb8oAG+iUXlX+H5LComH7/8x81Ojos7SzP8JJUK35QQzGpk/8cBvqFK7RO4WTYF6BxZBFJMzMY3l04cYwk2ma9Z8A3DPSlZddS8hCGxxBjfBMHAN1RjhT+K+H4a36wuvvnC7zfFkebrrjSax7cfNzLewBruk3z1/LUEVC21k16zDHwziED5yck3YB4+pPiTxhuvcOObtUuNbxrfJN4sb+4CrfO1BXZMvBoC5DGCoYTog5g1hW/iz4h9I0N5Or6hjVKCAkqQ95cl3wePnkkG6HR8M35Q4ZsAGuN5T+7uvKT0Q4eEJGJs+QukzM8kvrni7n11W9J2gG9gF5I0t+VAym1JZLK48c1cyOxEvSX9qwiQVZtggG+ik3BOnSatKsk0NB+gXH9/BNZkZu3kNLY+h2WpWDPb+GbV828AiKS2SBXP0TsfO+SnyHidn1lLcCoSIxYOM8lnOx3fiHlNwTeFht9XbDbCN/KRk6nDOsohOzHJGt+sUWp80/iG65XnBvHNDuYGMjBO99sn+yKAWEtuQrs4VAY3nwd55JDBBI827T5hv9omsJ/8TH5x4gJkivMTcSdxqJ+y25xJhNXKYT/pv4s9iCaz7z9bEioSLWDlynv2RQZZfgXcZNzjrKlxVWLnEbX+s7ltolRe1b7Xrtvm8tz2qnv3lbQF+OpPkcVWfnZ+8eyUlBqwIwmbcoct2ud1e+DpI9EoUjgL36RQUyAmeMqXprJAIHLSoUxZLHs7/JGJSwbfwKPuEGxE/4E7Odr4Zi3kF1sKEMMp0AQDxGf8yV89RVyYZW4VEwfNkFRhhnza0vyn+G/ifL3jsUNsFUbIsvENNBObzbdPZpIn8r28nj9a45umxjfrvr8m9UC1yOmbckJ2ZiTGulzgKWssl/0gEpPGSpRqktTRIZsu5bZvzm1bjc2bIJhBgaKAaXBnvH6KWR/nYm3WuGGkeAdT6SAbrJnF/wHQlGVQdbYTp85xIq4RfNPrp6CQLIUDXLjiZMsN+CEZb44G0Zo7PMNvB85eDN8ENmWz2nzZ+CalR2Pj1cZ3i3Ma36wzanzT+Kap1dgKE7wrk90aFq4yYUcZNuXVg0pldNZ6/igbakkyDXUl49i1k5WmVT3mCFTnxuJzC15cWw2tGPEUp0co1yTAOji6MtSMEZiSRN2aO0AnIylOA+Lw4nDQ8siCPgkcFz+Ip5t942ANxnBVipiLcNlPWDPk/yUN2QLyrGDAY06IL0fNcfuecjE2+90tu40kJy++Q+lfAqk8fzIU88TGN02NbxrfNL5pfNPUjNHU+Gb1qfFN45umVmNNzRjNGI1vmhrfNL5pajXW1IzR1PimqfFN45sNTK3GmpoxmhrfyLVK+Y/1RI1vGt80tRprasZoanyjML0l9AOSrK2UhmVuVv7rZtoT2vim8c16olZjTc0YTY1vVCca60dFqqxlSzUHtTfn9azqugNCqUq/7ie08U3jGx5O3blT2nhM1nDqtKfH0Kq8W6uxpmaMpsY3Ssynw08o9cbUYtXVJ/1t5kipmKVQ57qf0MY3jW9UDk1NtueODqVqewrgrsq7tRprasZoanyjp8r40M8XCxQpTJVePfZBn+9fuY0DRqmqnKNquZJUah0pJZ+KRNXOmeNHPxw1q1S0Ur06TQDd5PipcynPmJtXrXy9AvVMVfVer8P000irH6dx9ih59cjWY7SJwdT8dL7nalzo3RrfNL5ZHfrmX7fycj6w6Yj9xjfrVI0JxnuWNl7K1CrdlkYclxU1Y7DmVecr0ibFSKqHz5304/SIj69S5kfjm7GjxXSkv7J/04AlhaRTVjwVouMHyrV67PgpwOVQdiAYZL+2urkK14NxaCmslXLY9Vzyx+CvbtiZn/VcIYLGN41vhhSgrSroW7796MWOatKUWuzVLeG9cWDO/Ag1+IPHQ2ksxRSQn78kvvE4j3CO/THxl3ol96yb6wPAMhg8otXYHDkkbbxqk3X46d88XU1Yb3vkYFoqbmBqxvglpTLatFzwqc5yuarT+KQayE+nmx464OaCI6sy0Z1/QzIviW+gGaxlxn3+KlBL0NFKRX+MzK/mqU5QfNxP+87/0E+ffO5i7WneFw3ptCEj9tPbmJPGvirYPDERKc5563ce1YDZPY3oUBZ8E3iE/TwXpPYgP/VvSTFrT9dB2YiuQas5oY1vPv+7p03SmP57NfBN2FqN/DQvtGmuCTdM9rfDcFg8ncADSlwVwJ6+4mHltIPRSI8izOVYPx8D2JFWMtWkEzDitDSSptBcoJP4xgdw88JBzFqPqGL/9o1874pt+Tx4EQAa5kK6Ntq0sJHqvx7VmHakSzLGGsE3Xi9t2NnTcDDX9PmJxvWxpbQtbHyzsRkj+IYPT7N9yAMD5EsUeo51NJ1iuwsoNL5Zv/iGXqgLQVUjum38/LqdIR0wjFAHpUF2HThFPrjDcy+efxMEE8dPCB7Kneuo9i91VKsNI2JV9VxNXYKHVnNCG99Mp1XBN+lluLD5aBx9OuvGVYM7g6mN4x4xUW6S8KURbYacmWsFUB1KQ7tq3K3Rt5+JSU3iG00ut+09mU7RC1uOpqle4RsOSUDKz6d2HudvzL4vJB9b8I1X8tDEdKN3vcmfbtvjA7DvxYCedafGptOq4xuYMv3by39W+syMm4j85b1hmfKQ7hcWA/ba/Xz2t4lixDP3kNP0D8IztNfvbt7FHRjU6yfJRVqljVGR2f/m37Y6RG66nLXnDmzBepAIveUeWg7pIV9idO7UjBF8I+nBflkjlJBB8qEGrRUQuvrrHXvoG42fMsiOpw7zOXthSwoybpGOyIjJtSBZJscA37Cv3M3kumGxVq1a0MPVhd7qIxeuXWCk+e8Lebj8NROtpmJ3/erGXa6iQb18Bmenjk8Ry4M5Gm9x0b3mawu4oizVzbtPvOEbj4xvW51TuW3qzua6GqYG3wBJdRQHLvlck37B+ze+aXzDnMp3DtZs33fSCHkxib6Np2ee8cRB09SQ1oGKjGiA5yfz3b5UrxyKg5FiG+AbTGyfazG+RJryzscOFb5x/qKBeMJ4HioKG9YPvknH6bTNc1RMxAj4lZdMI+JWY3MnCiNy6saHDsRjFyovdG3YIGCFL3By3NyBJtFz8RSK3+eQACUOCT7O5lHwcem/sGW2vYdPcyPZyWtQchh48kGcfwDuyuCbxjfVIl6cgliANSWN1lzEjIGAx06CeHGko9a8Z7sO/0zoTiYQZqgNhC1UnRzV2oDsQFvNxsOr5SEuYERH5ki5e8NFM1LjmwGG4HExwoaZNEXG5QHx52PbjhXn1G1rzSypUveplE0jjNjCN8yeOnrF3cM3yXOH1Pim8Q0RMzDTQYrCN4JHg/O5pifzDQM47Mtvj3OFOf61RRBDgUXTFL6pPDK2Xd1ECLbwjfGIJNeGjiziJAZc4ZvK84h6i4f8zNnzXKPse9HcVmPPBhF/KYYRv3El37DRzaxBCx/IICyR+hZhAFeZlARAAdnCN4lmMtm9v4g7XOtkQo1bSFTebDrBuPNFIe0TiB6EP4OKCt8E/mpGjf08Ghf5KTV1xfBN4xuYJvMF6Nin83yn4pgC01k4CZ5mFYw6cjHK8ck3/rIlAsSEcqWYd0IjWAeYLnyTxzmhYFMC0BbjML2wBCYhMIN1DDok/zSBLdbONfftxz9erKJj4Dinr7yNvBumbXyzbHxj3MSbNRl4EIaJY7f49vlpuM385X3jkmMYq/RIxZtQbBKz48M39ZkaXES5iAaYoNgwXmmMbzL7iYq63HPNJqubsc0WWml80/jmRZ+7/z/feOt0+tfXrxq+iXUVInSMGC98Q+XUUQEII8TQgM8qdUZANIzI6qrY+QDfSKofODnJwdwkRyN0fEuTRDgWvvn87zaNi+u4JMo3vp/1oMYwxn3PzBhrBt8gkIJIOhG7uSTOKP+GmPOT1OOgzsibvvUI4Gt+5G8F39h32iCjHOcDN2JM8VdD3lwCmVZMUrfKiJeRmBXxCmyJdyCAKZGyKf+LZoz54htek5Onzxn/4E+eKD7xyfO50m0mC1FCF8u/McW0Izlj+iJzAn2Cb+QjD8pM8NNU3azP/XaTwKV4pcEEs4wLakeIuWGeGxIrT5KH8VAi7MtOSm18g0SfB4rV3cBc8WgG5+CQrztXER01aPqMECyDkx942n0eWBLfxBIer7diTq80vml8M6OPZ7XwjYhS/LqYCQSOCBjjm7BUYErlUsQgK4lDISULldYh8iRYjPENk8v+zgOnrDcuJ2fhm8SbWADFqULysuWzP8Y3yb0A+RMTicASjF8XamxGU36tlTmR+BL/cHx1Y3xjRiohvUj0PbIs+IbXbfKoOT1BR164sdp5ZRLNnDyZAyD4JtHM8Ya7prx/M8Z88Q18YNAW61m0ejwjwOuS+ObTozCTTVZN8M0gJwPzJLvZvm88EfDJTWKNQ6z5cEhANsWZVK04escbCXOZ4xtVamCXyogawBeHkkTFsrVf9nCREUrEB86uIN4DShBXOnuDHODg58uJxzdEvHPVAK8wa24e9SFfx32YN9+/Ylvdhw7y3MCggdCAaZwPuVIcS9QpaHzT+MYGaMvPldIbJ2HiAmN8w1ymhOJfcT6uipKL+zdog0My90wVpjG+kYRBXWVZqahT4gvBN0lXjGyCtCzs+sfde70Py58yG+OboP7oM0EQ4Vsnn09co9XYXIkIww/1lweIM4l8LcE3yZyoqGVNaIkz2iUR9+CbgiBhm0QhWZB4TOpxMtDhG5g1uR3ByuEQsxx84+l29hw6VRZ56APMzRXBN41vcIKEp+TABXbEwgEaxB1orDG+IWfqWtGimOZAkjSsgODCN7USp/RcMnLs466k43iK6Rb4CL6p/HfPYo/l/swwgwROfDwDbsFaGxPfNDW+aXzD+1LrqzldPD1Hx/gG0SgRGVVbqc4P/frGXTkk+D3GN1XQjwSsTNJglFKHLozwKgss/uol8Y0oL3suZ0YR0rWtxuZOMcpBT8lS1BLl4U9dYSM6I8mAwAdrjLmMkaKcIBt2lcUvUXsUzxjfCDRk+mJn0zfODL6J4yfOaowB04Qtg28YiKx/7+Evk1t95U9bmJKpivFsUOObhP+wASjDBE8wCDME6SbAXfHBONiCbyqcDcv6bAFZwaPIHSHmIFcgeIBvSBvznrhkUq/wkp/EQoWW3EcuTvANloCSMQmmiolfFeHCwwwq52d1DwGIx/Bn45uNSY1vGt8QScSE7/wrf9ocU6a8NaSY6Pi4th5PI38g2VExpiIjrhqkVriJwQijcl1aPEw+CkAw3x2NhyZE4rCrHCW4J1+JY8aZJNcg/M/il1IKRWX9YauxuROFFO0SSFoB7xxNua3KBq0oZJRZ4giOAx8OjfFNQEwQErdfQv6Fb7h8osxqPU5+hmHwYfn/YqDTtRxIjW9WrL4fLFtRJN6UJFqxmmQEx9MWfBPkWtVmIRIjvD7x6Jj3MNgA37iD2wHW7poVT5FIkV0CHzL2Yg4F38Au/HmpW+G2wdncwOHh4CeHZOlhpFRVee5GzS9uanzT+CYemqZWY9NJqIjGSnKx4JTYYuzgkDRPy2Son5jXiaZTP05OzkSF7TlXKJ6spZpErpxzVBh9Jh8LOccyinLpebSoqCi+JNYAoKr66M/iQYFQENKzV9G/GcMsm5ci2RLcpVXHvOY9QWrJcEwgCMaZkE2l08m/cejWRw7GiJJsl3lXEUDdFCdnRafYk32LvXmDAlt5ZSpXw0PFxw2CUwKj3MZODiCWw4673DBQRpSKSVZX6ZTkULyJ1iXUocY3TY1vFhrfNL7p/OLZT1bOkQq5lJM9Tj+/6tRBw0UdjittzPCgZowVopd84cHnzo9JTG6yTce+5Itd6Olx9I5JzNTrdf3ijUyNbxrf8DbLYM9qo6ZWY2uTZN4kniUUhRKMsGR0fTFGM0arw8Y3jW8a36TjzK4x/fcI31xW1GpMmZClGGODqzE5VdU6uJb7LX/NSzNGU+Ob1aLGN41vplPjm8tWjU2hja3G5JtbicPdKNtD+Vo/mzGaMS5KjW+aGt80vmlqNdbUjNHU+Eaukjxuq/3jGW1qfNP4Zt1Tq7GmZoymxjepyWnLosXlkfpGCg1rEtcT2vhm2HHmP95463TSo6rxzeWmxl742RkYo9XYJVAzRlPjG0vYNPFWtehSGnFDNmmj2xPa+Gb5Pp71j29ajc3flG81tjxqxmhqfCOnzSo8ZB1++myktqpa8woR6ZScAg0hGEgxVcWK5MOlF0q6g6lEn+49rlWWM+OaA6pv7mRdrqpzzvRHVCcW9ZbUKNKopwrG1gsoS+uQCulKSja+aXzT1GpsmUTQqCU99zpJqh67rdrT64IlmjEoFXUXdUx8bouIDYdvTG7UokSc9GBPcedSlxqhpFEGRFIFo7PBLsYHixx5ceLRSTXF6p+Df4xPf0SqnFcPn2x4r6p97j18evKekFPjm8Y3Ta3GlkNpEK216nxvq5q+27L5Zr+k+gYDRrH2VoyaMdJbyva+9NNdFumvYu5or8Y3ax/fACbX3r+fZyU9j1N0KkEo1caxgb4csI72qCCvDjkwjUOa4xpRs8DJKkrDIt/461aghK/FDdWb1qxj6iPSge5sKkHw/Shs7So4iRdHOcf0GvvbnXvxkvurqA7iONT4pvHNuqdWY41vFPh3YRo+rBg1YwgE6HapVyV/3rJvouqgudNtqvHN2sc31y+iDQTHVOP39ITHCfDuq7+68Iz5N5qnfu63m1wFD6UXslas0x/x/cX76EknalZtPdwnzVhyCLgJaUAWH1Ljm8Y3y6TGN41v2En2dbXUXVUz5zoqYM/eis6rHqtGWFqT0pPJ7sLqHzTGN853FXLDasuqzSppaHDyWZsWm3GmHayResRHf/5kvdvcqRlDWwN/8Oi/9M3w0+Arv/yQ1TeijaWNQm/77qMwqH5hxQmu/eNtu83ddQ/sd22lsrpQGoe5Y4VnQmd8RKIVLnz/jx/PhYMXcOi9P3rcHQZdHbyVd3NC45sp+AaCyVFflp8azOUb1EM3J8eRY+4uhm++9uct1Ry3Nv7X6Y/gsLGPVcbvqb2dQ+Pt5oWDjW8a3yyTGt80vuFAZmzZsaVBdLrH0x85WufrK17dv5GdYyfP1oWOBq8UvomRl/i9polE7XMXm4eUZLTz88Ww/ft//ERGaqOlktuYLuXZ7nz8UHTnHKkZQyHp9G/PzyRhTE6TTpkvXmQJ/+qFmcF0soRTjR+ZmKN4cTJ3mCcj6RCe1NTpj4g/SSprxsOBeQp6zdcW0pUzm/u8K/GLRXb1iIznhsCT8TE1vuF0GYOPSp6TSaN5avJmfL/BN/n6qgdZ+rdrqwKGQqj5y8M30x/BGWNf3Gr8niJfDumcaK4nid3V+KbxzTKp8U3jG5vGlvAH1SUcXr7l6fjmC7/flGuJQmYfUWj/DhbeBL4hHDUAj9gKLhF09/PA0TNgjVUS4FFE4du+86gXyE14cexDPM5Pw2qeaoH83QdPeRmLMlaAMRrfJKaAJfCGTY6FQz++Zrt9c2oeb3roAG4JlJFManbCLebOUYNp6P2Pu/fqomowR5/7TI/gL0wbeUyCrzwrOFiHcO4ZvBF28ggPDWxKT00d5mPuOyTMAXvNXvGl8U1sDF0LY1eYpmBT8SM/NXu3L4LpbiZCc/jEteN1Azrtz4Jv4JXMJrdccBKRcsXd+yzFirRhzBAFeQERT7k4ImWNbzYOvvn/D9/7nE/d/yxRE+ZufDPCN0JCW2otKF0jre81X12Yjm+ieGAU+wlvWQtK9hW+cXLOueeJwwlk+Jeh7+ZZTBF5l2TDcf5NZFwQjycmgOXfdQB8/8neXaDqkUQBFN7qLGFWMOgozjgOQcbd3d3d3d1d8pGTFE2T18S1isujvR9U0fdc/U8JvkEnsUg2N5gYSTavf/xLE41fN/Jv3C6kSD/Rf/RiiaXetf2KCNgFQKegiTVGy7pS4DLHzAhL8TU6IsvVNg1qW2Gzji/iX/46eOAy+ebGx7/M1Hnns1+/+O5P27/98Y9Qch+KLB/j9Y9+MSmwMqeskFPbB8I3JrFviLcAYpFx24ycSgoe3eNFxsRQFePmQOLMO3X4ZvLNlGMmk2/iGz6S5UG2r4NAZ4NvfDT72tFwO+UXjyGpsONCCXZXow/cim9WXuuMRW/3X02+OTZ843fB2o0qaDXbsIZbpXCksCOmEcrciW80CGDxO5im9HwbUjq2X/H469/brth4JVxB+10/tz39tbMat0Dn3AP0rnzV7pr9/ZAEwXwRoW3ZS7bz2dj1S/6lYV336JcskOYX5Yx6utKE/dQ//wpnql0OGOVU4cjNT37VY/2E3PYrMnLMV45bb3G8ZKlY1qcDB3dKIDJDaPLN5Jspk28OkW+YXxt8szz75ie/rvhGisMG3/QoVlr2mdB+NpkEw6VILdyJb1KTesP7tvbV42qafHMM+EZL/nYZ4gM+iBkHndQSxVbPt4IUK77hLcA0xRZlaehxAjvim+1XxDdlZa3Eo/LfrNZPqrQa9bue+yavYQGvyTeHIHw2Yeu2NMuHnA+nmBzr7HDqtU4drky+mXwz+WbGp4axq6aJ1mIGn3n5G0qinOKXLgQu6J5KKz6V9SYcMHTkHc987Zr4pigGg+zlD37Oj801LYEU63jEsAu9RQ/T8ieIkg0X12+wGIRyGNpxeAiKdk2+OV58Q/OBG+uh4FTIUu9aycK2Zcw0d6jULsPdbo1PDpBvJFrZ5hyyWnqUuAnktaHprVMgeIQpL775IyA+vIPuHZnv4fXkmymTb44z3/QbVVOOsTy1b3FPvgExz73zE+UUwbChcxeX3st3Ipk0v/HgG36UdrmRBc65teOYZX5xVJRi6y6umoJNzorc//jr38t6UQdz8PAK8IfL6UFaJWrwaacU3TX55njxjVzgqOXWp74u90UdTYkdWqHkYDN35hG5ihYRThRPEOxw9kD4BgmVz/H1j38+/Mp3Gqv0v8nDQDzyQgIXDiGrwvKwYgU4wJZrSj32v7mrhJ7JN1Mm32zwzRxznOJ8Q9lQFcsa7EL1RAVKdFJZUyotUiG77vusuokG5ce+X/FNln3UIntDLAPNRFG1YBd0GL5oF5QlauCbDPGSEBuvffQL/Tf55njxDWqpcngkTl1084ejiU7Lw7DhCLIpKbXCOu1uD4RvylUfMaYKqYaThk8xVGrg44JTAVaQ3YA4ltPpyDdTJt9Mvplj8k2N3dBMyTHKHyrOXIpghP4WVBF3jlj7qr+f0JIaKKqFeb1MaVw1ebM7biz07pmCDiprVq/zFvGOpWby74ma6Qo/kg0n3xyD/n4mYtmesRhiolkf8L3gmvcLIQ2JUE3fuFfelbUhw/SMxWMP5BWutyBNugDluGz5D1ir51z53t4VtagVslAh11m7Fq3/Tna+2c3eXSQHEUVhGN0V7u7uLhvA3d1dh4xxmDKNuycT3IesgBEaz8vrukmdU/8KqFvVH5B0m77RN+gb0zfm+wymb/QN+sb0jemb2NM3+gZ9Y/rG9I3pG32DvjF9Y/om9vSNvkHfmL4xfWP6Rt+gb0zfmL6JPX2jb9A3pm9M35i+0TfoG9M3pm9iT9/oG/SN6RvTN6Zv9A36xvRNsOmbM/UbLjVZpukbfYPHmL4pnsPQN1bU9E186BvTN6ZvTN/oG/SN6RvTN/pG30SAvjlb72Gjb4blYeibLVcbx+yssIJX1aZvAkDf5J912TcOwxL6Jj70TXzoG9M3pm/QN/oGfWP6xvQN+gaKtfVq4+idFVbwunyMOQyr1Dch6Rt9AwDoGwAAfRMfAKBvAAD0TXwAgL4BANA3AEBs+gYAQN8AALHpGwAAfQMAxKZvAAD0DQAQm74BANA3AEBs+gYAQN8AALHpGwAAfQMAxKZvAAD0DQAQm74BANA3AEBs+gYAQN8AALHpGwAAfQMAxKZvAAD0DQAQm74BANA3AEBs+gYAQN8AALHpGwAAfQMAxKZvAAD0DQAQmb4BANA3sP1+y7xjNVbwaju+Owzr6jC+/YB0+gY2XW4Yub3cCl55yzeHYZ1X0apvuoC+AY8xfeMw9A3oGxLoG9M3caZvQN90DX1z4dGbB68+WaYtOFHXRd84DIdxvE7foG/0TUb65tbL909Lv1mmLT7ZVd84DIdxSt+QSt+QQN+YvjF9g77RN+gb0zemb0igb8BjTN84DH0D+gY8xvSNw9A36Bt9g74xfRNz+gb0DXiM6RuHoW/QN/oGfbPuYuO0g9WWuDE7K37/Uc88VD3Qb1Q5DIehgdA3JNA3XfzDQ4R5x7HD8I5j0DchoG9M35i+Qd/oGzzGTN+YvkHfkJ++8SmiuN+ochi+UQX6hgT6xq/ShP8dK4fhd6xA35CBvjF9Y/oGfaNv0Demb0zfdA19Ax5j+sZh6BvQN+Shb0zfmL5B3+gb9I3pG9M36Bt9g8eYvnEY+gb0Dbnpm/WXGqcfrLLE/f0polmHquYfq+l5XXyjymE4DN+oQt+QQN+EeZWtdxw7DPOOY/RN8dA3pm9M36Bv9A36xvSN6Rv0TSTomyWn6tecb7RMm7i3snPfOAybsKdK36BvyEjfrDjTsPFyk2XapK76xmHYxL36Bn0TH/rG9I3pG/QNQ4K+MX1j+gZ9o2/QN6ZvTN+gb2JD35i+MX2DvtE36BvTN6Zv0DexoW9M35i+Qd/oG/SN6RvTN+ib2NA3pm9M36Bv9A36xvSN6Rv0TWzoG9M3pm/QN/oGfWP6xvQN+iY+9I3pG9M36Bt9g74xfRN/m/QN+kbfoG8GfTt/snMOTJIsQQD+q8+2dbZt27Zt341t27N8X1xe1E308qzMGFRllmKrJ+rrzOxd5T52OxvPt9rdveV69x1vedrOgJj+XOuxhavXXaWXPukdX5mRf1zhVL55PRfGulNx/uCW16EbmTcON1vOJXp6+7gClW9emqgo3yjfqCjfLD4UbrZ7+wfIgWtprOO3+CjnK10vfd5Gq4eRf1/jVr55PRfG0VvZ/gHyMFgdvtdXix1CQh/PtVF9FS9bqMpKkoWW8o2K8o3yjcrLEeWbiVv93T19/Jo4Y6bvCny/zPnvBu/pe3mUrPb94xvlG0e4xnTmNWV7YPhe3y110Av5ZN6r4pv/Nnov2gq4DJVvVJRvlG9UXo4o33jjdX5KhJ8sCRC/rRbsGIRvflnpYs3XnMXzDwsLD4Y/mvtEP2GLb+fF1Lx9IdNy6/kEmm+WOKRKKIqOzHXkZpZypaF88wb45sKjgkXPBrFNvIhFimbNiRhVHHtTtvtx49EL2XUphdJs95y9oXMP8tecJdb50wqXKL9cZKcNgbDvljr3X2OvS1jNBcALiDn7IH/TXSIaNXaTV5STtvnpxYCmGZDNRUL3U/dyndxDG1r+vd4zd1/okr3IAtAo36go3yjfqCjfWCGG31FfX/8vq1xDtLHyDfjS7Oq1BDg+W2DDtP1CkuoVe9H0lZZ/QDCMs9lXbfaYXsVqd6XR/TbwjfINr8v2IqZAqoGTBmKgTEIMW88aKHcKDUBh3C2dylqzh/1lnJ9XuqiSwpUptY2VvC7x/aw+HjNKmWLBgTD6PVfSVMFlWcymswlMnS1BIuFvFk/Vl6h3WlcciyrfqCjfKN+oPBXlm1m7g/yOClVhl5H5huiVZOrc8pQBnQ2n48Ioh29khucbDqd4rkU5kmkuPRxZcTRKsgVV5Zs3nn/D/mL6apE9W25TJd0YNBFvDfp/1ntWn4hJSzaOdbKVax5rEvnW2E2+H5c7D1zPUA1nmoZvJJmG9pvOJCT6uWB/GGsg2aAMvny92MHVcvFRAT+NhW9YD8BNHzw3kNbuyyly3rGuOhY1fIMV9w9XILE2qqF0U/nm+UVF+UZFRfmGk0nunk0wa/aeIBocM8PzDZEIChxUhC3EhMeIe/S3hG+Ub3iRiNPb1ydKZ7RGHGqo/BvBFEYzSTwSasQdCN9Yhr3tKVPl2qBMvEkYF0LikT1pYOGbM/fzlIk9dT5dhcYTrxu+eRComMQdqlxmyjcqyjfKNyqDiManOGxGwzcn7uQoH76ZMVYiU2gQuSO38A1AI3xDGOIxGDU6R8YBoHzzlsSn5EUyDQ0QcasMxTd1EsMHk8nb/MI3cJJ52ApqQbPncooyaTrejtCSI1Ijl8vCN4Q7Ka86HjMLEDgu1boN3/CXEZNMBygr36go3yjfDCIqml9801225BcTGvhiod3CN5xSlG+4S6bZX+s8aIhBcJ6RTSxDiemH5U6qwjfTdgTkiDJn5OcL7A1CXW8N3yjf/LHW3ZLMKnGfDM03EsBaeCAMH3e+Pp1vswCHhW9M7jAuGbw46G3hqoVvyFs3BCMvJkITy7UM3xC0Ur4Zlago36io6PPhj0LVmbuCQAk+/5N3czh1QJ8vF9o7+WbMRq/cnZOTAdBwurhjNTTEIOT/6EiqKSclz9EQjDB8A800Wj2SKIoJZ89VR/Htyb/R58PZTSHde/4KlCP4Ir2gFolbLTkUmbTVz1aeupuTcb5d4hD/CslVEAwhrWH4ho4Hr2fINeYpLRMbJc3cwjdk7VCGfQl9CgylCm009P2w+Eblf/bOQkdyHAjD73Xio4c4ZmZmZmZmZmZmXN4dZuZp7uHRfepfsqLOTpSh3r7uv2RJjh3HUWzJX6rKLvON+cZivtlkevSTg5/vxyk4rFhV+6fw61St1jxtlpF5C2oBblRIJdjEKhX2T73wzXCooiVrEm4T5ps6Od+PTdfkM8UlBvG1ipcVnuO4k6shWpZwPx5UYI1UOAwio6958FXl9OEEvmEudQyXNHPAGrUClar4httgrKo5hvIGLDbfWMw35huL+WbdjjiAC6sIoMPas6Mrx+/1WvEZ2MnSM1aGXXBMZp8wa0yo4v8eBwtUNVgf+P9mxQoRGKTgoSFd0BEH56DLqYf4DI7PwPk0e3ry5NmRJML49cAsl2/+NBZMjex1YpsSITXEGSAO+5um84uMZt94GXjVndAPDcVMSjyEkqe+GCJPW6YZbEQrNlgBPbJ5URvtjkJ8uYam5riNm2nC9q7o0578fCjYztRd0/CNxXxjvrGYb5zMN07mG4v5pv7FYr5xMt84mW8s5hvzjcV842S+cTLfWMw39S0W842T+cbJfGMx35hvLOYbJ/ONk/nGYr6pb7GYb5zMN07mG4v5xnxjMd84mW+czDcW802DiMV842S+cTLfWMw3jSUW881L345wHG1VIupCzZYKDn/jPECCcSoGdZ0k8w1nExNBk2OpFfzSyXxjMd/8f8RivlH4w5johNntSBxADD+9/N1IKCGvTolMZL6pn4nx3FfDGheOmd7wQ25/q4fhVnAo802txWK+Md9YzDd7e/M/7p0JiWVp+yJ00t10bjGUEI6K+Aycmk9oRvNN/UwMImkQY4GABoS63PBDeCvFSTXfWMw35htLU/DNEVf/e/R1O+LpsEv/PiR8c/8H/XGz0Y2vdSvaJUnBmSk545EW8gT9Jk+EIFZBfvQJuok5I9ocY9Odb/c+//UwEZ4VeVGBq579alihGWnOAyk87eED5Ak2Hm2OgYzAVU9/OUSTUHjWY63cSYhNQg4R/IhHVdnRLnyq7ekvhuiUrrGq1J5vGmligJt87aBUu+alTi4pvOrFTr4w3z/KPYwI8eQJWcVwE1UqDCKszHD/25mj7SXPtIdxJKAYOkJmHdGsKEnThXpBFURDmvOQaBXDzQtQ9fDHA1WtmMm8FVXcwBPMN5YtFvONxGK+SZHqgm+gFul1QslUboESFDDkUbcoZvgioZ0rQvhMwZDoB5UMhRJigxMBkfLfWzOhMGhxWMzIE2VTbRW+kZIQP5w1UqodXpKStsFi/0RZtfT97q/javjk54N6GUnveJmFrfZ80zATA70an5FPqksiXHKJmxQjIhmZmWewNGRoelSoJvAE5QXiw0dEWhyYVYHiJQTFhGOSu1Dtza93M2FCQ+LJM+KqYgpxZ6jKl5fverdXVUR+jYa7pwswy3xjMd+YbyzNwjcdw6V/OrJK3++ZSck3SNtQkdDQxcpK9mtLRvoYLVTc/+2u6Z1dOfJq+NzXw7pkcYJaCEYd5xt65JIHshzyQCHLF/9OBb5B8uUl0Ip3FjxJP5QrLXHJ92FxJUg1K+4tb3RvLd+Yb5DdPXmGZmFpRV+bKhCTfNdIiZDvjBRD+clfk5R/tWOKgRCmMNzE/T7p/v3MLgb3nV/HH/qo/4/WjHAE7UtyFwwxg84lweR5bOtAUUOP+hCF4kRmgUvCmPMCTDlmDF2IbsXZMBMfDTIenZmHeMw3FvON+cbSLHwTlen8Ykq+2d9fYMXSTzmXrCXkwQvyM/lFWRBUe9Pr3Wv53wS+kUVDa+qVL3Sq9p73+ihhqeNp8I00OjJsYWvIFpco0c+6+OajPyfOe6IVfc92+N+Yb37aN6vL93+f4HJndy7wDUo1VCzYJfn4yf43wAp2KG5GN5OpjCAKv+Qu4CHp5PRwuaVf/WInGaCZKoiHpykJm9gYGPgGBMexnbYn2f9my8VivrFY+kZmOwdnktOx9+w5JHzDXy/OE0pPfj6Ukm9e/X40Ti2f/T1J/rs9MZfSFHyDzw35A/2FaBN4S/2Kb8YzC6Gqe7RMySMfD5B/5suh5ZVVGa1Q3uDAcVLN+aYBJkYy3zwgW1KFYmUrlIOLzENSvAEoFzzVthbf4DoT7FYrq6saMrZoJXfBCQLkZeWsSiiEqIrLlzumqOVp0gMhI9Pzr/84muyYZb6xmG8sltpvpamp/40cgQNqwAr4MVTxDffEqQUNCvlf9s9ugG9AKxnLVKV+pZjhj198MzA5F+GbUuAbEloffvpZEeXAwWJWY75pgImRzDc4bsfhg4RLL57dWIjELtyMdi3ON2hueCCj895v47jdvPHTKJZK8U1yF7+3ZMi//9t4/D3RzcikFQBdSROVhMMNe9SZsWIprKLmG4v5xnxjaV6+EUzAFmc+0iLtCJdp+IYdLuTxIZXRAUDhT/rtX8bkKMo+KXmV4jbBoljFN+yWYvHjt56tLuH4QWkFcOtJ4BtWU3wvPv5rUjobyEbmM/NNDfgGrET/p+FmTKUvufqlTtmVpAVU1R1v93KJu4wectHT7fjQpOEbrFHy6IKQtLfr5/2zzA1mEV7GcvFhNx9VGn2MVkwJjGXMGaYfeT1QVlTzjcV8Y76xNC/fsMt3fnFF1NI5UlpZRVLxDYtK+1BRTjOtg0UtWvw6ywWHBQm4EbKw5SruX8y/viwXaHHknYq8+sMoVQl8w9YtrZQ9Y2XcLzKFJXklm29qwDc7Kj7jaG748h3DRQ2usFjuUwgj8mdbBjphmBgnHH7f/GlMz0zDN0wb1fLkloGCTJbMGXQzsI7mCV1gxuoaLQmgmRLMYe4R06ABkoGVjPnGYr4x31ial2+ks4FR5NECdrBVKg3fhKP9YRQKEbqInmD7qDww1tgfzq82HjxCK22ukZdPMt+oNuwfpmdeAIVBDfjGfMNw7+jMabQ13LpNCfUJdCsrlSaVbFI6XwBdThq+0XmDzDp1ImS54VWIWSze+m/kBdhjhfOyqm59sydQFPUcPYAe0XzT+GK+Md9YzDfJCZ0/ji/YETYWWIplBuNFPLDUSdQmLjP8/bN6sU8q/U4oHfIGLbEtnAVPJeabmiV0Mww3e5ribt0M4lmPtlRNqkue3cik4ghHxhc75kFfgCrUNvHJhu2MKtqq5D/27gADgSiMwui2IgFoEe2iCmgDLW2IF0BQhgKa1A4CAY2IeebmHHcJP+8TGn3DL/RNPvSN6RvTN+gb8ukb0zemb9A31OEbVfv59sOmq+ZvnzF94zD0DfpG3+A/jj1jNfvGYZi+Qd9kQt+YvjF9g77Jh74xfWP6Bn0zJDhfu2P7ZYvd4Q+fMX3jMPQN+kbf4Dee+s+YvnEYpm/QNynQN6ZvTN+gb9Kgb0zfmL5B3+gb9I3pG9M36Bvy6RvTN6Zv0DcE0Demb0zfoG/0DfrG9I3pG/QNI6BvputmtrGhNlk2PX3jMByGvkHfMAB9U2/W3zcOw/QN+ob69I3pG9M36Bt9g74xfWP6Bn0D9Z0u3bG9VZ5194fDsKDDQN/oGwBA3wAA6BsAIIC+AQDQNwBAPn0DAITQNwAA+gYACKBvAAD0DQAwWvoGAEDfAAAB9A0AgL4BAEZL3wAA6BsAIIC+AQDQNwDA+OibUsoNAOCtlBLdNwAAPfQNABBA3wAAJPXNs321WwckAIAwAAT7lxMRMIANbGADgSmMwT0X4ufo7Q4AYBf5mzgAAH8DACTwNwAA/gYAwN/EAQD+BgDA3wAA+BsAAH8TBwD4GwAAfwMA4G8AAPxNFADgb9bMAgDw+W/yAQAU+BsAAH8DAOBvAAB/Uz9JkiR/854kSfI3kiRJ/kaSJMnfSJIkfyNJkuRvJEmS/I0kSZK/kSRJ8jeSJEkHdTMtwppQ1MEAAAAASUVORK5CYII=;" parent="1" vertex="1">
          <mxGeometry x="35" y="-710" width="757" height="670" as="geometry" />
        </mxCell>
        <mxCell id="QaiE9f9N_jXpPTgubkZL-21" value="Firestore&lt;div&gt;Database&lt;/div&gt;" style="sketch=0;html=1;verticalAlign=top;labelPosition=center;verticalLabelPosition=bottom;align=center;spacingTop=-6;fontSize=11;fontStyle=1;fontColor=#999999;shape=image;aspect=fixed;imageAspect=0;image=data:image/svg+xml,PHN2ZyB4bWxucz0iaHR0cDovL3d3dy53My5vcmcvMjAwMC9zdmciIHhtbG5zOnY9Imh0dHBzOi8vdmVjdGEuaW8vbmFubyIgd2lkdGg9IjMyMy45MDU2MTAzOTg2NzUxNSIgaGVpZ2h0PSIzNzYuNDIyMjk0OTYzNjg0MDciIHZpZXdCb3g9Ii0wLjA5NzAwMDAwMjg2MTAyMjk1IDAuMjg3OTk5OTg3NjAyMjMzOSA4NS42OTk5OTY5NDgyNDIxOSA5OS41OTUwMDEyMjA3MDMxMiI+JiN4YTs8c3R5bGUgdHlwZT0idGV4dC9jc3MiPiYjeGE7CS5zdDB7ZmlsbDojYWVjYmZhO30mI3hhOwkuc3Qxe2ZpbGw6IzY2OWRmNjt9JiN4YTsJLnN0MntmaWxsOiM0Mjg1ZjQ7fSYjeGE7PC9zdHlsZT4mI3hhOwk8cGF0aCBjbGFzcz0ic3QwIiBkPSJNLS4wOTcgNzUuODE1VjU1Ljg3NGw0Mi44NS0yMC4xODN2MTkuMDd6bTAtMzUuNDAzVjIwLjQ3MUw0Mi43NTMuMjg4djE5LjA3eiIvPiYjeGE7CTxwYXRoIGNsYXNzPSJzdDEiIGQ9Ik04NS42MDMgNzUuODE1VjU1Ljg3NGwtNDIuODUtMjAuMTgzdjE5LjA3em0wLTM1LjQwM1YyMC40NzFMNDIuNzUzLjI4OHYxOS4wN3oiLz4mI3hhOwk8cGF0aCBjbGFzcz0ic3QyIiBkPSJNNDIuNzUzIDgwLjMxNGwxNi4yMTctNy41MjUgMjEuMDg0IDkuNzE3LTM3LjMwMSAxNy4zNzd6Ii8+JiN4YTs8L3N2Zz4=;shadow=1;imageBorder=#B8B8B8;" parent="1" vertex="1">
          <mxGeometry x="472" y="179" width="36" height="42" as="geometry" />
        </mxCell>
        <mxCell id="QaiE9f9N_jXpPTgubkZL-23" value="" style="strokeColor=#dddddd;shadow=1;strokeWidth=1;rounded=1;absoluteArcSize=1;arcSize=2;" parent="1" vertex="1">
          <mxGeometry x="440" y="95" width="100" height="60" as="geometry" />
        </mxCell>
        <mxCell id="QaiE9f9N_jXpPTgubkZL-24" value="&lt;font style=&quot;font-size: 8px;&quot;&gt;Authentication&lt;/font&gt;" style="sketch=0;dashed=0;connectable=0;html=1;fillColor=#5184F3;strokeColor=none;shape=mxgraph.gcp2.firebase;part=1;labelPosition=right;verticalLabelPosition=middle;align=left;verticalAlign=middle;spacingLeft=5;fontColor=#999999;fontSize=12;" parent="QaiE9f9N_jXpPTgubkZL-23" vertex="1">
          <mxGeometry width="32.4" height="45" relative="1" as="geometry">
            <mxPoint x="5" y="7" as="offset" />
          </mxGeometry>
        </mxCell>
        <mxCell id="QaiE9f9N_jXpPTgubkZL-25" value="" style="shape=mxgraph.gcp2.doubleRect;strokeColor=#dddddd;shadow=1;strokeWidth=1;rounded=1;absoluteArcSize=1;arcSize=2;" parent="1" vertex="1">
          <mxGeometry x="430" y="261" width="128" height="68" as="geometry" />
        </mxCell>
        <mxCell id="QaiE9f9N_jXpPTgubkZL-26" value="&lt;font color=&quot;#000000&quot;&gt;Files&lt;/font&gt;&lt;br&gt;Storage" style="editableCssRules=.*;html=1;fontColor=#999999;shape=image;verticalLabelPosition=middle;verticalAlign=middle;labelPosition=right;align=left;spacingLeft=20;part=1;points=[];imageAspect=0;image=data:image/svg+xml,PHN2ZyB4bWxucz0iaHR0cDovL3d3dy53My5vcmcvMjAwMC9zdmciIHhtbG5zOnY9Imh0dHBzOi8vdmVjdGEuaW8vbmFubyIgd2lkdGg9IjIwIiBoZWlnaHQ9IjE2IiB2aWV3Qm94PSIwIDAgMjAgMTYiPiYjeGE7CTxzdHlsZSB0eXBlPSJ0ZXh0L2NzcyI+JiN4YTsJLnN0MHtmaWxsOiM0Mjg1ZjQ7fSYjeGE7CS5zdDF7ZmlsbDojNjY5ZGY2O30mI3hhOwkuc3Qye2ZpbGw6I2FlY2JmYTt9JiN4YTsJPC9zdHlsZT4mI3hhOwk8cGF0aCBjbGFzcz0ic3QwIiBkPSJNMTIgMTBIOEw2IDhoOHoiLz4mI3hhOwk8cGF0aCBjbGFzcz0ic3QyIiBkPSJNMTYgMkg0bDEtMmgxMHptMyAzSDFsMS0yaDE2eiIvPiYjeGE7CTxwYXRoIGNsYXNzPSJzdDEiIGQ9Ik0xNCA3bC0yIDNIOEw2IDdIMHY5aDIwVjd6Ii8+JiN4YTs8L3N2Zz4=;" parent="QaiE9f9N_jXpPTgubkZL-25" vertex="1">
          <mxGeometry width="30" height="24" relative="1" as="geometry">
            <mxPoint x="15" y="18" as="offset" />
          </mxGeometry>
        </mxCell>
        <mxCell id="QaiE9f9N_jXpPTgubkZL-27" value="" style="shape=image;verticalLabelPosition=bottom;labelBackgroundColor=default;verticalAlign=top;aspect=fixed;imageAspect=0;image=data:image/png,iVBORw0KGgoAAAANSUhEUgAAAUsAAACYCAMAAABatDuZAAABCFBMVEX///8AAAD4zFL4zVT4y1DnhzXzqD/zqkDzq0Hzpz7nhjWsrKz5+fnU1NQ5OTn09PS+vr7m5ualpaXhfzGenp5sbGx2dnYXFxfu7u6Xl5ff39+6urp8fHzwoz3ghDf1yVsyMjLQ0NAlJSVISEg+Pj6MjIxVVVUeHh7FxcW7u7tkZGRSUlKSkpI6OjoLCwvrnTvzpzH52HzojzdpaWn4yEL++O7yoSn75cb5023pljnxwEvy1aX1t1L3y4n99Ob3xH31uF72vm3748L51KH63bX64qX53I7868P87tjtmSr75rP3y5X53Zj88df1vnX548rjiCbwvYXzyXzvwV7wxnXwv1Lx0JLvuzuxhThQAAAOH0lEQVR4nO2deWPaOBrG7YRwxDYGFowxZIfL4BBKPA1Jt0dS2mRm0u1uszOdmX7/b7K6LRkHiyOQQ88fnaDIxv7lkd5XsuTRNCUlJSUlJSUlJSUlJSUlJSUlJSUlJSUlJSUlJSUlJSWlB9D7D5e7voTnorswF37d9UU8E12H+Xx4teureB76mMvnCx93fRXPQzPAMh/e7voynoXyULlPu76M56CrEMFUxtyA7jDL3GzXF/IMdINZ5sPPu76Sp6+vBcwy92HXV/L09SmXJ8a82fWlPHl9wCxzuVze3PW1PHGdk+4SsAyvd30xT1y3IUUJjHnOis8vP25+WGlLV7SfZBNBYTyHxU1xfArDTccib6I3JKvqemvDX74VXXMscznqxbuL9Zp8MKrxOoNoHF3XJQ9/oizhzAZDGdKJzFkhly1wTX5ZGbqoNiir4P/I6ImynOV4kZHk5zALtIYxAcuRw8mHhaWqbC/4NFme5wWWBTzF8QHYMpst5FYOP4Clt8ZVPU2WV6HAMhveaTAeQZTAmPPPLn759b8ypwUsrTWu6mmyfCOwBF6cadCWCGW2UIgb8+dpZirTi8qx5HIkMQliLBM6BXOuzJzPoHaSU70PBZTZ7MVnUJYlCmPT7T9n9venv0mcNomlPewa+Kdh91gzm4M2DevGoDupt50Oq4pYen5xWO+eVDji1rjXrte7gyZX1Ho1nAzbI8Nl31PpgdMVW+t0MivpsiCQBNF7dp4vZBlMYVYTotzP/CJx2kSWul7BP+l6s9zVaYpk1Wm0H1E3QZYtlgSUSKnXi/KCMimLalErl+IFW9NMQAma9dHRLEKZDb9xdRHKvczPEqdNY1kFtzpoVOGHJoTYtDqVvq7XXVqhNdL1YiUIKpDfGBV64Keu3+wEVfB3qGPsAGW92vE6Ro2ia0CIJa9THep6b0UoK+oDzxL8c3R6enBUyFKchYvImAglYPkvidOmsQT3SbCVdVbVYHfP27EDfjxGP/UmATmVQ/iWI152C/UFAfAsObOv647EpW5M5yGPEtry9PXB2yNqy0KhwJ4DEZR7exmJ4JPKsk9LgRtpe4UWrdAKUU7lgg+IkxsFlK5eT/waU9eH7AOA2dG2p9uQJwlt+fbg4OAUMCQoCxd3uCZu4FBTiawT3GSj1GRCtASWlFSHFUIN9CKtUI1Km8InpLGuu/g3IktDwNfVz9IvdWO6CaO+EvwH2fLg4DVu5QWkGarIXAlYSgTy2BgSNVeeJbOlTzyHFRDIulCqzfd8ZCxggd8I2c8A+5UI9MpbzI2+hhFKZktsTKqLNxrvStDG/51+XnCv9Ug66ud4lqwjOwHdW5kJsAlwBQFejYYazS57FpDXINBPAHU/YJ0EcGItOp17vN7oa0l9K3CuzB5hWyJjRpoJrgQsf00/L2prJhMq41n6tGI7NgmiG7iCEDWoeYMBVxFRsnFJd1D1yFfEtM7oa0nNaF6Z420JjBnBPPpyI6CUCuRpsYdNZLb1Sb/IqbuA5RhSOxlA9ZnjOj75cwxM9BXDV8LptscSzWxglDSIH8SMCZKkfa6BQ+2nB3JplqCNJxye2MZBB9CnTbbJt17XMs4ATBi2uttNg3hdXUS2zHK2PDh8e8RQ/rS/L7KUCOTSLMdcShQpMfa0uMJmvCeEjR10tSPp6eaN602YZa5EaXqko3tR7k3Tp4qkWVqJQz1d5x9nGDgnOtFPWFF1Lqq46JAm6XB3oGuR5dsIJTYmRbknaJoeyKVZwkhcYh9oRBaiRpm4dKS3uVOR2MOfHQKv85AN6Yd1G9BlAZNEKI94WyJjJrpSKpDLs3S5vLyiT1xSATAhk0EBzU8bzHN2m7A0dIMmkA7O0oHP6YGgU9jmgHwWoRRtiYx5D0qZQC7PEt193W8GTX8IwjRlWQX9X7taKlX7bG4DjA/1mlUueyCs9zBL6N+aEVhBtQgCOaoFp0rajVLQhDNIvS2m6nnWwGO9JWB5cJrYwCHLn1JPvARLzT1h2eDIphWqSXNuE1rikwGSFc3C6SNaq8uKtjnphh9QZNGznZgtDw4PXye7UiqQN7vduRGHPWzTueB2RfhNx2nXJ91XPsNfhBW8VnE4EeaCzUoPzvu2LK3T7eKu1WucgGOHr1rcMLx0Bk/XayQkCA8nNLOBZ4RiveXh4eE//pnsSrlAvqzM5DAxX5rw9CHhGcU9p3tA3TCWXJqOGzhFmcxSYkT+0gRnNogt473lIpR7mf/s+sofnz4V2JMJ0ZaLGrhcIH9xymcZylOe5GJXSgXyl6Zz+hj8iLdlOsq9jMxjipel2wtmy7fyDRyyfIBA/sT1OWT50OslXAlZqkAe09dw3pYSrgRNXAXyuD7C/rLA23Jxis5IZqTWG7wo4bUunC1lGngGwdzf9bU/NjFbLhN2iFQgF3QVokfgwJaHMZRprsyoQB7T3YVoS6kITiS1cPAF6TrkbSkddjBLmYWDL0iXITepsRxKFchjmhUKaFLjcAWUakQuKsQPGqXDjigVyDmdY5bElsuinKpXSnC6vaC2lGngcyxVIOd0c0FsmfJAIonkow/k3nY3UXwNmS1T5ytZjh5JYuHg7jTWpbcEb0TfqC2Xb+DpgdzQhwlPAo+3tU63Lb+NdSPK4zR9+bCDtb+QipH4oH+yLZbj+RXuD6oQzrXJPJBIZrl4vYGhJyxvhmtRt7QoxdriemAYxqEt0xv4PSgz0zeLzg5ZxhdGwVVY21yLvz29+XIKbbncaEc6kKN9FE2x7OzZsrz+Am0pPck2z3JhIAcsu/pEKOqAeCCytD0vjrbsiYuAXK8sVjHLnqvNqUyOYnt44z+YXsLiItvb0EqZ37+crpJXRlq43gCwDLjdElBtvVfhWNo+2lLabUSsqngVf9snPW2JbJuo0YVuQY0U8F1x2cdHgRN5dHVdiW6ZOoZ7qjwH1egJ7YScfFRCSzeXhBfTDNhydVdmUh5TAJamIyxFh7ubOJbB3LYRexIV1WDBKPo8gYdF+3n5KO1HhUGZnizgoNpjVmHAjnKjvTAnpi9ssFpBR6cHK+WVUSNfFMgBOdfmL96GgKJ9YLA/HVumaUEUeMcouDunY2t2pzFEKy5but4vuaB1Gj28OQLet+HZNjqGWhW6q9UpuxbcvFtNYgn+pKNjr9wZ82s0oZErll3ugN/2nTVZXn15vU4Dz6Q8poAs4Ytf6MZaSMaNWHrRDnC4kdzFt8+GKnCZps0lAiXURRp1muh0WCoOsPZp/9mKTM6zZBfhDmnLN7t0rTH4fujQ9VjefUlNhlK0cL0BYgmsRjfNeqhZMpavMD98M3hjVEPchqJZ3B9iTi3SfYDTDk2+NIkl21rQoVuwfL4rt+vrsrz531oNHLJctN4As+ywjq2nd7WIpScMSxqoNL7LxBM28MYUENC+CHySxJJLc4s4tTDrQopRWpfl7wcrjXZ4LXpMgVnC8OGSy4X3TFlWBQ+66JcB11rRDesLdn+XSfJa5HaLawjtPEvuL0ICtheb+RiuyfLbmq7MLA7khKVLQvIERyHKEnT2QVAiCgK81wQu4x9VAwYZvkai75eEvLAcNA2oKmFZ56Kbxm0nD+aSI6Qx/v7jWPdxsibLP6Z7q4x2+Db+fcFjCsIStl8L/YuQUJZctoOFei+SPHYdcqMV8ssR3Ul2zG/qhSxBGiXMoHSSWHIjc9ybzO3gP1s3J7r7Pl2AMj3yvFv4emHKEjinCN2Ju3rKsqbXW7wcnEW7Rg2nkPSNGaVWkWSO5Gh94I+hfOLLIbetT7vHl/MsA36rmwZbxJosQfh5l1nVldMf7xefm7GEDZiNKyjL1v0DDROml+RNEUiWARt/GfUXrEN1CcueOCh15FiWxQlBe93Yg677OplmKsofl2lPIRlLlEzTWQ7Ksrko30FdgNAGKygbNMTXmTTJCbnQ4ibmRPMs4bCAi33VTbAEGfvldJ5mqin/lNrzzL0zh75dg7I0uRduJMiKTzGhAYvPmfmY1GB7TJF6siwNPlOy1s7VqW7/jNFM6yqn3+8kThuxhAzo7bJcfcy3MgPFFjdi0kH9GRd/UY5djYb35pDSBlDJy4u0cj953JPAEjaWXpld6aZYatpnMQilkPxL7sXhHEtzRIdr3HgcWGiAb8YmbxFydJ/cnYua4LE+ohRqiK3FhvduMeo24Ci73WiWDIBnUpFlabZRflBqNuAswGhjLDXtfdRtppB8915yLpdjySliacP22POrPkyP2jaZdO+1qkZjhKeBYIVurWFUnTqBeAb8AzfggggzmLBeIJpw6rmBLEv+PXBjbZMstfO/f2QkYKaHHKY0lthQXHKplWtR7ogafSP6TN6h4bAjXP71BaVRl2Sl7M0RDOGxwHLMfb/b6IEhZx9uQE1+58fKuvoDdZsLTSkRcpg6jpMwZ11yapGvzWarVxw43LsWS/6o1x+0mrROZ1w76fecKqvhjUf9Xg18th0naXzJulTLcTz6AzdwKjlOUrtqi6On9XX7fboo7MiFnB1rtcFgOZqA25g+/zW9P+Q81v+JCm9Pi4z+0+XyU1Kth3iFnvn+3TTJmvIhZ+sq6WesB4BzvZLLiAZcd2sIw6zNCQah+ZDz9+Ndawmj/ZlRdm0XPbnw04+Ago8o6n7g2raLHqE90EKuqz9jDX36x6P+3x1y77iVRglg9vnDHu4lmXffOZrT7499zapbJVwmtWXWvVgOecVJt/qgr5O4eTd97CFHkOl5VtJaghS5nmUlLVzYsK5/TIHSJtaUpGS+ub6+e6zBW0lJSUlJSUlJSUlJSUlJSUlJSUlJSUlJSUlJSUlJSUlJSUlJSUlJSUlJ6QXp/6FXZA5oCBbAAAAAAElFTkSuQmCC;shadow=1;" parent="1" vertex="1">
          <mxGeometry x="430" y="350" width="130.65" height="60" as="geometry" />
        </mxCell>
        <mxCell id="QaiE9f9N_jXpPTgubkZL-30" value="" style="rounded=0;whiteSpace=wrap;html=1;" parent="1" vertex="1">
          <mxGeometry x="20" y="570" width="640" height="460" as="geometry" />
        </mxCell>
        <mxCell id="QaiE9f9N_jXpPTgubkZL-37" value="&lt;font color=&quot;#aba6a6&quot; style=&quot;font-size: 15px;&quot;&gt;Firebase&lt;/font&gt;" style="html=1;dashed=0;whiteSpace=wrap;labelPosition=center;verticalLabelPosition=bottom;align=center;verticalAlign=top;horizontal=1;strokeColor=#FF8000;strokeWidth=3;" parent="1" vertex="1">
          <mxGeometry x="50" y="880" width="585" height="122.5" as="geometry" />
        </mxCell>
        <mxCell id="QaiE9f9N_jXpPTgubkZL-38" value="Firestore&lt;div&gt;Database&lt;/div&gt;" style="sketch=0;html=1;verticalAlign=top;labelPosition=center;verticalLabelPosition=bottom;align=center;spacingTop=-6;fontSize=11;fontStyle=1;fontColor=#999999;shape=image;aspect=fixed;imageAspect=0;image=data:image/svg+xml,PHN2ZyB4bWxucz0iaHR0cDovL3d3dy53My5vcmcvMjAwMC9zdmciIHhtbG5zOnY9Imh0dHBzOi8vdmVjdGEuaW8vbmFubyIgd2lkdGg9IjMyMy45MDU2MTAzOTg2NzUxNSIgaGVpZ2h0PSIzNzYuNDIyMjk0OTYzNjg0MDciIHZpZXdCb3g9Ii0wLjA5NzAwMDAwMjg2MTAyMjk1IDAuMjg3OTk5OTg3NjAyMjMzOSA4NS42OTk5OTY5NDgyNDIxOSA5OS41OTUwMDEyMjA3MDMxMiI+JiN4YTs8c3R5bGUgdHlwZT0idGV4dC9jc3MiPiYjeGE7CS5zdDB7ZmlsbDojYWVjYmZhO30mI3hhOwkuc3Qxe2ZpbGw6IzY2OWRmNjt9JiN4YTsJLnN0MntmaWxsOiM0Mjg1ZjQ7fSYjeGE7PC9zdHlsZT4mI3hhOwk8cGF0aCBjbGFzcz0ic3QwIiBkPSJNLS4wOTcgNzUuODE1VjU1Ljg3NGw0Mi44NS0yMC4xODN2MTkuMDd6bTAtMzUuNDAzVjIwLjQ3MUw0Mi43NTMuMjg4djE5LjA3eiIvPiYjeGE7CTxwYXRoIGNsYXNzPSJzdDEiIGQ9Ik04NS42MDMgNzUuODE1VjU1Ljg3NGwtNDIuODUtMjAuMTgzdjE5LjA3em0wLTM1LjQwM1YyMC40NzFMNDIuNzUzLjI4OHYxOS4wN3oiLz4mI3hhOwk8cGF0aCBjbGFzcz0ic3QyIiBkPSJNNDIuNzUzIDgwLjMxNGwxNi4yMTctNy41MjUgMjEuMDg0IDkuNzE3LTM3LjMwMSAxNy4zNzd6Ii8+JiN4YTs8L3N2Zz4=;imageBorder=#B8B8B8;shadow=1;" parent="1" vertex="1">
          <mxGeometry x="225" y="911.25" width="36" height="42" as="geometry" />
        </mxCell>
        <mxCell id="QaiE9f9N_jXpPTgubkZL-39" value="" style="strokeColor=#dddddd;shadow=1;strokeWidth=1;rounded=1;absoluteArcSize=1;arcSize=2;" parent="1" vertex="1">
          <mxGeometry x="75.5" y="906.25" width="100" height="60" as="geometry" />
        </mxCell>
        <mxCell id="QaiE9f9N_jXpPTgubkZL-40" value="&lt;font style=&quot;font-size: 8px;&quot;&gt;Authentication&lt;/font&gt;" style="sketch=0;dashed=0;connectable=0;html=1;fillColor=#5184F3;strokeColor=none;shape=mxgraph.gcp2.firebase;part=1;labelPosition=right;verticalLabelPosition=middle;align=left;verticalAlign=middle;spacingLeft=5;fontColor=#999999;fontSize=12;" parent="QaiE9f9N_jXpPTgubkZL-39" vertex="1">
          <mxGeometry width="32.4" height="45" relative="1" as="geometry">
            <mxPoint x="5" y="7" as="offset" />
          </mxGeometry>
        </mxCell>
        <mxCell id="QaiE9f9N_jXpPTgubkZL-41" value="" style="shape=mxgraph.gcp2.doubleRect;strokeColor=#dddddd;shadow=1;strokeWidth=1;rounded=1;absoluteArcSize=1;arcSize=2;" parent="1" vertex="1">
          <mxGeometry x="307" y="898.25" width="128" height="68" as="geometry" />
        </mxCell>
        <mxCell id="QaiE9f9N_jXpPTgubkZL-42" value="&lt;font color=&quot;#000000&quot;&gt;Files&lt;/font&gt;&lt;br&gt;Storage" style="editableCssRules=.*;html=1;fontColor=#999999;shape=image;verticalLabelPosition=middle;verticalAlign=middle;labelPosition=right;align=left;spacingLeft=20;part=1;points=[];imageAspect=0;image=data:image/svg+xml,PHN2ZyB4bWxucz0iaHR0cDovL3d3dy53My5vcmcvMjAwMC9zdmciIHhtbG5zOnY9Imh0dHBzOi8vdmVjdGEuaW8vbmFubyIgd2lkdGg9IjIwIiBoZWlnaHQ9IjE2IiB2aWV3Qm94PSIwIDAgMjAgMTYiPiYjeGE7CTxzdHlsZSB0eXBlPSJ0ZXh0L2NzcyI+JiN4YTsJLnN0MHtmaWxsOiM0Mjg1ZjQ7fSYjeGE7CS5zdDF7ZmlsbDojNjY5ZGY2O30mI3hhOwkuc3Qye2ZpbGw6I2FlY2JmYTt9JiN4YTsJPC9zdHlsZT4mI3hhOwk8cGF0aCBjbGFzcz0ic3QwIiBkPSJNMTIgMTBIOEw2IDhoOHoiLz4mI3hhOwk8cGF0aCBjbGFzcz0ic3QyIiBkPSJNMTYgMkg0bDEtMmgxMHptMyAzSDFsMS0yaDE2eiIvPiYjeGE7CTxwYXRoIGNsYXNzPSJzdDEiIGQ9Ik0xNCA3bC0yIDNIOEw2IDdIMHY5aDIwVjd6Ii8+JiN4YTs8L3N2Zz4=;" parent="QaiE9f9N_jXpPTgubkZL-41" vertex="1">
          <mxGeometry width="30" height="24" relative="1" as="geometry">
            <mxPoint x="15" y="18" as="offset" />
          </mxGeometry>
        </mxCell>
        <mxCell id="QaiE9f9N_jXpPTgubkZL-43" value="" style="shape=image;verticalLabelPosition=bottom;labelBackgroundColor=default;verticalAlign=top;aspect=fixed;imageAspect=0;image=data:image/png,iVBORw0KGgoAAAANSUhEUgAAAUsAAACYCAMAAABatDuZAAABCFBMVEX///8AAAD4zFL4zVT4y1DnhzXzqD/zqkDzq0Hzpz7nhjWsrKz5+fnU1NQ5OTn09PS+vr7m5ualpaXhfzGenp5sbGx2dnYXFxfu7u6Xl5ff39+6urp8fHzwoz3ghDf1yVsyMjLQ0NAlJSVISEg+Pj6MjIxVVVUeHh7FxcW7u7tkZGRSUlKSkpI6OjoLCwvrnTvzpzH52HzojzdpaWn4yEL++O7yoSn75cb5023pljnxwEvy1aX1t1L3y4n99Ob3xH31uF72vm3748L51KH63bX64qX53I7868P87tjtmSr75rP3y5X53Zj88df1vnX548rjiCbwvYXzyXzvwV7wxnXwv1Lx0JLvuzuxhThQAAAOH0lEQVR4nO2deWPaOBrG7YRwxDYGFowxZIfL4BBKPA1Jt0dS2mRm0u1uszOdmX7/b7K6LRkHiyOQQ88fnaDIxv7lkd5XsuTRNCUlJSUlJSUlJSUlJSUlJSUlJSUlJSUlJSUlJSUlJSWlB9D7D5e7voTnorswF37d9UU8E12H+Xx4teureB76mMvnCx93fRXPQzPAMh/e7voynoXyULlPu76M56CrEMFUxtyA7jDL3GzXF/IMdINZ5sPPu76Sp6+vBcwy92HXV/L09SmXJ8a82fWlPHl9wCxzuVze3PW1PHGdk+4SsAyvd30xT1y3IUUJjHnOis8vP25+WGlLV7SfZBNBYTyHxU1xfArDTccib6I3JKvqemvDX74VXXMscznqxbuL9Zp8MKrxOoNoHF3XJQ9/oizhzAZDGdKJzFkhly1wTX5ZGbqoNiir4P/I6ImynOV4kZHk5zALtIYxAcuRw8mHhaWqbC/4NFme5wWWBTzF8QHYMpst5FYOP4Clt8ZVPU2WV6HAMhveaTAeQZTAmPPPLn759b8ypwUsrTWu6mmyfCOwBF6cadCWCGW2UIgb8+dpZirTi8qx5HIkMQliLBM6BXOuzJzPoHaSU70PBZTZ7MVnUJYlCmPT7T9n9venv0mcNomlPewa+Kdh91gzm4M2DevGoDupt50Oq4pYen5xWO+eVDji1rjXrte7gyZX1Ho1nAzbI8Nl31PpgdMVW+t0MivpsiCQBNF7dp4vZBlMYVYTotzP/CJx2kSWul7BP+l6s9zVaYpk1Wm0H1E3QZYtlgSUSKnXi/KCMimLalErl+IFW9NMQAma9dHRLEKZDb9xdRHKvczPEqdNY1kFtzpoVOGHJoTYtDqVvq7XXVqhNdL1YiUIKpDfGBV64Keu3+wEVfB3qGPsAGW92vE6Ro2ia0CIJa9THep6b0UoK+oDzxL8c3R6enBUyFKchYvImAglYPkvidOmsQT3SbCVdVbVYHfP27EDfjxGP/UmATmVQ/iWI152C/UFAfAsObOv647EpW5M5yGPEtry9PXB2yNqy0KhwJ4DEZR7exmJ4JPKsk9LgRtpe4UWrdAKUU7lgg+IkxsFlK5eT/waU9eH7AOA2dG2p9uQJwlt+fbg4OAUMCQoCxd3uCZu4FBTiawT3GSj1GRCtASWlFSHFUIN9CKtUI1Km8InpLGuu/g3IktDwNfVz9IvdWO6CaO+EvwH2fLg4DVu5QWkGarIXAlYSgTy2BgSNVeeJbOlTzyHFRDIulCqzfd8ZCxggd8I2c8A+5UI9MpbzI2+hhFKZktsTKqLNxrvStDG/51+XnCv9Ug66ud4lqwjOwHdW5kJsAlwBQFejYYazS57FpDXINBPAHU/YJ0EcGItOp17vN7oa0l9K3CuzB5hWyJjRpoJrgQsf00/L2prJhMq41n6tGI7NgmiG7iCEDWoeYMBVxFRsnFJd1D1yFfEtM7oa0nNaF6Z420JjBnBPPpyI6CUCuRpsYdNZLb1Sb/IqbuA5RhSOxlA9ZnjOj75cwxM9BXDV8LptscSzWxglDSIH8SMCZKkfa6BQ+2nB3JplqCNJxye2MZBB9CnTbbJt17XMs4ATBi2uttNg3hdXUS2zHK2PDh8e8RQ/rS/L7KUCOTSLMdcShQpMfa0uMJmvCeEjR10tSPp6eaN602YZa5EaXqko3tR7k3Tp4qkWVqJQz1d5x9nGDgnOtFPWFF1Lqq46JAm6XB3oGuR5dsIJTYmRbknaJoeyKVZwkhcYh9oRBaiRpm4dKS3uVOR2MOfHQKv85AN6Yd1G9BlAZNEKI94WyJjJrpSKpDLs3S5vLyiT1xSATAhk0EBzU8bzHN2m7A0dIMmkA7O0oHP6YGgU9jmgHwWoRRtiYx5D0qZQC7PEt193W8GTX8IwjRlWQX9X7taKlX7bG4DjA/1mlUueyCs9zBL6N+aEVhBtQgCOaoFp0rajVLQhDNIvS2m6nnWwGO9JWB5cJrYwCHLn1JPvARLzT1h2eDIphWqSXNuE1rikwGSFc3C6SNaq8uKtjnphh9QZNGznZgtDw4PXye7UiqQN7vduRGHPWzTueB2RfhNx2nXJ91XPsNfhBW8VnE4EeaCzUoPzvu2LK3T7eKu1WucgGOHr1rcMLx0Bk/XayQkCA8nNLOBZ4RiveXh4eE//pnsSrlAvqzM5DAxX5rw9CHhGcU9p3tA3TCWXJqOGzhFmcxSYkT+0gRnNogt473lIpR7mf/s+sofnz4V2JMJ0ZaLGrhcIH9xymcZylOe5GJXSgXyl6Zz+hj8iLdlOsq9jMxjipel2wtmy7fyDRyyfIBA/sT1OWT50OslXAlZqkAe09dw3pYSrgRNXAXyuD7C/rLA23Jxis5IZqTWG7wo4bUunC1lGngGwdzf9bU/NjFbLhN2iFQgF3QVokfgwJaHMZRprsyoQB7T3YVoS6kITiS1cPAF6TrkbSkddjBLmYWDL0iXITepsRxKFchjmhUKaFLjcAWUakQuKsQPGqXDjigVyDmdY5bElsuinKpXSnC6vaC2lGngcyxVIOd0c0FsmfJAIonkow/k3nY3UXwNmS1T5ytZjh5JYuHg7jTWpbcEb0TfqC2Xb+DpgdzQhwlPAo+3tU63Lb+NdSPK4zR9+bCDtb+QipH4oH+yLZbj+RXuD6oQzrXJPJBIZrl4vYGhJyxvhmtRt7QoxdriemAYxqEt0xv4PSgz0zeLzg5ZxhdGwVVY21yLvz29+XIKbbncaEc6kKN9FE2x7OzZsrz+Am0pPck2z3JhIAcsu/pEKOqAeCCytD0vjrbsiYuAXK8sVjHLnqvNqUyOYnt44z+YXsLiItvb0EqZ37+crpJXRlq43gCwDLjdElBtvVfhWNo+2lLabUSsqngVf9snPW2JbJuo0YVuQY0U8F1x2cdHgRN5dHVdiW6ZOoZ7qjwH1egJ7YScfFRCSzeXhBfTDNhydVdmUh5TAJamIyxFh7ubOJbB3LYRexIV1WDBKPo8gYdF+3n5KO1HhUGZnizgoNpjVmHAjnKjvTAnpi9ssFpBR6cHK+WVUSNfFMgBOdfmL96GgKJ9YLA/HVumaUEUeMcouDunY2t2pzFEKy5but4vuaB1Gj28OQLet+HZNjqGWhW6q9UpuxbcvFtNYgn+pKNjr9wZ82s0oZErll3ugN/2nTVZXn15vU4Dz6Q8poAs4Ytf6MZaSMaNWHrRDnC4kdzFt8+GKnCZps0lAiXURRp1muh0WCoOsPZp/9mKTM6zZBfhDmnLN7t0rTH4fujQ9VjefUlNhlK0cL0BYgmsRjfNeqhZMpavMD98M3hjVEPchqJZ3B9iTi3SfYDTDk2+NIkl21rQoVuwfL4rt+vrsrz531oNHLJctN4As+ywjq2nd7WIpScMSxqoNL7LxBM28MYUENC+CHySxJJLc4s4tTDrQopRWpfl7wcrjXZ4LXpMgVnC8OGSy4X3TFlWBQ+66JcB11rRDesLdn+XSfJa5HaLawjtPEvuL0ICtheb+RiuyfLbmq7MLA7khKVLQvIERyHKEnT2QVAiCgK81wQu4x9VAwYZvkai75eEvLAcNA2oKmFZ56Kbxm0nD+aSI6Qx/v7jWPdxsibLP6Z7q4x2+Db+fcFjCsIStl8L/YuQUJZctoOFei+SPHYdcqMV8ssR3Ul2zG/qhSxBGiXMoHSSWHIjc9ybzO3gP1s3J7r7Pl2AMj3yvFv4emHKEjinCN2Ju3rKsqbXW7wcnEW7Rg2nkPSNGaVWkWSO5Gh94I+hfOLLIbetT7vHl/MsA36rmwZbxJosQfh5l1nVldMf7xefm7GEDZiNKyjL1v0DDROml+RNEUiWARt/GfUXrEN1CcueOCh15FiWxQlBe93Yg677OplmKsofl2lPIRlLlEzTWQ7Ksrko30FdgNAGKygbNMTXmTTJCbnQ4ibmRPMs4bCAi33VTbAEGfvldJ5mqin/lNrzzL0zh75dg7I0uRduJMiKTzGhAYvPmfmY1GB7TJF6siwNPlOy1s7VqW7/jNFM6yqn3+8kThuxhAzo7bJcfcy3MgPFFjdi0kH9GRd/UY5djYb35pDSBlDJy4u0cj953JPAEjaWXpld6aZYatpnMQilkPxL7sXhHEtzRIdr3HgcWGiAb8YmbxFydJ/cnYua4LE+ohRqiK3FhvduMeo24Ci73WiWDIBnUpFlabZRflBqNuAswGhjLDXtfdRtppB8915yLpdjySliacP22POrPkyP2jaZdO+1qkZjhKeBYIVurWFUnTqBeAb8AzfggggzmLBeIJpw6rmBLEv+PXBjbZMstfO/f2QkYKaHHKY0lthQXHKplWtR7ogafSP6TN6h4bAjXP71BaVRl2Sl7M0RDOGxwHLMfb/b6IEhZx9uQE1+58fKuvoDdZsLTSkRcpg6jpMwZ11yapGvzWarVxw43LsWS/6o1x+0mrROZ1w76fecKqvhjUf9Xg18th0naXzJulTLcTz6AzdwKjlOUrtqi6On9XX7fboo7MiFnB1rtcFgOZqA25g+/zW9P+Q81v+JCm9Pi4z+0+XyU1Kth3iFnvn+3TTJmvIhZ+sq6WesB4BzvZLLiAZcd2sIw6zNCQah+ZDz9+Ndawmj/ZlRdm0XPbnw04+Ago8o6n7g2raLHqE90EKuqz9jDX36x6P+3x1y77iVRglg9vnDHu4lmXffOZrT7499zapbJVwmtWXWvVgOecVJt/qgr5O4eTd97CFHkOl5VtJaghS5nmUlLVzYsK5/TIHSJtaUpGS+ub6+e6zBW0lJSUlJSUlJSUlJSUlJSUlJSUlJSUlJSUlJSUlJSUlJSUlJSUlJSUlJ6QXp/6FXZA5oCBbAAAAAAElFTkSuQmCC;imageBorder=#A3A3A3;shadow=1;" parent="1" vertex="1">
          <mxGeometry x="484.35" y="911.25" width="130.65" height="60" as="geometry" />
        </mxCell>
        <mxCell id="QaiE9f9N_jXpPTgubkZL-45" value="&lt;font color=&quot;#aba6a6&quot; style=&quot;font-size: 15px;&quot;&gt;Mobile&lt;/font&gt;" style="html=1;dashed=0;whiteSpace=wrap;labelPosition=center;verticalLabelPosition=top;align=center;verticalAlign=bottom;horizontal=1;strokeColor=#7EA6E0;strokeWidth=3;" parent="1" vertex="1">
          <mxGeometry x="50" y="600" width="580" height="250" as="geometry" />
        </mxCell>
        <mxCell id="QaiE9f9N_jXpPTgubkZL-62" style="edgeStyle=orthogonalEdgeStyle;rounded=0;orthogonalLoop=1;jettySize=auto;html=1;entryX=0.75;entryY=1;entryDx=0;entryDy=0;" parent="1" source="QaiE9f9N_jXpPTgubkZL-43" target="QaiE9f9N_jXpPTgubkZL-48" edge="1">
          <mxGeometry relative="1" as="geometry">
            <Array as="points">
              <mxPoint x="550" y="820" />
              <mxPoint x="188" y="820" />
            </Array>
          </mxGeometry>
        </mxCell>
        <mxCell id="QaiE9f9N_jXpPTgubkZL-54" style="edgeStyle=orthogonalEdgeStyle;rounded=0;orthogonalLoop=1;jettySize=auto;html=1;exitX=1;exitY=0.5;exitDx=0;exitDy=0;" parent="1" source="QaiE9f9N_jXpPTgubkZL-48" target="QaiE9f9N_jXpPTgubkZL-52" edge="1">
          <mxGeometry relative="1" as="geometry" />
        </mxCell>
        <mxCell id="QaiE9f9N_jXpPTgubkZL-56" value="" style="edgeStyle=orthogonalEdgeStyle;rounded=0;orthogonalLoop=1;jettySize=auto;html=1;" parent="1" source="QaiE9f9N_jXpPTgubkZL-48" target="QaiE9f9N_jXpPTgubkZL-51" edge="1">
          <mxGeometry relative="1" as="geometry" />
        </mxCell>
        <mxCell id="QaiE9f9N_jXpPTgubkZL-58" style="edgeStyle=orthogonalEdgeStyle;rounded=0;orthogonalLoop=1;jettySize=auto;html=1;" parent="1" source="QaiE9f9N_jXpPTgubkZL-48" target="QaiE9f9N_jXpPTgubkZL-57" edge="1">
          <mxGeometry relative="1" as="geometry">
            <Array as="points">
              <mxPoint x="220" y="760" />
            </Array>
          </mxGeometry>
        </mxCell>
        <mxCell id="QaiE9f9N_jXpPTgubkZL-48" value="com.dinotrackproject" style="swimlane;strokeWidth=3;strokeColor=#67AB9F;" parent="1" vertex="1">
          <mxGeometry x="60.5" y="616.25" width="170" height="90" as="geometry" />
        </mxCell>
        <mxCell id="QaiE9f9N_jXpPTgubkZL-60" style="edgeStyle=orthogonalEdgeStyle;rounded=0;orthogonalLoop=1;jettySize=auto;html=1;" parent="1" source="QaiE9f9N_jXpPTgubkZL-51" target="QaiE9f9N_jXpPTgubkZL-38" edge="1">
          <mxGeometry relative="1" as="geometry">
            <Array as="points">
              <mxPoint x="146" y="870" />
              <mxPoint x="243" y="870" />
            </Array>
          </mxGeometry>
        </mxCell>
        <mxCell id="QaiE9f9N_jXpPTgubkZL-61" style="edgeStyle=orthogonalEdgeStyle;rounded=0;orthogonalLoop=1;jettySize=auto;html=1;" parent="1" source="QaiE9f9N_jXpPTgubkZL-51" target="QaiE9f9N_jXpPTgubkZL-41" edge="1">
          <mxGeometry relative="1" as="geometry">
            <Array as="points">
              <mxPoint x="146" y="860" />
              <mxPoint x="371" y="860" />
            </Array>
          </mxGeometry>
        </mxCell>
        <mxCell id="QaiE9f9N_jXpPTgubkZL-51" value="" style="outlineConnect=0;dashed=0;verticalLabelPosition=bottom;verticalAlign=top;align=center;html=1;shape=mxgraph.aws3.cache_node;fillColor=#63BCE3;gradientColor=none;shadow=1;" parent="1" vertex="1">
          <mxGeometry x="115.5" y="750" width="60" height="63" as="geometry" />
        </mxCell>
        <mxCell id="QaiE9f9N_jXpPTgubkZL-52" value="&amp;lt;&amp;lt;Location&amp;gt;&amp;gt;&lt;br&gt;&lt;span style=&quot;white-space: pre;&quot;&gt;flutter_background_geolocation&lt;/span&gt;" style="shape=folder;tabWidth=80;tabHeight=20;tabPosition=left;html=1;whiteSpace=wrap;align=center;" parent="1" vertex="1">
          <mxGeometry x="360" y="624.37" width="190" height="73.75" as="geometry" />
        </mxCell>
        <mxCell id="QaiE9f9N_jXpPTgubkZL-57" value="Shared Preferences" style="shadow=1;dashed=0;html=1;strokeColor=none;fillColor=#8DB5E3;labelPosition=center;verticalLabelPosition=bottom;verticalAlign=top;align=center;outlineConnect=0;shape=mxgraph.veeam.shared_folder;" parent="1" vertex="1">
          <mxGeometry x="414" y="730" width="55.2" height="64" as="geometry" />
        </mxCell>
        <mxCell id="QaiE9f9N_jXpPTgubkZL-63" style="edgeStyle=orthogonalEdgeStyle;rounded=0;orthogonalLoop=1;jettySize=auto;html=1;" parent="1" source="QaiE9f9N_jXpPTgubkZL-48" target="QaiE9f9N_jXpPTgubkZL-39" edge="1">
          <mxGeometry relative="1" as="geometry">
            <Array as="points">
              <mxPoint x="80" y="860" />
              <mxPoint x="126" y="860" />
            </Array>
          </mxGeometry>
        </mxCell>
        <mxCell id="-oDh_E2RRcb3K_V0vtgw-2" value="" style="rounded=0;whiteSpace=wrap;html=1;" parent="1" vertex="1">
          <mxGeometry x="10" y="1080" width="930" height="480" as="geometry" />
        </mxCell>
        <mxCell id="-oDh_E2RRcb3K_V0vtgw-3" value="&lt;font color=&quot;#aba6a6&quot; style=&quot;font-size: 15px;&quot;&gt;Firebase&lt;/font&gt;" style="html=1;dashed=0;whiteSpace=wrap;labelPosition=center;verticalLabelPosition=bottom;align=center;verticalAlign=top;horizontal=1;strokeColor=#FF8000;strokeWidth=3;" parent="1" vertex="1">
          <mxGeometry x="30" y="1400" width="890" height="122.5" as="geometry" />
        </mxCell>
        <mxCell id="-oDh_E2RRcb3K_V0vtgw-4" value="Firestore&lt;div&gt;Database&lt;/div&gt;" style="sketch=0;html=1;verticalAlign=top;labelPosition=center;verticalLabelPosition=bottom;align=center;spacingTop=-6;fontSize=11;fontStyle=1;fontColor=#999999;shape=image;aspect=fixed;imageAspect=0;image=data:image/svg+xml,PHN2ZyB4bWxucz0iaHR0cDovL3d3dy53My5vcmcvMjAwMC9zdmciIHhtbG5zOnY9Imh0dHBzOi8vdmVjdGEuaW8vbmFubyIgd2lkdGg9IjMyMy45MDU2MTAzOTg2NzUxNSIgaGVpZ2h0PSIzNzYuNDIyMjk0OTYzNjg0MDciIHZpZXdCb3g9Ii0wLjA5NzAwMDAwMjg2MTAyMjk1IDAuMjg3OTk5OTg3NjAyMjMzOSA4NS42OTk5OTY5NDgyNDIxOSA5OS41OTUwMDEyMjA3MDMxMiI+JiN4YTs8c3R5bGUgdHlwZT0idGV4dC9jc3MiPiYjeGE7CS5zdDB7ZmlsbDojYWVjYmZhO30mI3hhOwkuc3Qxe2ZpbGw6IzY2OWRmNjt9JiN4YTsJLnN0MntmaWxsOiM0Mjg1ZjQ7fSYjeGE7PC9zdHlsZT4mI3hhOwk8cGF0aCBjbGFzcz0ic3QwIiBkPSJNLS4wOTcgNzUuODE1VjU1Ljg3NGw0Mi44NS0yMC4xODN2MTkuMDd6bTAtMzUuNDAzVjIwLjQ3MUw0Mi43NTMuMjg4djE5LjA3eiIvPiYjeGE7CTxwYXRoIGNsYXNzPSJzdDEiIGQ9Ik04NS42MDMgNzUuODE1VjU1Ljg3NGwtNDIuODUtMjAuMTgzdjE5LjA3em0wLTM1LjQwM1YyMC40NzFMNDIuNzUzLjI4OHYxOS4wN3oiLz4mI3hhOwk8cGF0aCBjbGFzcz0ic3QyIiBkPSJNNDIuNzUzIDgwLjMxNGwxNi4yMTctNy41MjUgMjEuMDg0IDkuNzE3LTM3LjMwMSAxNy4zNzd6Ii8+JiN4YTs8L3N2Zz4=;imageBorder=#B8B8B8;shadow=1;" parent="1" vertex="1">
          <mxGeometry x="298.5" y="1431.25" width="36" height="42" as="geometry" />
        </mxCell>
        <mxCell id="-oDh_E2RRcb3K_V0vtgw-5" value="" style="strokeColor=#dddddd;shadow=1;strokeWidth=1;rounded=1;absoluteArcSize=1;arcSize=2;" parent="1" vertex="1">
          <mxGeometry x="109" y="1431.25" width="100" height="60" as="geometry" />
        </mxCell>
        <mxCell id="-oDh_E2RRcb3K_V0vtgw-6" value="&lt;font style=&quot;font-size: 8px;&quot;&gt;Authentication&lt;/font&gt;" style="sketch=0;dashed=0;connectable=0;html=1;fillColor=#5184F3;strokeColor=none;shape=mxgraph.gcp2.firebase;part=1;labelPosition=right;verticalLabelPosition=middle;align=left;verticalAlign=middle;spacingLeft=5;fontColor=#999999;fontSize=12;" parent="-oDh_E2RRcb3K_V0vtgw-5" vertex="1">
          <mxGeometry width="32.4" height="45" relative="1" as="geometry">
            <mxPoint x="5" y="7" as="offset" />
          </mxGeometry>
        </mxCell>
        <mxCell id="-oDh_E2RRcb3K_V0vtgw-7" value="" style="shape=mxgraph.gcp2.doubleRect;strokeColor=#dddddd;shadow=1;strokeWidth=1;rounded=1;absoluteArcSize=1;arcSize=2;" parent="1" vertex="1">
          <mxGeometry x="400" y="1418.25" width="128" height="68" as="geometry" />
        </mxCell>
        <mxCell id="-oDh_E2RRcb3K_V0vtgw-8" value="&lt;font color=&quot;#000000&quot;&gt;Files&lt;/font&gt;&lt;br&gt;Storage" style="editableCssRules=.*;html=1;fontColor=#999999;shape=image;verticalLabelPosition=middle;verticalAlign=middle;labelPosition=right;align=left;spacingLeft=20;part=1;points=[];imageAspect=0;image=data:image/svg+xml,PHN2ZyB4bWxucz0iaHR0cDovL3d3dy53My5vcmcvMjAwMC9zdmciIHhtbG5zOnY9Imh0dHBzOi8vdmVjdGEuaW8vbmFubyIgd2lkdGg9IjIwIiBoZWlnaHQ9IjE2IiB2aWV3Qm94PSIwIDAgMjAgMTYiPiYjeGE7CTxzdHlsZSB0eXBlPSJ0ZXh0L2NzcyI+JiN4YTsJLnN0MHtmaWxsOiM0Mjg1ZjQ7fSYjeGE7CS5zdDF7ZmlsbDojNjY5ZGY2O30mI3hhOwkuc3Qye2ZpbGw6I2FlY2JmYTt9JiN4YTsJPC9zdHlsZT4mI3hhOwk8cGF0aCBjbGFzcz0ic3QwIiBkPSJNMTIgMTBIOEw2IDhoOHoiLz4mI3hhOwk8cGF0aCBjbGFzcz0ic3QyIiBkPSJNMTYgMkg0bDEtMmgxMHptMyAzSDFsMS0yaDE2eiIvPiYjeGE7CTxwYXRoIGNsYXNzPSJzdDEiIGQ9Ik0xNCA3bC0yIDNIOEw2IDdIMHY5aDIwVjd6Ii8+JiN4YTs8L3N2Zz4=;" parent="-oDh_E2RRcb3K_V0vtgw-7" vertex="1">
          <mxGeometry width="30" height="24" relative="1" as="geometry">
            <mxPoint x="15" y="18" as="offset" />
          </mxGeometry>
        </mxCell>
        <mxCell id="-oDh_E2RRcb3K_V0vtgw-9" value="" style="shape=image;verticalLabelPosition=bottom;labelBackgroundColor=default;verticalAlign=top;aspect=fixed;imageAspect=0;image=data:image/png,iVBORw0KGgoAAAANSUhEUgAAAUsAAACYCAMAAABatDuZAAABCFBMVEX///8AAAD4zFL4zVT4y1DnhzXzqD/zqkDzq0Hzpz7nhjWsrKz5+fnU1NQ5OTn09PS+vr7m5ualpaXhfzGenp5sbGx2dnYXFxfu7u6Xl5ff39+6urp8fHzwoz3ghDf1yVsyMjLQ0NAlJSVISEg+Pj6MjIxVVVUeHh7FxcW7u7tkZGRSUlKSkpI6OjoLCwvrnTvzpzH52HzojzdpaWn4yEL++O7yoSn75cb5023pljnxwEvy1aX1t1L3y4n99Ob3xH31uF72vm3748L51KH63bX64qX53I7868P87tjtmSr75rP3y5X53Zj88df1vnX548rjiCbwvYXzyXzvwV7wxnXwv1Lx0JLvuzuxhThQAAAOH0lEQVR4nO2deWPaOBrG7YRwxDYGFowxZIfL4BBKPA1Jt0dS2mRm0u1uszOdmX7/b7K6LRkHiyOQQ88fnaDIxv7lkd5XsuTRNCUlJSUlJSUlJSUlJSUlJSUlJSUlJSUlJSUlJSUlJSWlB9D7D5e7voTnorswF37d9UU8E12H+Xx4teureB76mMvnCx93fRXPQzPAMh/e7voynoXyULlPu76M56CrEMFUxtyA7jDL3GzXF/IMdINZ5sPPu76Sp6+vBcwy92HXV/L09SmXJ8a82fWlPHl9wCxzuVze3PW1PHGdk+4SsAyvd30xT1y3IUUJjHnOis8vP25+WGlLV7SfZBNBYTyHxU1xfArDTccib6I3JKvqemvDX74VXXMscznqxbuL9Zp8MKrxOoNoHF3XJQ9/oizhzAZDGdKJzFkhly1wTX5ZGbqoNiir4P/I6ImynOV4kZHk5zALtIYxAcuRw8mHhaWqbC/4NFme5wWWBTzF8QHYMpst5FYOP4Clt8ZVPU2WV6HAMhveaTAeQZTAmPPPLn759b8ypwUsrTWu6mmyfCOwBF6cadCWCGW2UIgb8+dpZirTi8qx5HIkMQliLBM6BXOuzJzPoHaSU70PBZTZ7MVnUJYlCmPT7T9n9venv0mcNomlPewa+Kdh91gzm4M2DevGoDupt50Oq4pYen5xWO+eVDji1rjXrte7gyZX1Ho1nAzbI8Nl31PpgdMVW+t0MivpsiCQBNF7dp4vZBlMYVYTotzP/CJx2kSWul7BP+l6s9zVaYpk1Wm0H1E3QZYtlgSUSKnXi/KCMimLalErl+IFW9NMQAma9dHRLEKZDb9xdRHKvczPEqdNY1kFtzpoVOGHJoTYtDqVvq7XXVqhNdL1YiUIKpDfGBV64Keu3+wEVfB3qGPsAGW92vE6Ro2ia0CIJa9THep6b0UoK+oDzxL8c3R6enBUyFKchYvImAglYPkvidOmsQT3SbCVdVbVYHfP27EDfjxGP/UmATmVQ/iWI152C/UFAfAsObOv647EpW5M5yGPEtry9PXB2yNqy0KhwJ4DEZR7exmJ4JPKsk9LgRtpe4UWrdAKUU7lgg+IkxsFlK5eT/waU9eH7AOA2dG2p9uQJwlt+fbg4OAUMCQoCxd3uCZu4FBTiawT3GSj1GRCtASWlFSHFUIN9CKtUI1Km8InpLGuu/g3IktDwNfVz9IvdWO6CaO+EvwH2fLg4DVu5QWkGarIXAlYSgTy2BgSNVeeJbOlTzyHFRDIulCqzfd8ZCxggd8I2c8A+5UI9MpbzI2+hhFKZktsTKqLNxrvStDG/51+XnCv9Ug66ud4lqwjOwHdW5kJsAlwBQFejYYazS57FpDXINBPAHU/YJ0EcGItOp17vN7oa0l9K3CuzB5hWyJjRpoJrgQsf00/L2prJhMq41n6tGI7NgmiG7iCEDWoeYMBVxFRsnFJd1D1yFfEtM7oa0nNaF6Z420JjBnBPPpyI6CUCuRpsYdNZLb1Sb/IqbuA5RhSOxlA9ZnjOj75cwxM9BXDV8LptscSzWxglDSIH8SMCZKkfa6BQ+2nB3JplqCNJxye2MZBB9CnTbbJt17XMs4ATBi2uttNg3hdXUS2zHK2PDh8e8RQ/rS/L7KUCOTSLMdcShQpMfa0uMJmvCeEjR10tSPp6eaN602YZa5EaXqko3tR7k3Tp4qkWVqJQz1d5x9nGDgnOtFPWFF1Lqq46JAm6XB3oGuR5dsIJTYmRbknaJoeyKVZwkhcYh9oRBaiRpm4dKS3uVOR2MOfHQKv85AN6Yd1G9BlAZNEKI94WyJjJrpSKpDLs3S5vLyiT1xSATAhk0EBzU8bzHN2m7A0dIMmkA7O0oHP6YGgU9jmgHwWoRRtiYx5D0qZQC7PEt193W8GTX8IwjRlWQX9X7taKlX7bG4DjA/1mlUueyCs9zBL6N+aEVhBtQgCOaoFp0rajVLQhDNIvS2m6nnWwGO9JWB5cJrYwCHLn1JPvARLzT1h2eDIphWqSXNuE1rikwGSFc3C6SNaq8uKtjnphh9QZNGznZgtDw4PXye7UiqQN7vduRGHPWzTueB2RfhNx2nXJ91XPsNfhBW8VnE4EeaCzUoPzvu2LK3T7eKu1WucgGOHr1rcMLx0Bk/XayQkCA8nNLOBZ4RiveXh4eE//pnsSrlAvqzM5DAxX5rw9CHhGcU9p3tA3TCWXJqOGzhFmcxSYkT+0gRnNogt473lIpR7mf/s+sofnz4V2JMJ0ZaLGrhcIH9xymcZylOe5GJXSgXyl6Zz+hj8iLdlOsq9jMxjipel2wtmy7fyDRyyfIBA/sT1OWT50OslXAlZqkAe09dw3pYSrgRNXAXyuD7C/rLA23Jxis5IZqTWG7wo4bUunC1lGngGwdzf9bU/NjFbLhN2iFQgF3QVokfgwJaHMZRprsyoQB7T3YVoS6kITiS1cPAF6TrkbSkddjBLmYWDL0iXITepsRxKFchjmhUKaFLjcAWUakQuKsQPGqXDjigVyDmdY5bElsuinKpXSnC6vaC2lGngcyxVIOd0c0FsmfJAIonkow/k3nY3UXwNmS1T5ytZjh5JYuHg7jTWpbcEb0TfqC2Xb+DpgdzQhwlPAo+3tU63Lb+NdSPK4zR9+bCDtb+QipH4oH+yLZbj+RXuD6oQzrXJPJBIZrl4vYGhJyxvhmtRt7QoxdriemAYxqEt0xv4PSgz0zeLzg5ZxhdGwVVY21yLvz29+XIKbbncaEc6kKN9FE2x7OzZsrz+Am0pPck2z3JhIAcsu/pEKOqAeCCytD0vjrbsiYuAXK8sVjHLnqvNqUyOYnt44z+YXsLiItvb0EqZ37+crpJXRlq43gCwDLjdElBtvVfhWNo+2lLabUSsqngVf9snPW2JbJuo0YVuQY0U8F1x2cdHgRN5dHVdiW6ZOoZ7qjwH1egJ7YScfFRCSzeXhBfTDNhydVdmUh5TAJamIyxFh7ubOJbB3LYRexIV1WDBKPo8gYdF+3n5KO1HhUGZnizgoNpjVmHAjnKjvTAnpi9ssFpBR6cHK+WVUSNfFMgBOdfmL96GgKJ9YLA/HVumaUEUeMcouDunY2t2pzFEKy5but4vuaB1Gj28OQLet+HZNjqGWhW6q9UpuxbcvFtNYgn+pKNjr9wZ82s0oZErll3ugN/2nTVZXn15vU4Dz6Q8poAs4Ytf6MZaSMaNWHrRDnC4kdzFt8+GKnCZps0lAiXURRp1muh0WCoOsPZp/9mKTM6zZBfhDmnLN7t0rTH4fujQ9VjefUlNhlK0cL0BYgmsRjfNeqhZMpavMD98M3hjVEPchqJZ3B9iTi3SfYDTDk2+NIkl21rQoVuwfL4rt+vrsrz531oNHLJctN4As+ywjq2nd7WIpScMSxqoNL7LxBM28MYUENC+CHySxJJLc4s4tTDrQopRWpfl7wcrjXZ4LXpMgVnC8OGSy4X3TFlWBQ+66JcB11rRDesLdn+XSfJa5HaLawjtPEvuL0ICtheb+RiuyfLbmq7MLA7khKVLQvIERyHKEnT2QVAiCgK81wQu4x9VAwYZvkai75eEvLAcNA2oKmFZ56Kbxm0nD+aSI6Qx/v7jWPdxsibLP6Z7q4x2+Db+fcFjCsIStl8L/YuQUJZctoOFei+SPHYdcqMV8ssR3Ul2zG/qhSxBGiXMoHSSWHIjc9ybzO3gP1s3J7r7Pl2AMj3yvFv4emHKEjinCN2Ju3rKsqbXW7wcnEW7Rg2nkPSNGaVWkWSO5Gh94I+hfOLLIbetT7vHl/MsA36rmwZbxJosQfh5l1nVldMf7xefm7GEDZiNKyjL1v0DDROml+RNEUiWARt/GfUXrEN1CcueOCh15FiWxQlBe93Yg677OplmKsofl2lPIRlLlEzTWQ7Ksrko30FdgNAGKygbNMTXmTTJCbnQ4ibmRPMs4bCAi33VTbAEGfvldJ5mqin/lNrzzL0zh75dg7I0uRduJMiKTzGhAYvPmfmY1GB7TJF6siwNPlOy1s7VqW7/jNFM6yqn3+8kThuxhAzo7bJcfcy3MgPFFjdi0kH9GRd/UY5djYb35pDSBlDJy4u0cj953JPAEjaWXpld6aZYatpnMQilkPxL7sXhHEtzRIdr3HgcWGiAb8YmbxFydJ/cnYua4LE+ohRqiK3FhvduMeo24Ci73WiWDIBnUpFlabZRflBqNuAswGhjLDXtfdRtppB8915yLpdjySliacP22POrPkyP2jaZdO+1qkZjhKeBYIVurWFUnTqBeAb8AzfggggzmLBeIJpw6rmBLEv+PXBjbZMstfO/f2QkYKaHHKY0lthQXHKplWtR7ogafSP6TN6h4bAjXP71BaVRl2Sl7M0RDOGxwHLMfb/b6IEhZx9uQE1+58fKuvoDdZsLTSkRcpg6jpMwZ11yapGvzWarVxw43LsWS/6o1x+0mrROZ1w76fecKqvhjUf9Xg18th0naXzJulTLcTz6AzdwKjlOUrtqi6On9XX7fboo7MiFnB1rtcFgOZqA25g+/zW9P+Q81v+JCm9Pi4z+0+XyU1Kth3iFnvn+3TTJmvIhZ+sq6WesB4BzvZLLiAZcd2sIw6zNCQah+ZDz9+Ndawmj/ZlRdm0XPbnw04+Ago8o6n7g2raLHqE90EKuqz9jDX36x6P+3x1y77iVRglg9vnDHu4lmXffOZrT7499zapbJVwmtWXWvVgOecVJt/qgr5O4eTd97CFHkOl5VtJaghS5nmUlLVzYsK5/TIHSJtaUpGS+ub6+e6zBW0lJSUlJSUlJSUlJSUlJSUlJSUlJSUlJSUlJSUlJSUlJSUlJSUlJSUlJ6QXp/6FXZA5oCBbAAAAAAElFTkSuQmCC;imageBorder=#A3A3A3;shadow=1;" parent="1" vertex="1">
          <mxGeometry x="576" y="1431.25" width="130.65" height="60" as="geometry" />
        </mxCell>
        <mxCell id="-oDh_E2RRcb3K_V0vtgw-10" value="&lt;font color=&quot;#aba6a6&quot; style=&quot;font-size: 15px;&quot;&gt;Mobile&lt;/font&gt;" style="html=1;dashed=0;whiteSpace=wrap;labelPosition=center;verticalLabelPosition=top;align=center;verticalAlign=bottom;horizontal=1;strokeWidth=3;strokeColor=#7EA6E0;" parent="1" vertex="1">
          <mxGeometry x="37.75" y="1120" width="464.5" height="250" as="geometry" />
        </mxCell>
        <mxCell id="-oDh_E2RRcb3K_V0vtgw-11" style="edgeStyle=orthogonalEdgeStyle;rounded=0;orthogonalLoop=1;jettySize=auto;html=1;" parent="1" source="-oDh_E2RRcb3K_V0vtgw-9" target="-oDh_E2RRcb3K_V0vtgw-15" edge="1">
          <mxGeometry relative="1" as="geometry">
            <Array as="points">
              <mxPoint x="645" y="1340" />
              <mxPoint x="280" y="1340" />
            </Array>
          </mxGeometry>
        </mxCell>
        <mxCell id="-oDh_E2RRcb3K_V0vtgw-12" style="edgeStyle=orthogonalEdgeStyle;rounded=0;orthogonalLoop=1;jettySize=auto;html=1;" parent="1" source="-oDh_E2RRcb3K_V0vtgw-15" target="-oDh_E2RRcb3K_V0vtgw-19" edge="1">
          <mxGeometry relative="1" as="geometry">
            <mxPoint x="330" y="1190.63" as="sourcePoint" />
            <mxPoint x="467.6500000000001" y="1299.38" as="targetPoint" />
            <Array as="points">
              <mxPoint x="330" y="1256" />
            </Array>
          </mxGeometry>
        </mxCell>
        <mxCell id="-oDh_E2RRcb3K_V0vtgw-24" style="edgeStyle=orthogonalEdgeStyle;rounded=0;orthogonalLoop=1;jettySize=auto;html=1;" parent="1" source="-oDh_E2RRcb3K_V0vtgw-15" target="-oDh_E2RRcb3K_V0vtgw-5" edge="1">
          <mxGeometry relative="1" as="geometry">
            <Array as="points">
              <mxPoint x="190" y="1329" />
              <mxPoint x="160" y="1329" />
            </Array>
          </mxGeometry>
        </mxCell>
        <mxCell id="-oDh_E2RRcb3K_V0vtgw-25" style="edgeStyle=orthogonalEdgeStyle;rounded=0;orthogonalLoop=1;jettySize=auto;html=1;startArrow=classic;startFill=1;dashed=1;dashPattern=8 8;" parent="1" source="-oDh_E2RRcb3K_V0vtgw-15" target="-oDh_E2RRcb3K_V0vtgw-20" edge="1">
          <mxGeometry relative="1" as="geometry" />
        </mxCell>
        <mxCell id="-oDh_E2RRcb3K_V0vtgw-29" style="edgeStyle=orthogonalEdgeStyle;rounded=0;orthogonalLoop=1;jettySize=auto;html=1;" parent="1" source="-oDh_E2RRcb3K_V0vtgw-15" target="-oDh_E2RRcb3K_V0vtgw-26" edge="1">
          <mxGeometry relative="1" as="geometry" />
        </mxCell>
        <mxCell id="-oDh_E2RRcb3K_V0vtgw-32" style="edgeStyle=orthogonalEdgeStyle;rounded=0;orthogonalLoop=1;jettySize=auto;html=1;" parent="1" source="-oDh_E2RRcb3K_V0vtgw-15" target="-oDh_E2RRcb3K_V0vtgw-31" edge="1">
          <mxGeometry relative="1" as="geometry">
            <Array as="points">
              <mxPoint x="310" y="1320" />
              <mxPoint x="730" y="1320" />
              <mxPoint x="730" y="1461" />
            </Array>
          </mxGeometry>
        </mxCell>
        <mxCell id="-oDh_E2RRcb3K_V0vtgw-72" style="edgeStyle=orthogonalEdgeStyle;rounded=0;orthogonalLoop=1;jettySize=auto;html=1;" parent="1" source="-oDh_E2RRcb3K_V0vtgw-15" target="-oDh_E2RRcb3K_V0vtgw-18" edge="1">
          <mxGeometry relative="1" as="geometry">
            <Array as="points">
              <mxPoint x="250" y="1245" />
              <mxPoint x="235" y="1245" />
            </Array>
          </mxGeometry>
        </mxCell>
        <mxCell id="-oDh_E2RRcb3K_V0vtgw-15" value="com.dinotrackproject" style="swimlane;strokeWidth=3;strokeColor=#67AB9F;" parent="1" vertex="1">
          <mxGeometry x="173" y="1136.25" width="237" height="93.75" as="geometry">
            <mxRectangle x="63" y="1126.25" width="150" height="30" as="alternateBounds" />
          </mxGeometry>
        </mxCell>
        <mxCell id="-oDh_E2RRcb3K_V0vtgw-16" style="edgeStyle=orthogonalEdgeStyle;rounded=0;orthogonalLoop=1;jettySize=auto;html=1;flowAnimation=0;shadow=0;" parent="1" source="-oDh_E2RRcb3K_V0vtgw-18" target="-oDh_E2RRcb3K_V0vtgw-4" edge="1">
          <mxGeometry relative="1" as="geometry">
            <Array as="points">
              <mxPoint x="220" y="1390" />
              <mxPoint x="323" y="1390" />
            </Array>
          </mxGeometry>
        </mxCell>
        <mxCell id="-oDh_E2RRcb3K_V0vtgw-17" style="edgeStyle=orthogonalEdgeStyle;rounded=0;orthogonalLoop=1;jettySize=auto;html=1;" parent="1" source="-oDh_E2RRcb3K_V0vtgw-18" target="-oDh_E2RRcb3K_V0vtgw-7" edge="1">
          <mxGeometry relative="1" as="geometry">
            <Array as="points">
              <mxPoint x="250" y="1380" />
              <mxPoint x="470" y="1380" />
            </Array>
          </mxGeometry>
        </mxCell>
        <mxCell id="-oDh_E2RRcb3K_V0vtgw-18" value="" style="outlineConnect=0;dashed=0;verticalLabelPosition=bottom;verticalAlign=top;align=center;html=1;shape=mxgraph.aws3.cache_node;fillColor=#63BCE3;gradientColor=none;shadow=1;" parent="1" vertex="1">
          <mxGeometry x="205" y="1270" width="60" height="63" as="geometry" />
        </mxCell>
        <mxCell id="-oDh_E2RRcb3K_V0vtgw-19" value="&amp;lt;&amp;lt;Location&amp;gt;&amp;gt;&lt;br style=&quot;font-size: 9px;&quot;&gt;&lt;span style=&quot;white-space: pre; font-size: 9px;&quot;&gt;flutter_background_geolocation&lt;/span&gt;" style="shape=folder;tabWidth=50;tabHeight=10;tabPosition=left;html=1;whiteSpace=wrap;align=center;fontSize=9;" parent="1" vertex="1">
          <mxGeometry x="570" y="1230" width="130" height="60" as="geometry" />
        </mxCell>
        <mxCell id="-oDh_E2RRcb3K_V0vtgw-20" value="Shared Preferences" style="shadow=1;dashed=0;html=1;strokeColor=none;fillColor=#8DB5E3;labelPosition=center;verticalLabelPosition=bottom;verticalAlign=top;align=center;outlineConnect=0;shape=mxgraph.veeam.shared_folder;fontSize=10;" parent="1" vertex="1">
          <mxGeometry x="83.30000000000001" y="1260" width="55.7" height="41" as="geometry" />
        </mxCell>
        <mxCell id="-oDh_E2RRcb3K_V0vtgw-22" value="&lt;font color=&quot;#aba6a6&quot; style=&quot;font-size: 15px;&quot;&gt;Google Cloud Platform&lt;/font&gt;" style="html=1;dashed=0;whiteSpace=wrap;labelPosition=center;verticalLabelPosition=bottom;align=center;verticalAlign=top;horizontal=1;strokeColor=#9933FF;strokeWidth=3;" parent="1" vertex="1">
          <mxGeometry x="760" y="1120" width="150" height="230" as="geometry" />
        </mxCell>
        <mxCell id="-oDh_E2RRcb3K_V0vtgw-23" value="Maps SDK for Android" style="shape=image;html=1;verticalAlign=top;verticalLabelPosition=bottom;labelBackgroundColor=#ffffff;imageAspect=0;aspect=fixed;image=https://cdn2.iconfinder.com/data/icons/google-ios-7-app-icons/120/google_maps.png;opacity=30;" parent="1" vertex="1">
          <mxGeometry x="797" y="1143.25" width="76" height="76" as="geometry" />
        </mxCell>
        <mxCell id="-oDh_E2RRcb3K_V0vtgw-28" style="edgeStyle=orthogonalEdgeStyle;rounded=0;orthogonalLoop=1;jettySize=auto;html=1;" parent="1" source="-oDh_E2RRcb3K_V0vtgw-26" target="-oDh_E2RRcb3K_V0vtgw-23" edge="1">
          <mxGeometry relative="1" as="geometry" />
        </mxCell>
        <mxCell id="-oDh_E2RRcb3K_V0vtgw-26" value="&amp;lt;&amp;lt;Location&amp;gt;&amp;gt;&lt;br style=&quot;font-size: 9px;&quot;&gt;&lt;span style=&quot;white-space: pre; font-size: 9px;&quot;&gt;flutter_background_geolocation&lt;/span&gt;" style="shape=folder;tabWidth=50;tabHeight=10;tabPosition=left;html=1;whiteSpace=wrap;align=center;fontSize=9;" parent="1" vertex="1">
          <mxGeometry x="570" y="1151.25" width="130" height="60" as="geometry" />
        </mxCell>
        <mxCell id="-oDh_E2RRcb3K_V0vtgw-31" value="" style="shape=image;verticalLabelPosition=bottom;labelBackgroundColor=default;verticalAlign=top;aspect=fixed;imageAspect=0;image=data:image/png,iVBORw0KGgoAAAANSUhEUgAAAMgAAADICAMAAACahl6sAAABDlBMVEUAAAB1dXX/zTH/zTT/pxL2hREAAAD/qRj/yy3///88PDz4nBL1gw++vr76oRJ/f3/9oxHw7+///PfxfxGenp5ycnOQkZHe3t4WFhbOzs5ubm/+zzqvr6/ueg//pA3+9ufz8/P5+fn+5LP+zyx7eXX71Y+Kior1ihTl5eX+8txgYGBQUFD900j7xT78rCb96cS1tbX83qH3jhJwcnfxmCn4lxL8yi/+zn37yUP/sS//+vHFxcWnp6f97tL+vEvzoS/U1NT+tjz2kxL8yWqfkF/80VX51nf97cn74IeDfW6PhWf81ma7olD+wlv5vzuql1jNrkfbt0HzxzP7xS7kvTrqwzb7yDf4v2z2mA6zqphj6SxHAAAAAXRSTlMAQObYZgAADw1JREFUeNrsmdGKozAUQEO9JYRCkbwWKgSkCCXiwCARzOJIp0Lxef//TzY2Otcah3nbmGUPtH0+Pb03Wsl//hmytEhI+DChleoLRkInaymlUtckdISmBlkGn0Q0dEBnJGxYoeiASjkJGp5SS3MnQVOVYEVkGXaSrIUpSU5CRvSTiGwrEjBpM4lAI0i4sF5+idAm4Clhms4IOEmlgY4AQBPulGQN0AmgcbjXjrkRQUAFOyWFonMg2Ckp5Vwj4CStnHtQgIIECe9nHvatCrIJ17DwgDLIG5MEL1DGD6BisYIZL8rN36zkCxEwtIskWdso1bJtnzCFAopYESn4S7SSgkFs+x+j1tEw9PMkLFcwoPItJ2EaXjTMi45JMIi1O7dbTsJfRKyKQWdOEKOXb3jgkwbQwzBVEXwZxJBu+NI4RxHAIrMp4SbIRHPfbhJcWmCwNTCJDYJseEpK+eVhk+DiYosguJfXqbI68VesnXlYJpsieQZpYU75fZJEfD46b7893qPGqDChC05IJSQYfk7Cku4aRadHRvzA9TjmkwPq0OHbr1Ow/JSkEsYj2l0F8UOlgdoYyyLxsRGMpwpeoYKv9hC3aODUMeKFugEKThErcvyd1D0sKWviknS3XfTk4WlIhIIBt0gcHw8yLSkskSlfn49RxNOCLiUAFpmUbJDD4ZcEh7O+Oz3QI7p5EukpFkEZw9Fw+HiHFVInK3rsbnfiA6bxHBwtKAb52F+O4NLXiwde1130xbUgPqg0IPMig8fhbb//iMGBpi8e+Lt67t+O+CBvlkFgFuSy37+9g4vO5x7R3CM6+RFJ1TdBjMi7CWJMzuCCj+j46IEmn5x4QEtYCRI/gxiPgZUkZ3xE9xkteVTEA4quBTk+g1ysyCUGF3uWMN7tlh67W03+PkzRtSBHDGJEVqdEEENS4JzjtPvYv5y+FEERG8Tytra4+sqe566Il/2bAGCRtSDrU3I+xzIlSXeKXHZe1tYdHDDIhHsqnv8wZ7Y7iQNRGC5lyUIYlW+yAYeVQZGEFe0qCAquK64ronwEEu//SrZsW0/tObWjoYNvYvjjD548PafvDGYPG9z9beoEh76R2ngSMCF2fnt9mP9w9FCiMMxs4mzVoYUkbSEwJYjj65PFgUE2srbgvQ4BIfSU8FTK9OHPsYlDYiJgQmBKkp7n6gfJYYP80VSnx8EHNSEQA3wgDt35tFN60FTnjiMfTlv0xlYS6MNMtKl8be1/8fqwhCAOxgwe5ANASsrb1g0t5CyGQdg2Pee6/sIBJMpPu92VEXdsIcyLYf4Z3PZx7ucDorptJY7oCQEOCIslTR9yHEL1/s2ADkII+LA+DMtHNJBDj6vevxVaCHJhT8mZxwfweHOr+LaxQZQTrxDGnM9s7Hmb3lcoUcX7tyo1IY6Q7O4V7QMlLhTXxk6gEObmqDdpHzhCcW0cUEJ8fZw2owE+AETxIRE9WVDfCR+3uixHXNxoKpPgiCNpMIoj6+ND90tTU5kKJ4XQPmTmHJSorY1VjkbdoH1kT6lzlO6fklKQDveO+lmM4TFfPVdS7w8QoutKa+M1nhDsA3NgDBzR0hTG3bR8Vq+kD+xE5f7NoHehQfjYDfJBR2Vt7KErIMLHbvb0WmJfbbQ29lOe1WswzPHmvvoka6v6djlhkhx0hMK11UF3i5iDmg9dInGh8LQ7QL9PBfqQB1FZG7ukEOZ+Dz7hvatLccSFuku6hHdCgINZHGhfyXII00hT1drKZDgSAj7g/SHvQ4j2fD5frjKft5WtrV7fBuEgBDje3Uva8+ViNh1PJsNVJuPpLL2XUSKlss9RfUcckj7EfDEdD0f3kfxPJ5H78rdi+rsCLf1H7m6LHo6stI+4KWMxHtZWX96TwuVWMb0XtpaWVRm5S4jLR13eh1iORxGgcCefz10chi2lhScE9118TY0nfFwDCiIHx8VQnSSqjhD4OQT2VVN277ZnI4SBUC7SWnjpnaRASB3dM8j5EMsJwqBIyr/2tLDS23c/WAx8AEeAj/h/HRGpFI5Dk9K4cQlx93b5e5/2tAYcAdkpF7Vw0hiAkFfzUQ/qu8AxikindnB8qIWSfvelZdUZg3ufK+CABHBIkoTjpAUrK8Zc++pc1sfM5PgEJIkWt3+ifa6H7ANIyiE8XZkTDivr/T7EbCgNACQ75fVv4UqHO22ROfuK9KGTWUwiH8nO1tpBGo/cOeCyFw7pc217ep//EMnl2h+uuy7n1mWvGRbgAwsZvjEJuVwhV6j5Fa91P1wte0IMEwI4ZAvWP2bO/8dJGAzj7IzJEYO1TVsCYgYTkBnnMWNwEabEu82YM+qJnvr//yOWb1ZXGKspu3uS5bbLftgnz/u8fWkJHz/0YBCALZMpz0gPieLOpc8e1Akp3ejtVyc96p5MCGEvnOuVItBD4iBNbdN60Bgi5HwY5OtHv8sLigH7nbAG8ajdY0muqR0Z79+vDRHPcdjvHzDkgnQ0pMyyMjBxXAFEsERX2n3bA8O6rmT24R53JIQAgxHAGAyDUKgy7+s31TFC269Ww35wfe1Y0yuOksQQQAQZUOnIWBnScsgcGzz+8kGMetxEA0bDIE6kq9x5qBMicgh+CCCfJ0QoLBPpXAMg2EQKR8baEJGDY0hUFgGW1xIgF0ZR5O4BIYarrvvO7jGJ98mIfoj61hER4sA/Vpgxxo7pchBBGVTYfcvzqfr6XPbc4MuHDhDShNyzsF3qKQ5JLwiN1I2MP9j4XnK8fdaXD6nmS2y78sSN/cYIm3OMGZL1c5b0yo+TDj9kQQjFTKanoxQwDsI02SeSKwM5u/fzRemHBAdvWr4QkDbpZhkMH6dpNiH7QFJPWdP6+e7uI+6HFMjFDgjx/wQ9BYT4TvnOYET9il1VWZ+Vhsidf3CQyS6I2zYsg4GEZvkWhvYxQOYBSzpfP1SBsKgTH9efnH0gDlQVkR9PJOZ2KZAJrQsN73VEGcjbf/04ORzkdA8IKksLWFXsAZn4Tjh2aQUvOYfs+bnYtSYWakjyMhk0jUyLtS8SQiskZNQZJWDXHyc9HPIgBOcRk4t0mBFmBMWYshqzYx0yi0Ztv7Mf/3s/w+lp18peLohOhHSUU7aAELtc1gmNWGoMMBFRgLIFcTrbriQ5uCMds5Zt2yCFqBq1fJsw2T6u2zAjEbnVXZCg+fJyJe9H5clV19AYpm47+9IQAEDjqOlkBhVnLaipE1ovt9cSHJzme8f1iG/86VyuaaVparafeU7Ud1/uyua6nXclQBLef7uvEBGTzpXvDvSh8gNFxOorObhd8bT7RADJvQbCQ60zLZa1C5KNcPL+ermRyEcDctWx+ZBFFQCK2pryUthMxJk/YmVxzbeXKxkMpuTCF2pr4kSo5Mhi2ICEGazI8G5EgOVqo2gebO7IgLDa6og788T1TPz3TqMDPfYfYR3Bo91oo59tNw+HMdjfRuUpj0iCjRSzuuEgBKep2HtBrI0nNDu/PmRZb9W5iW2Tcj/egRzEZkvlwBaKcnnBp+RgjsffLpq4izjUqkGg3zf5aiNrulwlezm4OscUXjq5ZeUp77nCqj665q8KnoeufHB9/Uz6QIhdiRzfEC59GhR7/eDiZ1ZyynTtKNLX58WwH0wJ25K/FYe6vUJnHKXLD15c8hggs7SjSX89n31KBD8EJVefZS0BOHa1Ywq9DxanNQbnEEnEHix7R+D4mq6DVcI5lJAAbByRg/ev99tFM7j3qrj6RSU4Ule7Cenzs+31Po5iEayhmeEDyyqzjs7B+xerr16O6/PlWtfdPKYH9iuo3Zyms2CTdGNcLteomtEii4aDGDQ2Xe1G9fpsuxBRilXAH+rrmQYdwHByeONPadfny+2OK8Um+Pc5+FGeUer3hYM6VuRpt0BoPtsW/2T8PdJ3aKGZYup3Yhj57cCoUYLLVVHakhSb7XLaVSauacUZpoAzUIozx8rhrXqoOWIXw6tFsdicB3PU9x0Y5WlGQybAXtQwLBN6N56N3+2YsY4cIQyGp/oLJAshETAjmhRpmCJl2rxF3v9NshgTn2ZW2dXlIt2d+KXTGNYYf4BBuusL+f3Hr2+3C/fvXl9vNLd/NJafObybA7W0tLS0tLS0tLS0tLS09OHk/fbfFH2+NF6l6FTbVly57wO8KnJzgGvl714OdL9h0sweyIMniIN7O5DC4MP7g+s/gVAe/e4JED9NcvRmIMRIwwqvBrEOcvQUiOmtQAJbSv8MonoeJMs+Utlyop5M9Cn/ASkpFXWrXs3e60l7k4/BoqLZFBaSkq9B/aOYkmpJsU+kDRp2IMrkkIiCZDbnq2KS5nABMROOuBuJcdMxQIrDTa7PfEDNm9p0CTu6kq1knqaFJInIUW4CMcWzSuw4QaLWQ8LhIaKZZGUdFWRIegTC7PtYl7d8YBcQbnmjUXI+Sn/rc3WfWiWDPXSHOlPnbcpC5kY3Au6MBdw3oo+U2AnIChIYZUDVuSOaWQTHsJXaF3MPIZa7t1acIJB0A1jWnBF6Vzsd/ND77QTXsXN5Xi4khkpD2oT7y+VzY2jDriBqZvDsUPfAXE5F+wCk9sXWjfvSW9CDsmOf1aRTaiUcKJpVuA9SrV5S/y3CBStnHaGNIggJX04gyeqO5SQ+qhGM1JyI4UeXzRadntwtMzgFCazeukXlDKL8jQFoyrznuyByqKTKTiCHLUcFXHwOxMGp4gnkAHuiMUNuABc5O6oyUw9XEGK0SGkcXc9AvA8S0eYpNRC1VeQAF57bkXpd0YhD/myGXvaslfRSB+IVhFFmyoIClCuIFmBCPINoTEM5ngFJ2Ge31UhD0tD6UWtimwgcziBKUPtHS85fQcY80cn4a42YAvAEiF6CKgz4Ag66LgQYSDnlrTWWTyAFPPwNJN0HKXBoGjzarQVpGAg/BNEXq1WqexrvgIu0M2Lv526OW+vmcUgGDbwTxUabKhzoBUH+IDtaOCg6AUlHJC/0VxD56jImuFo1M00p9W3cqTr4RyBWTwDvApJdt6uso1geUR/5FoTbXm1VPAAdpCF/cneXlfTdlJvhLogfu6ZPuGRmKbltZOO3p0WUbSfFnpZ5vHCgcBqfx8+mQmaa91UN0WKIn02i37J9APX74DOoMmj7BHJA3D6DHNftUyhvS0tLS0vvX78BXCQ+YFT/FPIAAAAASUVORK5CYII=;" parent="1" vertex="1">
          <mxGeometry x="780" y="1416.25" width="90" height="90" as="geometry" />
        </mxCell>
        <mxCell id="-oDh_E2RRcb3K_V0vtgw-78" value="" style="rounded=0;whiteSpace=wrap;html=1;fontColor=#b1afaf;strokeColor=#bfbfbf;" parent="1" vertex="1">
          <mxGeometry x="20" y="1640" width="920" height="530" as="geometry" />
        </mxCell>
        <mxCell id="-oDh_E2RRcb3K_V0vtgw-79" value="&lt;font style=&quot;font-size: 10px;&quot;&gt;Firebase&lt;/font&gt;" style="html=1;dashed=0;whiteSpace=wrap;labelPosition=center;verticalLabelPosition=bottom;align=center;verticalAlign=top;horizontal=1;fontColor=#b1afaf;strokeColor=#FF8000;strokeWidth=3;" parent="1" vertex="1">
          <mxGeometry x="50" y="2071.54" width="409.7" height="60" as="geometry" />
        </mxCell>
        <mxCell id="z6QapoRPxAM7rQZNHAas-27" style="edgeStyle=orthogonalEdgeStyle;rounded=0;orthogonalLoop=1;jettySize=auto;html=1;" edge="1" parent="1" source="-oDh_E2RRcb3K_V0vtgw-80" target="-oDh_E2RRcb3K_V0vtgw-87">
          <mxGeometry relative="1" as="geometry" />
        </mxCell>
        <mxCell id="z6QapoRPxAM7rQZNHAas-29" style="edgeStyle=orthogonalEdgeStyle;rounded=0;orthogonalLoop=1;jettySize=auto;html=1;" edge="1" parent="1" source="-oDh_E2RRcb3K_V0vtgw-80" target="-oDh_E2RRcb3K_V0vtgw-89">
          <mxGeometry relative="1" as="geometry" />
        </mxCell>
        <mxCell id="-oDh_E2RRcb3K_V0vtgw-80" value="&lt;font color=&quot;#aba6a6&quot; style=&quot;font-size: 15px;&quot;&gt;Mobile&lt;/font&gt;" style="html=1;dashed=0;whiteSpace=wrap;labelPosition=center;verticalLabelPosition=top;align=center;verticalAlign=bottom;horizontal=1;strokeColor=#7EA6E0;strokeWidth=3;" parent="1" vertex="1">
          <mxGeometry x="30.35" y="1669" width="669.65" height="371" as="geometry" />
        </mxCell>
        <mxCell id="-oDh_E2RRcb3K_V0vtgw-85" value="com.dinotrackproject" style="swimlane;strokeColor=#67AB9F;strokeWidth=3;" parent="1" vertex="1">
          <mxGeometry x="56.7" y="1686.25" width="633.3" height="263.75" as="geometry" />
        </mxCell>
        <mxCell id="z6QapoRPxAM7rQZNHAas-25" value="" style="edgeStyle=orthogonalEdgeStyle;rounded=0;orthogonalLoop=1;jettySize=auto;html=1;" edge="1" parent="-oDh_E2RRcb3K_V0vtgw-85" source="-oDh_E2RRcb3K_V0vtgw-104" target="z6QapoRPxAM7rQZNHAas-12">
          <mxGeometry relative="1" as="geometry" />
        </mxCell>
        <mxCell id="-oDh_E2RRcb3K_V0vtgw-104" value="BLoC&lt;br&gt;&lt;br&gt;&lt;div&gt;Events&lt;br&gt;States&lt;br&gt;Bloc&lt;/div&gt;" style="shape=folder;tabWidth=75;tabHeight=5;tabPosition=left;html=1;whiteSpace=wrap;align=center;fontSize=9;" parent="-oDh_E2RRcb3K_V0vtgw-85" vertex="1">
          <mxGeometry x="14.3" y="145" width="85.7" height="70" as="geometry" />
        </mxCell>
        <mxCell id="-oDh_E2RRcb3K_V0vtgw-107" value="&lt;div&gt;&lt;br&gt;&lt;/div&gt;Themes&lt;div&gt;&lt;span style=&quot;white-space: pre;&quot;&gt;&#x9;&lt;/span&gt;.ligth&lt;br&gt;&lt;/div&gt;&lt;div&gt;&lt;span style=&quot;white-space: pre;&quot;&gt;&#x9;&lt;/span&gt;&amp;nbsp;.night&lt;br&gt;&lt;/div&gt;&lt;div&gt;&lt;span style=&quot;white-space: pre;&quot;&gt;&#x9;&lt;/span&gt;&amp;nbsp; &amp;nbsp; .system&lt;br&gt;&lt;/div&gt;" style="shape=folder;tabWidth=30;tabHeight=4;tabPosition=left;html=1;whiteSpace=wrap;align=center;fontSize=9;" parent="-oDh_E2RRcb3K_V0vtgw-85" vertex="1">
          <mxGeometry x="393.3" y="183.75" width="86.7" height="56.25" as="geometry" />
        </mxCell>
        <mxCell id="z6QapoRPxAM7rQZNHAas-9" value="" style="edgeStyle=orthogonalEdgeStyle;rounded=0;orthogonalLoop=1;jettySize=auto;html=1;" edge="1" parent="-oDh_E2RRcb3K_V0vtgw-85" source="-oDh_E2RRcb3K_V0vtgw-108" target="-oDh_E2RRcb3K_V0vtgw-107">
          <mxGeometry relative="1" as="geometry">
            <Array as="points">
              <mxPoint x="437" y="144" />
            </Array>
          </mxGeometry>
        </mxCell>
        <mxCell id="z6QapoRPxAM7rQZNHAas-18" value="" style="edgeStyle=orthogonalEdgeStyle;rounded=0;orthogonalLoop=1;jettySize=auto;html=1;" edge="1" parent="-oDh_E2RRcb3K_V0vtgw-85" source="-oDh_E2RRcb3K_V0vtgw-108" target="z6QapoRPxAM7rQZNHAas-17">
          <mxGeometry relative="1" as="geometry" />
        </mxCell>
        <mxCell id="-oDh_E2RRcb3K_V0vtgw-108" value="Pages&lt;div&gt;&lt;br&gt;&lt;div&gt;RoutePage()&lt;/div&gt;&lt;div&gt;MyMotoPage()&lt;/div&gt;&lt;div&gt;MotoShopPage()&lt;/div&gt;&lt;div&gt;NotificationPage()&lt;/div&gt;&lt;/div&gt;" style="shape=folder;tabWidth=50;tabHeight=10;tabPosition=left;html=1;whiteSpace=wrap;align=center;fontSize=9;" parent="-oDh_E2RRcb3K_V0vtgw-85" vertex="1">
          <mxGeometry x="493.3" y="39.75" width="96.7" height="112.25" as="geometry" />
        </mxCell>
        <mxCell id="-oDh_E2RRcb3K_V0vtgw-105" value="&amp;lt;&amp;lt;Location&amp;gt;&amp;gt;&lt;br style=&quot;font-size: 9px;&quot;&gt;&lt;span style=&quot;white-space: pre; font-size: 9px;&quot;&gt;flutter_background_geolocation&lt;/span&gt;" style="shape=folder;tabWidth=50;tabHeight=10;tabPosition=left;html=1;whiteSpace=wrap;align=center;fontSize=9;" parent="-oDh_E2RRcb3K_V0vtgw-85" vertex="1">
          <mxGeometry x="243.3" y="163.75" width="130" height="60" as="geometry" />
        </mxCell>
        <mxCell id="z6QapoRPxAM7rQZNHAas-12" value="PushMessage" style="shape=folder;tabWidth=47;tabHeight=6;tabPosition=left;html=1;whiteSpace=wrap;align=center;fontSize=9;" vertex="1" parent="-oDh_E2RRcb3K_V0vtgw-85">
          <mxGeometry x="113.3" y="160.5" width="76.7" height="39" as="geometry" />
        </mxCell>
        <mxCell id="z6QapoRPxAM7rQZNHAas-17" value="&lt;div&gt;&amp;lt;Controller&amp;gt;&lt;/div&gt;&lt;div&gt;FireBase&lt;/div&gt;&lt;div&gt;FireStore&lt;/div&gt;" style="shape=folder;tabWidth=30;tabHeight=4;tabPosition=left;html=1;whiteSpace=wrap;align=center;fontSize=9;" vertex="1" parent="-oDh_E2RRcb3K_V0vtgw-85">
          <mxGeometry x="498.3" y="183.75" width="86.7" height="56.25" as="geometry" />
        </mxCell>
        <mxCell id="-oDh_E2RRcb3K_V0vtgw-102" style="edgeStyle=orthogonalEdgeStyle;rounded=0;orthogonalLoop=1;jettySize=auto;html=1;startArrow=classic;startFill=1;" parent="1" source="-oDh_E2RRcb3K_V0vtgw-86" target="-oDh_E2RRcb3K_V0vtgw-85" edge="1">
          <mxGeometry relative="1" as="geometry">
            <Array as="points">
              <mxPoint x="156.7" y="1960" />
              <mxPoint x="156.7" y="1960" />
            </Array>
          </mxGeometry>
        </mxCell>
        <mxCell id="-oDh_E2RRcb3K_V0vtgw-86" value="" style="outlineConnect=0;dashed=0;verticalLabelPosition=bottom;verticalAlign=top;align=center;html=1;shape=mxgraph.aws3.cache_node;fillColor=#63BCE3;gradientColor=none;shadow=1;" parent="1" vertex="1">
          <mxGeometry x="139" y="1980" width="31.2" height="30" as="geometry" />
        </mxCell>
        <mxCell id="-oDh_E2RRcb3K_V0vtgw-87" value="&amp;lt;&amp;lt;Location&amp;gt;&amp;gt;&lt;br style=&quot;font-size: 9px;&quot;&gt;&lt;span style=&quot;white-space: pre; font-size: 9px;&quot;&gt;flutter_background_geolocation&lt;/span&gt;" style="shape=folder;tabWidth=50;tabHeight=10;tabPosition=left;html=1;whiteSpace=wrap;align=center;fontSize=9;" parent="1" vertex="1">
          <mxGeometry x="766.7" y="1774" width="130" height="60" as="geometry" />
        </mxCell>
        <mxCell id="z6QapoRPxAM7rQZNHAas-15" value="" style="edgeStyle=orthogonalEdgeStyle;rounded=0;orthogonalLoop=1;jettySize=auto;html=1;" edge="1" parent="1" source="-oDh_E2RRcb3K_V0vtgw-88" target="-oDh_E2RRcb3K_V0vtgw-85">
          <mxGeometry relative="1" as="geometry">
            <Array as="points">
              <mxPoint x="91" y="1970" />
              <mxPoint x="91" y="1970" />
            </Array>
          </mxGeometry>
        </mxCell>
        <mxCell id="-oDh_E2RRcb3K_V0vtgw-88" value="Shared &lt;br&gt;Preferences" style="shadow=1;dashed=0;html=1;strokeColor=none;fillColor=#8DB5E3;labelPosition=center;verticalLabelPosition=bottom;verticalAlign=top;align=center;outlineConnect=0;shape=mxgraph.veeam.shared_folder;fontSize=8;" parent="1" vertex="1">
          <mxGeometry x="75.5" y="1976" width="30.2" height="30" as="geometry" />
        </mxCell>
        <mxCell id="-oDh_E2RRcb3K_V0vtgw-89" value="&amp;lt;&amp;lt;Location&amp;gt;&amp;gt;&lt;br style=&quot;font-size: 9px;&quot;&gt;&lt;span style=&quot;white-space: pre; font-size: 9px;&quot;&gt;flutter_background_geolocation&lt;/span&gt;" style="shape=folder;tabWidth=50;tabHeight=10;tabPosition=left;html=1;whiteSpace=wrap;align=center;fontSize=9;" parent="1" vertex="1">
          <mxGeometry x="766.7" y="1701.25" width="130" height="60" as="geometry" />
        </mxCell>
        <mxCell id="-oDh_E2RRcb3K_V0vtgw-90" value="" style="strokeColor=none;shadow=0;strokeWidth=1;rounded=0;absoluteArcSize=1;arcSize=2;fillColor=none;" parent="1" vertex="1">
          <mxGeometry x="170.20000000000002" y="2077.74" width="87.7" height="40" as="geometry" />
        </mxCell>
        <mxCell id="-oDh_E2RRcb3K_V0vtgw-91" value="&lt;font style=&quot;font-size: 8px;&quot;&gt;Authentication&lt;/font&gt;" style="sketch=0;dashed=0;connectable=0;html=1;fillColor=#5184F3;strokeColor=none;shape=mxgraph.gcp2.firebase;part=1;labelPosition=right;verticalLabelPosition=middle;align=left;verticalAlign=middle;spacingLeft=5;fontColor=#999999;fontSize=12;" parent="-oDh_E2RRcb3K_V0vtgw-90" vertex="1">
          <mxGeometry width="20" height="30" relative="1" as="geometry">
            <mxPoint x="5" y="7" as="offset" />
          </mxGeometry>
        </mxCell>
        <mxCell id="-oDh_E2RRcb3K_V0vtgw-92" value="Firestore&lt;div style=&quot;font-size: 8px;&quot;&gt;Database&lt;/div&gt;" style="sketch=0;html=1;verticalAlign=top;labelPosition=center;verticalLabelPosition=bottom;align=center;spacingTop=-6;fontSize=8;fontStyle=1;fontColor=#999999;shape=image;aspect=fixed;imageAspect=0;image=data:image/svg+xml,PHN2ZyB4bWxucz0iaHR0cDovL3d3dy53My5vcmcvMjAwMC9zdmciIHhtbG5zOnY9Imh0dHBzOi8vdmVjdGEuaW8vbmFubyIgd2lkdGg9IjMyMy45MDU2MTAzOTg2NzUxNSIgaGVpZ2h0PSIzNzYuNDIyMjk0OTYzNjg0MDciIHZpZXdCb3g9Ii0wLjA5NzAwMDAwMjg2MTAyMjk1IDAuMjg3OTk5OTg3NjAyMjMzOSA4NS42OTk5OTY5NDgyNDIxOSA5OS41OTUwMDEyMjA3MDMxMiI+JiN4YTs8c3R5bGUgdHlwZT0idGV4dC9jc3MiPiYjeGE7CS5zdDB7ZmlsbDojYWVjYmZhO30mI3hhOwkuc3Qxe2ZpbGw6IzY2OWRmNjt9JiN4YTsJLnN0MntmaWxsOiM0Mjg1ZjQ7fSYjeGE7PC9zdHlsZT4mI3hhOwk8cGF0aCBjbGFzcz0ic3QwIiBkPSJNLS4wOTcgNzUuODE1VjU1Ljg3NGw0Mi44NS0yMC4xODN2MTkuMDd6bTAtMzUuNDAzVjIwLjQ3MUw0Mi43NTMuMjg4djE5LjA3eiIvPiYjeGE7CTxwYXRoIGNsYXNzPSJzdDEiIGQ9Ik04NS42MDMgNzUuODE1VjU1Ljg3NGwtNDIuODUtMjAuMTgzdjE5LjA3em0wLTM1LjQwM1YyMC40NzFMNDIuNzUzLjI4OHYxOS4wN3oiLz4mI3hhOwk8cGF0aCBjbGFzcz0ic3QyIiBkPSJNNDIuNzUzIDgwLjMxNGwxNi4yMTctNy41MjUgMjEuMDg0IDkuNzE3LTM3LjMwMSAxNy4zNzd6Ii8+JiN4YTs8L3N2Zz4=;imageBorder=none;shadow=0;" parent="1" vertex="1">
          <mxGeometry x="363.85" y="2080.35" width="19.01" height="22.18" as="geometry" />
        </mxCell>
        <mxCell id="-oDh_E2RRcb3K_V0vtgw-93" value="&lt;font style=&quot;font-size: 9px;&quot;&gt;&lt;font style=&quot;font-size: 9px;&quot; color=&quot;#000000&quot;&gt;Files&lt;/font&gt;&lt;br&gt;Storage&lt;/font&gt;" style="editableCssRules=.*;html=1;fontColor=#999999;shape=image;verticalLabelPosition=middle;verticalAlign=middle;labelPosition=right;align=left;spacingLeft=20;part=1;points=[];imageAspect=0;image=data:image/svg+xml,PHN2ZyB4bWxucz0iaHR0cDovL3d3dy53My5vcmcvMjAwMC9zdmciIHhtbG5zOnY9Imh0dHBzOi8vdmVjdGEuaW8vbmFubyIgd2lkdGg9IjIwIiBoZWlnaHQ9IjE2IiB2aWV3Qm94PSIwIDAgMjAgMTYiPiYjeGE7CTxzdHlsZSB0eXBlPSJ0ZXh0L2NzcyI+JiN4YTsJLnN0MHtmaWxsOiM0Mjg1ZjQ7fSYjeGE7CS5zdDF7ZmlsbDojNjY5ZGY2O30mI3hhOwkuc3Qye2ZpbGw6I2FlY2JmYTt9JiN4YTsJPC9zdHlsZT4mI3hhOwk8cGF0aCBjbGFzcz0ic3QwIiBkPSJNMTIgMTBIOEw2IDhoOHoiLz4mI3hhOwk8cGF0aCBjbGFzcz0ic3QyIiBkPSJNMTYgMkg0bDEtMmgxMHptMyAzSDFsMS0yaDE2eiIvPiYjeGE7CTxwYXRoIGNsYXNzPSJzdDEiIGQ9Ik0xNCA3bC0yIDNIOEw2IDdIMHY5aDIwVjd6Ii8+JiN4YTs8L3N2Zz4=;spacing=-8;" parent="1" vertex="1">
          <mxGeometry x="278.50000000000006" y="2084.63" width="20" height="20" as="geometry" />
        </mxCell>
        <mxCell id="z6QapoRPxAM7rQZNHAas-14" style="rounded=0;orthogonalLoop=1;jettySize=auto;html=1;edgeStyle=orthogonalEdgeStyle;" edge="1" parent="1" source="-oDh_E2RRcb3K_V0vtgw-94" target="z6QapoRPxAM7rQZNHAas-12">
          <mxGeometry relative="1" as="geometry">
            <Array as="points">
              <mxPoint x="110" y="2050" />
              <mxPoint x="200" y="2050" />
            </Array>
          </mxGeometry>
        </mxCell>
        <mxCell id="-oDh_E2RRcb3K_V0vtgw-94" value="" style="shape=image;verticalLabelPosition=bottom;labelBackgroundColor=default;verticalAlign=top;aspect=fixed;imageAspect=0;image=data:image/png,iVBORw0KGgoAAAANSUhEUgAAAUsAAACYCAMAAABatDuZAAABCFBMVEX///8AAAD4zFL4zVT4y1DnhzXzqD/zqkDzq0Hzpz7nhjWsrKz5+fnU1NQ5OTn09PS+vr7m5ualpaXhfzGenp5sbGx2dnYXFxfu7u6Xl5ff39+6urp8fHzwoz3ghDf1yVsyMjLQ0NAlJSVISEg+Pj6MjIxVVVUeHh7FxcW7u7tkZGRSUlKSkpI6OjoLCwvrnTvzpzH52HzojzdpaWn4yEL++O7yoSn75cb5023pljnxwEvy1aX1t1L3y4n99Ob3xH31uF72vm3748L51KH63bX64qX53I7868P87tjtmSr75rP3y5X53Zj88df1vnX548rjiCbwvYXzyXzvwV7wxnXwv1Lx0JLvuzuxhThQAAAOH0lEQVR4nO2deWPaOBrG7YRwxDYGFowxZIfL4BBKPA1Jt0dS2mRm0u1uszOdmX7/b7K6LRkHiyOQQ88fnaDIxv7lkd5XsuTRNCUlJSUlJSUlJSUlJSUlJSUlJSUlJSUlJSUlJSUlJSWlB9D7D5e7voTnorswF37d9UU8E12H+Xx4teureB76mMvnCx93fRXPQzPAMh/e7voynoXyULlPu76M56CrEMFUxtyA7jDL3GzXF/IMdINZ5sPPu76Sp6+vBcwy92HXV/L09SmXJ8a82fWlPHl9wCxzuVze3PW1PHGdk+4SsAyvd30xT1y3IUUJjHnOis8vP25+WGlLV7SfZBNBYTyHxU1xfArDTccib6I3JKvqemvDX74VXXMscznqxbuL9Zp8MKrxOoNoHF3XJQ9/oizhzAZDGdKJzFkhly1wTX5ZGbqoNiir4P/I6ImynOV4kZHk5zALtIYxAcuRw8mHhaWqbC/4NFme5wWWBTzF8QHYMpst5FYOP4Clt8ZVPU2WV6HAMhveaTAeQZTAmPPPLn759b8ypwUsrTWu6mmyfCOwBF6cadCWCGW2UIgb8+dpZirTi8qx5HIkMQliLBM6BXOuzJzPoHaSU70PBZTZ7MVnUJYlCmPT7T9n9venv0mcNomlPewa+Kdh91gzm4M2DevGoDupt50Oq4pYen5xWO+eVDji1rjXrte7gyZX1Ho1nAzbI8Nl31PpgdMVW+t0MivpsiCQBNF7dp4vZBlMYVYTotzP/CJx2kSWul7BP+l6s9zVaYpk1Wm0H1E3QZYtlgSUSKnXi/KCMimLalErl+IFW9NMQAma9dHRLEKZDb9xdRHKvczPEqdNY1kFtzpoVOGHJoTYtDqVvq7XXVqhNdL1YiUIKpDfGBV64Keu3+wEVfB3qGPsAGW92vE6Ro2ia0CIJa9THep6b0UoK+oDzxL8c3R6enBUyFKchYvImAglYPkvidOmsQT3SbCVdVbVYHfP27EDfjxGP/UmATmVQ/iWI152C/UFAfAsObOv647EpW5M5yGPEtry9PXB2yNqy0KhwJ4DEZR7exmJ4JPKsk9LgRtpe4UWrdAKUU7lgg+IkxsFlK5eT/waU9eH7AOA2dG2p9uQJwlt+fbg4OAUMCQoCxd3uCZu4FBTiawT3GSj1GRCtASWlFSHFUIN9CKtUI1Km8InpLGuu/g3IktDwNfVz9IvdWO6CaO+EvwH2fLg4DVu5QWkGarIXAlYSgTy2BgSNVeeJbOlTzyHFRDIulCqzfd8ZCxggd8I2c8A+5UI9MpbzI2+hhFKZktsTKqLNxrvStDG/51+XnCv9Ug66ud4lqwjOwHdW5kJsAlwBQFejYYazS57FpDXINBPAHU/YJ0EcGItOp17vN7oa0l9K3CuzB5hWyJjRpoJrgQsf00/L2prJhMq41n6tGI7NgmiG7iCEDWoeYMBVxFRsnFJd1D1yFfEtM7oa0nNaF6Z420JjBnBPPpyI6CUCuRpsYdNZLb1Sb/IqbuA5RhSOxlA9ZnjOj75cwxM9BXDV8LptscSzWxglDSIH8SMCZKkfa6BQ+2nB3JplqCNJxye2MZBB9CnTbbJt17XMs4ATBi2uttNg3hdXUS2zHK2PDh8e8RQ/rS/L7KUCOTSLMdcShQpMfa0uMJmvCeEjR10tSPp6eaN602YZa5EaXqko3tR7k3Tp4qkWVqJQz1d5x9nGDgnOtFPWFF1Lqq46JAm6XB3oGuR5dsIJTYmRbknaJoeyKVZwkhcYh9oRBaiRpm4dKS3uVOR2MOfHQKv85AN6Yd1G9BlAZNEKI94WyJjJrpSKpDLs3S5vLyiT1xSATAhk0EBzU8bzHN2m7A0dIMmkA7O0oHP6YGgU9jmgHwWoRRtiYx5D0qZQC7PEt193W8GTX8IwjRlWQX9X7taKlX7bG4DjA/1mlUueyCs9zBL6N+aEVhBtQgCOaoFp0rajVLQhDNIvS2m6nnWwGO9JWB5cJrYwCHLn1JPvARLzT1h2eDIphWqSXNuE1rikwGSFc3C6SNaq8uKtjnphh9QZNGznZgtDw4PXye7UiqQN7vduRGHPWzTueB2RfhNx2nXJ91XPsNfhBW8VnE4EeaCzUoPzvu2LK3T7eKu1WucgGOHr1rcMLx0Bk/XayQkCA8nNLOBZ4RiveXh4eE//pnsSrlAvqzM5DAxX5rw9CHhGcU9p3tA3TCWXJqOGzhFmcxSYkT+0gRnNogt473lIpR7mf/s+sofnz4V2JMJ0ZaLGrhcIH9xymcZylOe5GJXSgXyl6Zz+hj8iLdlOsq9jMxjipel2wtmy7fyDRyyfIBA/sT1OWT50OslXAlZqkAe09dw3pYSrgRNXAXyuD7C/rLA23Jxis5IZqTWG7wo4bUunC1lGngGwdzf9bU/NjFbLhN2iFQgF3QVokfgwJaHMZRprsyoQB7T3YVoS6kITiS1cPAF6TrkbSkddjBLmYWDL0iXITepsRxKFchjmhUKaFLjcAWUakQuKsQPGqXDjigVyDmdY5bElsuinKpXSnC6vaC2lGngcyxVIOd0c0FsmfJAIonkow/k3nY3UXwNmS1T5ytZjh5JYuHg7jTWpbcEb0TfqC2Xb+DpgdzQhwlPAo+3tU63Lb+NdSPK4zR9+bCDtb+QipH4oH+yLZbj+RXuD6oQzrXJPJBIZrl4vYGhJyxvhmtRt7QoxdriemAYxqEt0xv4PSgz0zeLzg5ZxhdGwVVY21yLvz29+XIKbbncaEc6kKN9FE2x7OzZsrz+Am0pPck2z3JhIAcsu/pEKOqAeCCytD0vjrbsiYuAXK8sVjHLnqvNqUyOYnt44z+YXsLiItvb0EqZ37+crpJXRlq43gCwDLjdElBtvVfhWNo+2lLabUSsqngVf9snPW2JbJuo0YVuQY0U8F1x2cdHgRN5dHVdiW6ZOoZ7qjwH1egJ7YScfFRCSzeXhBfTDNhydVdmUh5TAJamIyxFh7ubOJbB3LYRexIV1WDBKPo8gYdF+3n5KO1HhUGZnizgoNpjVmHAjnKjvTAnpi9ssFpBR6cHK+WVUSNfFMgBOdfmL96GgKJ9YLA/HVumaUEUeMcouDunY2t2pzFEKy5but4vuaB1Gj28OQLet+HZNjqGWhW6q9UpuxbcvFtNYgn+pKNjr9wZ82s0oZErll3ugN/2nTVZXn15vU4Dz6Q8poAs4Ytf6MZaSMaNWHrRDnC4kdzFt8+GKnCZps0lAiXURRp1muh0WCoOsPZp/9mKTM6zZBfhDmnLN7t0rTH4fujQ9VjefUlNhlK0cL0BYgmsRjfNeqhZMpavMD98M3hjVEPchqJZ3B9iTi3SfYDTDk2+NIkl21rQoVuwfL4rt+vrsrz531oNHLJctN4As+ywjq2nd7WIpScMSxqoNL7LxBM28MYUENC+CHySxJJLc4s4tTDrQopRWpfl7wcrjXZ4LXpMgVnC8OGSy4X3TFlWBQ+66JcB11rRDesLdn+XSfJa5HaLawjtPEvuL0ICtheb+RiuyfLbmq7MLA7khKVLQvIERyHKEnT2QVAiCgK81wQu4x9VAwYZvkai75eEvLAcNA2oKmFZ56Kbxm0nD+aSI6Qx/v7jWPdxsibLP6Z7q4x2+Db+fcFjCsIStl8L/YuQUJZctoOFei+SPHYdcqMV8ssR3Ul2zG/qhSxBGiXMoHSSWHIjc9ybzO3gP1s3J7r7Pl2AMj3yvFv4emHKEjinCN2Ju3rKsqbXW7wcnEW7Rg2nkPSNGaVWkWSO5Gh94I+hfOLLIbetT7vHl/MsA36rmwZbxJosQfh5l1nVldMf7xefm7GEDZiNKyjL1v0DDROml+RNEUiWARt/GfUXrEN1CcueOCh15FiWxQlBe93Yg677OplmKsofl2lPIRlLlEzTWQ7Ksrko30FdgNAGKygbNMTXmTTJCbnQ4ibmRPMs4bCAi33VTbAEGfvldJ5mqin/lNrzzL0zh75dg7I0uRduJMiKTzGhAYvPmfmY1GB7TJF6siwNPlOy1s7VqW7/jNFM6yqn3+8kThuxhAzo7bJcfcy3MgPFFjdi0kH9GRd/UY5djYb35pDSBlDJy4u0cj953JPAEjaWXpld6aZYatpnMQilkPxL7sXhHEtzRIdr3HgcWGiAb8YmbxFydJ/cnYua4LE+ohRqiK3FhvduMeo24Ci73WiWDIBnUpFlabZRflBqNuAswGhjLDXtfdRtppB8915yLpdjySliacP22POrPkyP2jaZdO+1qkZjhKeBYIVurWFUnTqBeAb8AzfggggzmLBeIJpw6rmBLEv+PXBjbZMstfO/f2QkYKaHHKY0lthQXHKplWtR7ogafSP6TN6h4bAjXP71BaVRl2Sl7M0RDOGxwHLMfb/b6IEhZx9uQE1+58fKuvoDdZsLTSkRcpg6jpMwZ11yapGvzWarVxw43LsWS/6o1x+0mrROZ1w76fecKqvhjUf9Xg18th0naXzJulTLcTz6AzdwKjlOUrtqi6On9XX7fboo7MiFnB1rtcFgOZqA25g+/zW9P+Q81v+JCm9Pi4z+0+XyU1Kth3iFnvn+3TTJmvIhZ+sq6WesB4BzvZLLiAZcd2sIw6zNCQah+ZDz9+Ndawmj/ZlRdm0XPbnw04+Ago8o6n7g2raLHqE90EKuqz9jDX36x6P+3x1y77iVRglg9vnDHu4lmXffOZrT7499zapbJVwmtWXWvVgOecVJt/qgr5O4eTd97CFHkOl5VtJaghS5nmUlLVzYsK5/TIHSJtaUpGS+ub6+e6zBW0lJSUlJSUlJSUlJSUlJSUlJSUlJSUlJSUlJSUlJSUlJSUlJSUlJSUlJ6QXp/6FXZA5oCBbAAAAAAElFTkSuQmCC;imageBorder=none;shadow=0;spacing=-1;" parent="1" vertex="1">
          <mxGeometry x="66.15000000000005" y="2076.44" width="90" height="41.3" as="geometry" />
        </mxCell>
        <mxCell id="-oDh_E2RRcb3K_V0vtgw-95" value="" style="shape=image;verticalLabelPosition=bottom;labelBackgroundColor=default;verticalAlign=top;aspect=fixed;imageAspect=0;image=data:image/png,iVBORw0KGgoAAAANSUhEUgAAAMgAAADICAMAAACahl6sAAABDlBMVEUAAAB1dXX/zTH/zTT/pxL2hREAAAD/qRj/yy3///88PDz4nBL1gw++vr76oRJ/f3/9oxHw7+///PfxfxGenp5ycnOQkZHe3t4WFhbOzs5ubm/+zzqvr6/ueg//pA3+9ufz8/P5+fn+5LP+zyx7eXX71Y+Kior1ihTl5eX+8txgYGBQUFD900j7xT78rCb96cS1tbX83qH3jhJwcnfxmCn4lxL8yi/+zn37yUP/sS//+vHFxcWnp6f97tL+vEvzoS/U1NT+tjz2kxL8yWqfkF/80VX51nf97cn74IeDfW6PhWf81ma7olD+wlv5vzuql1jNrkfbt0HzxzP7xS7kvTrqwzb7yDf4v2z2mA6zqphj6SxHAAAAAXRSTlMAQObYZgAADw1JREFUeNrsmdGKozAUQEO9JYRCkbwWKgSkCCXiwCARzOJIp0Lxef//TzY2Otcah3nbmGUPtH0+Pb03Wsl//hmytEhI+DChleoLRkInaymlUtckdISmBlkGn0Q0dEBnJGxYoeiASjkJGp5SS3MnQVOVYEVkGXaSrIUpSU5CRvSTiGwrEjBpM4lAI0i4sF5+idAm4Clhms4IOEmlgY4AQBPulGQN0AmgcbjXjrkRQUAFOyWFonMg2Ckp5Vwj4CStnHtQgIIECe9nHvatCrIJ17DwgDLIG5MEL1DGD6BisYIZL8rN36zkCxEwtIskWdso1bJtnzCFAopYESn4S7SSgkFs+x+j1tEw9PMkLFcwoPItJ2EaXjTMi45JMIi1O7dbTsJfRKyKQWdOEKOXb3jgkwbQwzBVEXwZxJBu+NI4RxHAIrMp4SbIRHPfbhJcWmCwNTCJDYJseEpK+eVhk+DiYosguJfXqbI68VesnXlYJpsieQZpYU75fZJEfD46b7893qPGqDChC05IJSQYfk7Cku4aRadHRvzA9TjmkwPq0OHbr1Ow/JSkEsYj2l0F8UOlgdoYyyLxsRGMpwpeoYKv9hC3aODUMeKFugEKThErcvyd1D0sKWviknS3XfTk4WlIhIIBt0gcHw8yLSkskSlfn49RxNOCLiUAFpmUbJDD4ZcEh7O+Oz3QI7p5EukpFkEZw9Fw+HiHFVInK3rsbnfiA6bxHBwtKAb52F+O4NLXiwde1130xbUgPqg0IPMig8fhbb//iMGBpi8e+Lt67t+O+CBvlkFgFuSy37+9g4vO5x7R3CM6+RFJ1TdBjMi7CWJMzuCCj+j46IEmn5x4QEtYCRI/gxiPgZUkZ3xE9xkteVTEA4quBTk+g1ysyCUGF3uWMN7tlh67W03+PkzRtSBHDGJEVqdEEENS4JzjtPvYv5y+FEERG8Tytra4+sqe566Il/2bAGCRtSDrU3I+xzIlSXeKXHZe1tYdHDDIhHsqnv8wZ7Y7iQNRGC5lyUIYlW+yAYeVQZGEFe0qCAquK64ronwEEu//SrZsW0/tObWjoYNvYvjjD548PafvDGYPG9z9beoEh76R2ngSMCF2fnt9mP9w9FCiMMxs4mzVoYUkbSEwJYjj65PFgUE2srbgvQ4BIfSU8FTK9OHPsYlDYiJgQmBKkp7n6gfJYYP80VSnx8EHNSEQA3wgDt35tFN60FTnjiMfTlv0xlYS6MNMtKl8be1/8fqwhCAOxgwe5ANASsrb1g0t5CyGQdg2Pee6/sIBJMpPu92VEXdsIcyLYf4Z3PZx7ucDorptJY7oCQEOCIslTR9yHEL1/s2ADkII+LA+DMtHNJBDj6vevxVaCHJhT8mZxwfweHOr+LaxQZQTrxDGnM9s7Hmb3lcoUcX7tyo1IY6Q7O4V7QMlLhTXxk6gEObmqDdpHzhCcW0cUEJ8fZw2owE+AETxIRE9WVDfCR+3uixHXNxoKpPgiCNpMIoj6+ND90tTU5kKJ4XQPmTmHJSorY1VjkbdoH1kT6lzlO6fklKQDveO+lmM4TFfPVdS7w8QoutKa+M1nhDsA3NgDBzR0hTG3bR8Vq+kD+xE5f7NoHehQfjYDfJBR2Vt7KErIMLHbvb0WmJfbbQ29lOe1WswzPHmvvoka6v6djlhkhx0hMK11UF3i5iDmg9dInGh8LQ7QL9PBfqQB1FZG7ukEOZ+Dz7hvatLccSFuku6hHdCgINZHGhfyXII00hT1drKZDgSAj7g/SHvQ4j2fD5frjKft5WtrV7fBuEgBDje3Uva8+ViNh1PJsNVJuPpLL2XUSKlss9RfUcckj7EfDEdD0f3kfxPJ5H78rdi+rsCLf1H7m6LHo6stI+4KWMxHtZWX96TwuVWMb0XtpaWVRm5S4jLR13eh1iORxGgcCefz10chi2lhScE9118TY0nfFwDCiIHx8VQnSSqjhD4OQT2VVN277ZnI4SBUC7SWnjpnaRASB3dM8j5EMsJwqBIyr/2tLDS23c/WAx8AEeAj/h/HRGpFI5Dk9K4cQlx93b5e5/2tAYcAdkpF7Vw0hiAkFfzUQ/qu8AxikindnB8qIWSfvelZdUZg3ufK+CABHBIkoTjpAUrK8Zc++pc1sfM5PgEJIkWt3+ifa6H7ANIyiE8XZkTDivr/T7EbCgNACQ75fVv4UqHO22ROfuK9KGTWUwiH8nO1tpBGo/cOeCyFw7pc217ep//EMnl2h+uuy7n1mWvGRbgAwsZvjEJuVwhV6j5Fa91P1wte0IMEwI4ZAvWP2bO/8dJGAzj7IzJEYO1TVsCYgYTkBnnMWNwEabEu82YM+qJnvr//yOWb1ZXGKspu3uS5bbLftgnz/u8fWkJHz/0YBCALZMpz0gPieLOpc8e1Akp3ejtVyc96p5MCGEvnOuVItBD4iBNbdN60Bgi5HwY5OtHv8sLigH7nbAG8ajdY0muqR0Z79+vDRHPcdjvHzDkgnQ0pMyyMjBxXAFEsERX2n3bA8O6rmT24R53JIQAgxHAGAyDUKgy7+s31TFC269Ww35wfe1Y0yuOksQQQAQZUOnIWBnScsgcGzz+8kGMetxEA0bDIE6kq9x5qBMicgh+CCCfJ0QoLBPpXAMg2EQKR8baEJGDY0hUFgGW1xIgF0ZR5O4BIYarrvvO7jGJ98mIfoj61hER4sA/Vpgxxo7pchBBGVTYfcvzqfr6XPbc4MuHDhDShNyzsF3qKQ5JLwiN1I2MP9j4XnK8fdaXD6nmS2y78sSN/cYIm3OMGZL1c5b0yo+TDj9kQQjFTKanoxQwDsI02SeSKwM5u/fzRemHBAdvWr4QkDbpZhkMH6dpNiH7QFJPWdP6+e7uI+6HFMjFDgjx/wQ9BYT4TvnOYET9il1VWZ+Vhsidf3CQyS6I2zYsg4GEZvkWhvYxQOYBSzpfP1SBsKgTH9efnH0gDlQVkR9PJOZ2KZAJrQsN73VEGcjbf/04ORzkdA8IKksLWFXsAZn4Tjh2aQUvOYfs+bnYtSYWakjyMhk0jUyLtS8SQiskZNQZJWDXHyc9HPIgBOcRk4t0mBFmBMWYshqzYx0yi0Ztv7Mf/3s/w+lp18peLohOhHSUU7aAELtc1gmNWGoMMBFRgLIFcTrbriQ5uCMds5Zt2yCFqBq1fJsw2T6u2zAjEbnVXZCg+fJyJe9H5clV19AYpm47+9IQAEDjqOlkBhVnLaipE1ovt9cSHJzme8f1iG/86VyuaaVparafeU7Ud1/uyua6nXclQBLef7uvEBGTzpXvDvSh8gNFxOorObhd8bT7RADJvQbCQ60zLZa1C5KNcPL+ermRyEcDctWx+ZBFFQCK2pryUthMxJk/YmVxzbeXKxkMpuTCF2pr4kSo5Mhi2ICEGazI8G5EgOVqo2gebO7IgLDa6og788T1TPz3TqMDPfYfYR3Bo91oo59tNw+HMdjfRuUpj0iCjRSzuuEgBKep2HtBrI0nNDu/PmRZb9W5iW2Tcj/egRzEZkvlwBaKcnnBp+RgjsffLpq4izjUqkGg3zf5aiNrulwlezm4OscUXjq5ZeUp77nCqj665q8KnoeufHB9/Uz6QIhdiRzfEC59GhR7/eDiZ1ZyynTtKNLX58WwH0wJ25K/FYe6vUJnHKXLD15c8hggs7SjSX89n31KBD8EJVefZS0BOHa1Ywq9DxanNQbnEEnEHix7R+D4mq6DVcI5lJAAbByRg/ev99tFM7j3qrj6RSU4Ule7Cenzs+31Po5iEayhmeEDyyqzjs7B+xerr16O6/PlWtfdPKYH9iuo3Zyms2CTdGNcLteomtEii4aDGDQ2Xe1G9fpsuxBRilXAH+rrmQYdwHByeONPadfny+2OK8Um+Pc5+FGeUer3hYM6VuRpt0BoPtsW/2T8PdJ3aKGZYup3Yhj57cCoUYLLVVHakhSb7XLaVSauacUZpoAzUIozx8rhrXqoOWIXw6tFsdicB3PU9x0Y5WlGQybAXtQwLBN6N56N3+2YsY4cIQyGp/oLJAshETAjmhRpmCJl2rxF3v9NshgTn2ZW2dXlIt2d+KXTGNYYf4BBuusL+f3Hr2+3C/fvXl9vNLd/NJafObybA7W0tLS0tLS0tLS0tLS09OHk/fbfFH2+NF6l6FTbVly57wO8KnJzgGvl714OdL9h0sweyIMniIN7O5DC4MP7g+s/gVAe/e4JED9NcvRmIMRIwwqvBrEOcvQUiOmtQAJbSv8MonoeJMs+Utlyop5M9Cn/ASkpFXWrXs3e60l7k4/BoqLZFBaSkq9B/aOYkmpJsU+kDRp2IMrkkIiCZDbnq2KS5nABMROOuBuJcdMxQIrDTa7PfEDNm9p0CTu6kq1knqaFJInIUW4CMcWzSuw4QaLWQ8LhIaKZZGUdFWRIegTC7PtYl7d8YBcQbnmjUXI+Sn/rc3WfWiWDPXSHOlPnbcpC5kY3Au6MBdw3oo+U2AnIChIYZUDVuSOaWQTHsJXaF3MPIZa7t1acIJB0A1jWnBF6Vzsd/ND77QTXsXN5Xi4khkpD2oT7y+VzY2jDriBqZvDsUPfAXE5F+wCk9sXWjfvSW9CDsmOf1aRTaiUcKJpVuA9SrV5S/y3CBStnHaGNIggJX04gyeqO5SQ+qhGM1JyI4UeXzRadntwtMzgFCazeukXlDKL8jQFoyrznuyByqKTKTiCHLUcFXHwOxMGp4gnkAHuiMUNuABc5O6oyUw9XEGK0SGkcXc9AvA8S0eYpNRC1VeQAF57bkXpd0YhD/myGXvaslfRSB+IVhFFmyoIClCuIFmBCPINoTEM5ngFJ2Ge31UhD0tD6UWtimwgcziBKUPtHS85fQcY80cn4a42YAvAEiF6CKgz4Ag66LgQYSDnlrTWWTyAFPPwNJN0HKXBoGjzarQVpGAg/BNEXq1WqexrvgIu0M2Lv526OW+vmcUgGDbwTxUabKhzoBUH+IDtaOCg6AUlHJC/0VxD56jImuFo1M00p9W3cqTr4RyBWTwDvApJdt6uso1geUR/5FoTbXm1VPAAdpCF/cneXlfTdlJvhLogfu6ZPuGRmKbltZOO3p0WUbSfFnpZ5vHCgcBqfx8+mQmaa91UN0WKIn02i37J9APX74DOoMmj7BHJA3D6DHNftUyhvS0tLS0vvX78BXCQ+YFT/FPIAAAAASUVORK5CYII=;" parent="1" vertex="1">
          <mxGeometry x="404.8499999999999" y="2071.44" width="50" height="50" as="geometry" />
        </mxCell>
        <mxCell id="-oDh_E2RRcb3K_V0vtgw-96" value="&lt;font style=&quot;font-size: 9px;&quot;&gt;Google &lt;br&gt;Cloud Platform&lt;/font&gt;" style="html=1;dashed=0;whiteSpace=wrap;labelPosition=center;verticalLabelPosition=bottom;align=center;verticalAlign=top;horizontal=1;spacing=-4;spacingTop=0;spacingBottom=-4;fontColor=#b1afaf;strokeColor=#9933FF;strokeWidth=3;" parent="1" vertex="1">
          <mxGeometry x="490" y="2071" width="109.7" height="60" as="geometry" />
        </mxCell>
        <mxCell id="-oDh_E2RRcb3K_V0vtgw-97" value="Maps SDK &lt;br&gt;for Android" style="shape=image;html=1;verticalAlign=middle;verticalLabelPosition=middle;labelBackgroundColor=#ffffff;imageAspect=0;aspect=fixed;image=https://cdn2.iconfinder.com/data/icons/google-ios-7-app-icons/120/google_maps.png;opacity=30;fontSize=7;labelPosition=right;align=left;" parent="1" vertex="1">
          <mxGeometry x="510" y="2086.7200000000003" width="28.56" height="28.56" as="geometry" />
        </mxCell>
        <mxCell id="z6QapoRPxAM7rQZNHAas-3" value="" style="edgeStyle=orthogonalEdgeStyle;rounded=0;orthogonalLoop=1;jettySize=auto;html=1;" edge="1" parent="1" source="-oDh_E2RRcb3K_V0vtgw-106" target="-oDh_E2RRcb3K_V0vtgw-104">
          <mxGeometry relative="1" as="geometry" />
        </mxCell>
        <mxCell id="z6QapoRPxAM7rQZNHAas-8" style="edgeStyle=orthogonalEdgeStyle;rounded=0;orthogonalLoop=1;jettySize=auto;html=1;" edge="1" parent="1" source="-oDh_E2RRcb3K_V0vtgw-106" target="-oDh_E2RRcb3K_V0vtgw-105">
          <mxGeometry relative="1" as="geometry">
            <Array as="points">
              <mxPoint x="160" y="1800" />
              <mxPoint x="280" y="1800" />
              <mxPoint x="280" y="1870" />
            </Array>
          </mxGeometry>
        </mxCell>
        <mxCell id="z6QapoRPxAM7rQZNHAas-16" style="edgeStyle=orthogonalEdgeStyle;rounded=0;orthogonalLoop=1;jettySize=auto;html=1;" edge="1" parent="1" source="-oDh_E2RRcb3K_V0vtgw-106" target="-oDh_E2RRcb3K_V0vtgw-108">
          <mxGeometry relative="1" as="geometry">
            <Array as="points">
              <mxPoint x="460" y="1750" />
              <mxPoint x="460" y="1750" />
            </Array>
          </mxGeometry>
        </mxCell>
        <mxCell id="-oDh_E2RRcb3K_V0vtgw-106" value="&lt;div&gt;&lt;br&gt;&lt;/div&gt;main" style="shape=folder;tabWidth=50;tabHeight=10;tabPosition=left;html=1;whiteSpace=wrap;align=center;fontSize=9;" parent="1" vertex="1">
          <mxGeometry x="82.01" y="1730" width="107.99" height="40" as="geometry" />
        </mxCell>
        <mxCell id="z6QapoRPxAM7rQZNHAas-10" value="&lt;div&gt;&lt;br&gt;&lt;/div&gt;Models&lt;div&gt;&lt;br&gt;&lt;div&gt;User&lt;/div&gt;&lt;/div&gt;&lt;div&gt;Moto&lt;/div&gt;&lt;div&gt;Desplazamientos&lt;/div&gt;&lt;div&gt;Notificaciones&lt;/div&gt;" style="shape=folder;tabWidth=50;tabHeight=10;tabPosition=left;html=1;whiteSpace=wrap;align=center;fontSize=9;" vertex="1" parent="1">
          <mxGeometry x="360" y="1761" width="90.93" height="86" as="geometry" />
        </mxCell>
        <mxCell id="z6QapoRPxAM7rQZNHAas-11" value="" style="edgeStyle=orthogonalEdgeStyle;rounded=0;orthogonalLoop=1;jettySize=auto;html=1;" edge="1" parent="1" source="-oDh_E2RRcb3K_V0vtgw-108" target="z6QapoRPxAM7rQZNHAas-10">
          <mxGeometry relative="1" as="geometry" />
        </mxCell>
        <mxCell id="z6QapoRPxAM7rQZNHAas-19" style="rounded=0;orthogonalLoop=1;jettySize=auto;html=1;entryX=0.368;entryY=0.39;entryDx=0;entryDy=0;entryPerimeter=0;edgeStyle=orthogonalEdgeStyle;" edge="1" parent="1" source="z6QapoRPxAM7rQZNHAas-17" target="-oDh_E2RRcb3K_V0vtgw-92">
          <mxGeometry relative="1" as="geometry">
            <Array as="points">
              <mxPoint x="598" y="2000" />
              <mxPoint x="371" y="2000" />
            </Array>
          </mxGeometry>
        </mxCell>
        <mxCell id="z6QapoRPxAM7rQZNHAas-20" style="edgeStyle=orthogonalEdgeStyle;rounded=0;orthogonalLoop=1;jettySize=auto;html=1;" edge="1" parent="1" source="z6QapoRPxAM7rQZNHAas-17" target="-oDh_E2RRcb3K_V0vtgw-93">
          <mxGeometry relative="1" as="geometry">
            <Array as="points">
              <mxPoint x="598" y="2000" />
              <mxPoint x="288" y="2000" />
            </Array>
          </mxGeometry>
        </mxCell>
        <mxCell id="z6QapoRPxAM7rQZNHAas-22" style="edgeStyle=orthogonalEdgeStyle;rounded=0;orthogonalLoop=1;jettySize=auto;html=1;" edge="1" parent="1" source="-oDh_E2RRcb3K_V0vtgw-95">
          <mxGeometry relative="1" as="geometry">
            <mxPoint x="430" y="2040" as="targetPoint" />
            <Array as="points">
              <mxPoint x="429" y="2060" />
              <mxPoint x="430" y="2060" />
            </Array>
          </mxGeometry>
        </mxCell>
        <mxCell id="z6QapoRPxAM7rQZNHAas-23" style="edgeStyle=orthogonalEdgeStyle;rounded=0;orthogonalLoop=1;jettySize=auto;html=1;entryX=1;entryY=0.5;entryDx=0;entryDy=0;" edge="1" parent="1" source="-oDh_E2RRcb3K_V0vtgw-108" target="-oDh_E2RRcb3K_V0vtgw-96">
          <mxGeometry relative="1" as="geometry">
            <Array as="points">
              <mxPoint x="660" y="1782" />
              <mxPoint x="660" y="2101" />
            </Array>
          </mxGeometry>
        </mxCell>
        <mxCell id="z6QapoRPxAM7rQZNHAas-24" style="edgeStyle=orthogonalEdgeStyle;rounded=0;orthogonalLoop=1;jettySize=auto;html=1;targetPerimeterSpacing=-9;" edge="1" parent="1" source="z6QapoRPxAM7rQZNHAas-17" target="-oDh_E2RRcb3K_V0vtgw-90">
          <mxGeometry relative="1" as="geometry">
            <mxPoint x="221" y="2060" as="targetPoint" />
            <Array as="points">
              <mxPoint x="598" y="2000" />
              <mxPoint x="221" y="2000" />
            </Array>
          </mxGeometry>
        </mxCell>
      </root>
    </mxGraphModel>
  </diagram>
</mxfile>
